{
	"patcher" : 	{
		"fileversion" : 1,
		"appversion" : 		{
			"major" : 7,
			"minor" : 0,
			"revision" : 2,
			"architecture" : "x86",
			"modernui" : 1
		}
,
		"rect" : [ 83.0, 134.0, 928.0, 621.0 ],
		"bglocked" : 0,
		"openinpresentation" : 1,
		"default_fontsize" : 12.0,
		"default_fontface" : 0,
		"default_fontname" : "Arial",
		"gridonopen" : 1,
		"gridsize" : [ 15.0, 15.0 ],
		"gridsnaponopen" : 1,
		"objectsnaponopen" : 1,
		"statusbarvisible" : 2,
		"toolbarvisible" : 1,
		"lefttoolbarpinned" : 0,
		"toptoolbarpinned" : 0,
		"righttoolbarpinned" : 0,
		"bottomtoolbarpinned" : 0,
		"toolbars_unpinned_last_save" : 0,
		"tallnewobj" : 0,
		"boxanimatetime" : 200,
		"enablehscroll" : 1,
		"enablevscroll" : 1,
		"devicewidth" : 0.0,
		"description" : "",
		"digest" : "",
		"tags" : "",
		"style" : "",
		"subpatcher_template" : "",
		"boxes" : [ 			{
				"box" : 				{
					"id" : "obj-4",
					"maxclass" : "newobj",
					"numinlets" : 1,
					"numoutlets" : 1,
					"outlettype" : [ "" ],
					"patching_rect" : [ 313.0, 501.0, 56.0, 22.0 ],
					"style" : "",
					"text" : "deferlow"
				}

			}
, 			{
				"box" : 				{
					"fontface" : 0,
					"fontname" : "Arial",
					"fontsize" : 12.0,
					"id" : "obj-2",
					"maxclass" : "newobj",
					"numinlets" : 1,
					"numoutlets" : 3,
					"outlettype" : [ "", "", "" ],
					"patching_rect" : [ 73.500023, 314.0, 102.0, 22.0 ],
					"style" : "",
					"text" : "j.receive duration"
				}

			}
, 			{
				"box" : 				{
					"id" : "obj-115",
					"maxclass" : "newobj",
					"numinlets" : 1,
					"numoutlets" : 1,
					"outlettype" : [ "" ],
					"patching_rect" : [ 589.060608, 162.11438, 112.0, 22.0 ],
					"style" : "",
					"text" : "prepend setsymbol"
				}

			}
, 			{
				"box" : 				{
					"fontsize" : 10.0,
					"id" : "obj-114",
					"maxclass" : "textbutton",
					"mode" : 1,
					"numinlets" : 1,
					"numoutlets" : 3,
					"outlettype" : [ "", "", "int" ],
					"parameter_enable" : 0,
					"patching_rect" : [ 359.75, 234.5, 100.0, 20.0 ],
					"presentation" : 1,
					"presentation_rect" : [ 200.416626, 160.0, 42.549377, 27.0 ],
					"style" : "",
					"text" : "Loop report",
					"texton" : "Loop report",
					"textoncolor" : [ 0.882353, 0.988235, 1.0, 1.0 ]
				}

			}
, 			{
				"box" : 				{
					"fontsize" : 10.0,
					"id" : "obj-113",
					"maxclass" : "textbutton",
					"numinlets" : 1,
					"numoutlets" : 3,
					"outlettype" : [ "", "", "int" ],
					"parameter_enable" : 0,
					"patching_rect" : [ 810.75, 497.0, 100.0, 20.0 ],
					"presentation" : 1,
					"presentation_rect" : [ 143.416626, 160.0, 42.549377, 27.0 ],
					"style" : "",
					"text" : "Clear loop",
					"texton" : "Clear loop",
					"textoncolor" : [ 0.882353, 0.988235, 1.0, 1.0 ]
				}

			}
, 			{
				"box" : 				{
					"fontsize" : 10.0,
					"id" : "obj-112",
					"maxclass" : "textbutton",
					"mode" : 1,
					"numinlets" : 1,
					"numoutlets" : 3,
					"outlettype" : [ "", "", "int" ],
					"parameter_enable" : 0,
					"patching_rect" : [ 763.416626, 588.0, 100.0, 20.0 ],
					"presentation" : 1,
					"presentation_rect" : [ 87.416626, 160.0, 42.549377, 27.0 ],
					"style" : "",
					"text" : "Flip",
					"texton" : "Flip",
					"textoncolor" : [ 0.882353, 0.988235, 1.0, 1.0 ]
				}

			}
, 			{
				"box" : 				{
					"id" : "obj-111",
					"maxclass" : "newobj",
					"numinlets" : 1,
					"numoutlets" : 1,
					"outlettype" : [ "" ],
					"patching_rect" : [ 295.416656, 1151.193604, 56.0, 22.0 ],
					"style" : "",
					"text" : "deferlow"
				}

			}
, 			{
				"box" : 				{
					"id" : "obj-110",
					"maxclass" : "newobj",
					"numinlets" : 1,
					"numoutlets" : 1,
					"outlettype" : [ "" ],
					"patching_rect" : [ 295.416656, 1078.193604, 56.0, 22.0 ],
					"style" : "",
					"text" : "deferlow"
				}

			}
, 			{
				"box" : 				{
					"id" : "obj-109",
					"maxclass" : "newobj",
					"numinlets" : 1,
					"numoutlets" : 2,
					"outlettype" : [ "int", "" ],
					"patching_rect" : [ 295.416656, 1110.0, 33.0, 22.0 ],
					"style" : "",
					"text" : "t 1 s"
				}

			}
, 			{
				"box" : 				{
					"fontsize" : 10.0,
					"id" : "obj-106",
					"maxclass" : "textbutton",
					"mode" : 1,
					"numinlets" : 1,
					"numoutlets" : 3,
					"outlettype" : [ "", "", "int" ],
					"parameter_enable" : 0,
					"patching_rect" : [ 437.25, 1187.307983, 100.0, 20.0 ],
					"presentation" : 1,
					"presentation_rect" : [ 40.25, 160.0, 42.549377, 27.0 ],
					"style" : "",
					"text" : "Play",
					"texton" : "Play",
					"textoncolor" : [ 0.882353, 0.988235, 1.0, 1.0 ]
				}

			}
, 			{
				"box" : 				{
					"id" : "obj-65",
					"maxclass" : "newobj",
					"numinlets" : 1,
					"numoutlets" : 1,
					"outlettype" : [ "" ],
					"patching_rect" : [ 309.416656, 1187.307983, 112.0, 22.0 ],
					"style" : "",
					"text" : "prepend setsymbol"
				}

			}
, 			{
				"box" : 				{
					"color" : [ 0.804844, 0.527957, 0.824703, 1.0 ],
					"fontface" : 0,
					"fontname" : "Arial",
					"fontsize" : 12.0,
					"id" : "obj-67",
					"maxclass" : "newobj",
					"numinlets" : 1,
					"numoutlets" : 3,
					"outlettype" : [ "", "", "" ],
					"patching_rect" : [ 77.083313, 945.193604, 137.0, 22.0 ],
					"style" : "",
					"text" : "j.receive model:address"
				}

			}
, 			{
				"box" : 				{
					"fontsize" : 10.0,
					"id" : "obj-51",
					"maxclass" : "textbutton",
					"numinlets" : 1,
					"numoutlets" : 3,
					"outlettype" : [ "", "", "int" ],
					"parameter_enable" : 0,
					"patching_rect" : [ 204.416641, 819.0, 100.0, 20.0 ],
					"presentation" : 1,
					"presentation_rect" : [ 4.299377, 22.5, 42.549377, 27.0 ],
					"style" : "",
					"text" : "Read",
					"textoncolor" : [ 0.882353, 0.988235, 1.0, 1.0 ]
				}

			}
, 			{
				"box" : 				{
					"id" : "obj-70",
					"maxclass" : "message",
					"numinlets" : 2,
					"numoutlets" : 1,
					"outlettype" : [ "" ],
					"patching_rect" : [ 77.083313, 977.193604, 37.0, 22.0 ],
					"style" : "",
					"text" : "clear"
				}

			}
, 			{
				"box" : 				{
					"id" : "obj-71",
					"maxclass" : "button",
					"numinlets" : 1,
					"numoutlets" : 1,
					"outlettype" : [ "bang" ],
					"patching_rect" : [ 204.416641, 846.0, 24.0, 24.0 ],
					"style" : ""
				}

			}
, 			{
				"box" : 				{
					"id" : "obj-74",
					"maxclass" : "newobj",
					"numinlets" : 1,
					"numoutlets" : 2,
					"outlettype" : [ "", "bang" ],
					"patching_rect" : [ 204.416641, 875.772217, 103.0, 22.0 ],
					"style" : "",
					"text" : "opendialog folder"
				}

			}
, 			{
				"box" : 				{
					"color" : [ 0.803922, 0.529412, 0.823529, 1.0 ],
					"fontface" : 0,
					"fontsize" : 12.0,
					"id" : "obj-75",
					"maxclass" : "newobj",
					"numinlets" : 1,
					"numoutlets" : 4,
					"outlettype" : [ "", "", "", "" ],
					"patching_rect" : [ 266.083313, 1050.46582, 107.0, 22.0 ],
					"style" : "",
					"text" : "j.remote file/select"
				}

			}
, 			{
				"box" : 				{
					"autopopulate" : 1,
					"fontsize" : 10.0,
					"id" : "obj-76",
					"items" : "<empty>",
					"maxclass" : "umenu",
					"numinlets" : 1,
					"numoutlets" : 3,
					"outlettype" : [ "int", "", "" ],
					"parameter_enable" : 0,
					"patching_rect" : [ 231.083313, 1022.807983, 89.0, 20.0 ],
					"prefix_mode" : 2,
					"presentation" : 1,
					"presentation_rect" : [ 4.299377, 51.5, 42.549377, 20.0 ],
					"style" : ""
				}

			}
, 			{
				"box" : 				{
					"fontface" : 0,
					"fontname" : "Arial",
					"fontsize" : 12.0,
					"id" : "obj-77",
					"maxclass" : "newobj",
					"numinlets" : 1,
					"numoutlets" : 1,
					"outlettype" : [ "" ],
					"patching_rect" : [ 231.083313, 945.193604, 87.0, 22.0 ],
					"style" : "",
					"text" : "prepend prefix"
				}

			}
, 			{
				"box" : 				{
					"color" : [ 0.803922, 0.529412, 0.823529, 1.0 ],
					"fontface" : 0,
					"fontsize" : 12.0,
					"id" : "obj-78",
					"maxclass" : "newobj",
					"numinlets" : 1,
					"numoutlets" : 4,
					"outlettype" : [ "", "", "", "" ],
					"patching_rect" : [ 204.416641, 903.0, 99.0, 22.0 ],
					"style" : "",
					"text" : "j.remote file/path"
				}

			}
, 			{
				"box" : 				{
					"id" : "obj-23",
					"maxclass" : "multislider",
					"numinlets" : 1,
					"numoutlets" : 2,
					"orientation" : 0,
					"outlettype" : [ "", "" ],
					"parameter_enable" : 0,
					"patching_rect" : [ 579.916748, 807.0, 141.0, 9.0 ],
					"presentation" : 1,
					"presentation_rect" : [ 12.354172, 80.25, 132.270828, 8.0 ],
					"setminmax" : [ 0.0, 1.0 ],
					"setstyle" : 1,
					"slidercolor" : [ 0.65098, 0.666667, 0.662745, 1.0 ],
					"style" : ""
				}

			}
, 			{
				"box" : 				{
					"id" : "obj-34",
					"maxclass" : "newobj",
					"numinlets" : 1,
					"numoutlets" : 4,
					"outlettype" : [ "", "", "", "" ],
					"patching_rect" : [ 763.416626, 619.5, 109.0, 22.0 ],
					"style" : "",
					"text" : "j.remote fliptexture"
				}

			}
, 			{
				"box" : 				{
					"id" : "obj-33",
					"maxclass" : "newobj",
					"numinlets" : 1,
					"numoutlets" : 1,
					"outlettype" : [ "" ],
					"patching_rect" : [ 810.75, 530.5, 98.0, 22.0 ],
					"style" : "",
					"text" : "j.send loop/clear"
				}

			}
, 			{
				"box" : 				{
					"id" : "obj-31",
					"maxclass" : "message",
					"numinlets" : 2,
					"numoutlets" : 1,
					"outlettype" : [ "" ],
					"patching_rect" : [ 424.25, 348.0, 43.0, 22.0 ],
					"style" : "",
					"text" : "set $2"
				}

			}
, 			{
				"box" : 				{
					"id" : "obj-30",
					"maxclass" : "message",
					"numinlets" : 2,
					"numoutlets" : 1,
					"outlettype" : [ "" ],
					"patching_rect" : [ 359.75, 348.0, 43.0, 22.0 ],
					"style" : "",
					"text" : "set $1"
				}

			}
, 			{
				"box" : 				{
					"id" : "obj-25",
					"maxclass" : "newobj",
					"numinlets" : 2,
					"numoutlets" : 2,
					"outlettype" : [ "", "" ],
					"patching_rect" : [ 359.75, 314.0, 57.0, 22.0 ],
					"style" : "",
					"text" : "route set"
				}

			}
, 			{
				"box" : 				{
					"fontname" : "Arial Bold",
					"fontsize" : 10.0,
					"id" : "obj-26",
					"maxclass" : "number",
					"numinlets" : 1,
					"numoutlets" : 2,
					"outlettype" : [ "", "bang" ],
					"parameter_enable" : 0,
					"patching_rect" : [ 425.75, 381.0, 40.0, 20.0 ],
					"presentation" : 1,
					"presentation_rect" : [ 238.375, 80.25, 46.0, 20.0 ],
					"prototypename" : "Live",
					"style" : "",
					"triscale" : 0.75
				}

			}
, 			{
				"box" : 				{
					"fontname" : "Arial Bold",
					"fontsize" : 10.0,
					"id" : "obj-27",
					"maxclass" : "number",
					"numinlets" : 1,
					"numoutlets" : 2,
					"outlettype" : [ "", "bang" ],
					"parameter_enable" : 0,
					"patching_rect" : [ 359.75, 381.0, 40.0, 20.0 ],
					"presentation" : 1,
					"presentation_rect" : [ 188.75, 80.25, 45.0, 20.0 ],
					"prototypename" : "Live",
					"style" : "",
					"triscale" : 0.75
				}

			}
, 			{
				"box" : 				{
					"id" : "obj-28",
					"maxclass" : "newobj",
					"numinlets" : 2,
					"numoutlets" : 1,
					"outlettype" : [ "" ],
					"patching_rect" : [ 359.75, 409.0, 85.0, 22.0 ],
					"style" : "",
					"text" : "pak 0 0"
				}

			}
, 			{
				"box" : 				{
					"id" : "obj-29",
					"maxclass" : "newobj",
					"numinlets" : 1,
					"numoutlets" : 4,
					"outlettype" : [ "", "", "", "" ],
					"patching_rect" : [ 359.75, 443.0, 115.0, 22.0 ],
					"style" : "",
					"text" : "j.remote loop/points"
				}

			}
, 			{
				"box" : 				{
					"id" : "obj-36",
					"maxclass" : "newobj",
					"numinlets" : 1,
					"numoutlets" : 4,
					"outlettype" : [ "", "", "", "" ],
					"patching_rect" : [ 359.75, 264.0, 115.0, 22.0 ],
					"style" : "",
					"text" : "j.remote loop/report"
				}

			}
, 			{
				"box" : 				{
					"id" : "obj-38",
					"maxclass" : "newobj",
					"numinlets" : 1,
					"numoutlets" : 4,
					"outlettype" : [ "", "", "", "" ],
					"patching_rect" : [ 557.727295, 130.11438, 113.0, 22.0 ],
					"style" : "",
					"text" : "j.remote loop/mode"
				}

			}
, 			{
				"box" : 				{
					"fontname" : "Arial",
					"fontsize" : 12.0,
					"id" : "obj-41",
					"maxclass" : "message",
					"numinlets" : 2,
					"numoutlets" : 1,
					"outlettype" : [ "" ],
					"patching_rect" : [ 579.916748, 763.0, 50.0, 22.0 ],
					"style" : "",
					"text" : "set $1"
				}

			}
, 			{
				"box" : 				{
					"fontname" : "Arial",
					"fontsize" : 12.0,
					"id" : "obj-42",
					"maxclass" : "message",
					"numinlets" : 2,
					"numoutlets" : 1,
					"outlettype" : [ "" ],
					"patching_rect" : [ 579.916748, 832.0, 50.0, 22.0 ],
					"style" : "",
					"text" : "pos $1"
				}

			}
, 			{
				"box" : 				{
					"fontname" : "Arial",
					"fontsize" : 12.0,
					"id" : "obj-43",
					"maxclass" : "newobj",
					"numinlets" : 1,
					"numoutlets" : 1,
					"outlettype" : [ "" ],
					"patching_rect" : [ 579.916748, 857.0, 100.0, 22.0 ],
					"style" : "",
					"text" : "j.send file/direct"
				}

			}
, 			{
				"box" : 				{
					"fontname" : "Arial",
					"fontsize" : 12.0,
					"id" : "obj-44",
					"maxclass" : "newobj",
					"numinlets" : 1,
					"numoutlets" : 3,
					"outlettype" : [ "", "", "" ],
					"patching_rect" : [ 579.916748, 737.0, 141.0, 22.0 ],
					"style" : "",
					"text" : "j.receive file/time/relative"
				}

			}
, 			{
				"box" : 				{
					"bgcolor" : [ 0.54902, 0.545098, 0.552941, 0.0 ],
					"fontname" : "Arial",
					"fontsize" : 10.426503,
					"id" : "obj-62",
					"maxclass" : "comment",
					"numinlets" : 1,
					"numoutlets" : 0,
					"patching_rect" : [ 103.166687, 393.38562, 143.0, 18.0 ],
					"presentation" : 1,
					"presentation_rect" : [ 188.418579, -326.38562, 74.0, 18.0 ],
					"style" : "",
					"text" : "Loop Points:",
					"textcolor" : [ 0.878431, 0.878431, 0.858824, 1.0 ]
				}

			}
, 			{
				"box" : 				{
					"bgfillcolor_angle" : 270.0,
					"bgfillcolor_color" : [ 0.290196, 0.309804, 0.301961, 1.0 ],
					"bgfillcolor_color1" : [ 0.376471, 0.384314, 0.4, 1.0 ],
					"bgfillcolor_color2" : [ 0.290196, 0.309804, 0.301961, 1.0 ],
					"bgfillcolor_proportion" : 0.39,
					"bgfillcolor_type" : "gradient",
					"fontsize" : 10.0,
					"hint" : "Looping mode (default = 1 (start to end))  0 = noloop  1 = normallooping (start to end)  2 = palindrome  (start to end to start to ....)  3 = no looping, but use looppoints to define playback limits-defined",
					"id" : "obj-8",
					"items" : [ "off", ",", "normal", ",", "palindrome", ",", "playback-limits" ],
					"maxclass" : "umenu",
					"numinlets" : 1,
					"numoutlets" : 3,
					"outlettype" : [ "int", "", "" ],
					"parameter_enable" : 0,
					"patching_rect" : [ 517.227295, 92.5, 100.0, 20.0 ],
					"presentation" : 1,
					"presentation_rect" : [ 219.659882, 43.5, 74.565765, 20.0 ],
					"style" : "",
					"textcolor" : [ 0.882353, 0.988235, 1.0, 1.0 ]
				}

			}
, 			{
				"box" : 				{
					"annotation" : "",
					"bgcolor" : [ 0.290196, 0.309804, 0.301961, 1.0 ],
					"bordercolor" : [ 0.803922, 0.898039, 0.909804, 1.0 ],
					"drawline" : 0,
					"fgcolor" : [ 0.803922, 0.898039, 0.909804, 1.0 ],
					"id" : "obj-93",
					"listmode" : 1,
					"maxclass" : "rslider",
					"numinlets" : 2,
					"numoutlets" : 2,
					"orientation" : 1,
					"outlettype" : [ "", "" ],
					"parameter_enable" : 0,
					"patching_rect" : [ 73.500023, 434.38562, 193.54541, 26.0 ],
					"presentation" : 1,
					"presentation_rect" : [ 87.416626, 22.5, 193.54541, 19.0 ],
					"size" : 50.0,
					"style" : ""
				}

			}
, 			{
				"box" : 				{
					"fontname" : "Arial",
					"fontsize" : 12.0,
					"id" : "obj-17",
					"maxclass" : "newobj",
					"numinlets" : 1,
					"numoutlets" : 1,
					"outlettype" : [ "" ],
					"patching_rect" : [ 73.500023, 353.0, 79.0, 22.0 ],
					"style" : "",
					"text" : "prepend size"
				}

			}
, 			{
				"box" : 				{
					"fontname" : "Arial",
					"fontsize" : 12.0,
					"id" : "obj-11",
					"maxclass" : "newobj",
					"numinlets" : 1,
					"numoutlets" : 0,
					"patcher" : 					{
						"fileversion" : 1,
						"appversion" : 						{
							"major" : 7,
							"minor" : 0,
							"revision" : 2,
							"architecture" : "x86",
							"modernui" : 1
						}
,
						"rect" : [ 1089.0, 100.0, 235.0, 205.0 ],
						"bgcolor" : [ 0.878431, 0.878431, 0.858824, 1.0 ],
						"bglocked" : 0,
						"openinpresentation" : 1,
						"default_fontsize" : 12.0,
						"default_fontface" : 0,
						"default_fontname" : "Arial",
						"gridonopen" : 1,
						"gridsize" : [ 15.0, 15.0 ],
						"gridsnaponopen" : 1,
						"objectsnaponopen" : 1,
						"statusbarvisible" : 2,
						"toolbarvisible" : 0,
						"lefttoolbarpinned" : 0,
						"toptoolbarpinned" : 0,
						"righttoolbarpinned" : 0,
						"bottomtoolbarpinned" : 0,
						"toolbars_unpinned_last_save" : 0,
						"tallnewobj" : 0,
						"boxanimatetime" : 200,
						"enablehscroll" : 0,
						"enablevscroll" : 0,
						"devicewidth" : 0.0,
						"description" : "",
						"digest" : "",
						"tags" : "",
						"style" : "",
						"subpatcher_template" : "",
						"title" : "/rdp_gl_hap(view)",
						"boxes" : [ 							{
								"box" : 								{
									"id" : "obj-25",
									"maxclass" : "button",
									"numinlets" : 1,
									"numoutlets" : 1,
									"outlettype" : [ "bang" ],
									"patching_rect" : [ 555.5, 322.11438, 24.0, 24.0 ],
									"presentation" : 1,
									"presentation_rect" : [ 198.387207, 174.875, 21.0, 21.0 ],
									"style" : ""
								}

							}
, 							{
								"box" : 								{
									"activecolor" : [ 0.0, 0.0, 0.0, 1.0 ],
									"annotation" : "",
									"bgcolor" : [ 1.0, 1.0, 1.0, 0.0 ],
									"disabled" : [ 0 ],
									"id" : "obj-21",
									"itemtype" : 1,
									"maxclass" : "radiogroup",
									"numinlets" : 1,
									"numoutlets" : 1,
									"outlettype" : [ "" ],
									"parameter_enable" : 0,
									"patching_rect" : [ 300.482727, 284.88562, 18.0, 18.0 ],
									"presentation" : 1,
									"presentation_rect" : [ 75.0, 176.875, 19.0, 18.0 ],
									"size" : 1,
									"style" : "",
									"values" : [ 0 ]
								}

							}
, 							{
								"box" : 								{
									"fontsize" : 10.0,
									"id" : "obj-16",
									"maxclass" : "number",
									"numinlets" : 1,
									"numoutlets" : 2,
									"outlettype" : [ "", "bang" ],
									"parameter_enable" : 0,
									"patching_rect" : [ 751.166748, 410.0, 48.0, 20.0 ],
									"presentation" : 1,
									"presentation_rect" : [ 177.387207, 74.875, 48.0, 20.0 ],
									"style" : ""
								}

							}
, 							{
								"box" : 								{
									"fontsize" : 10.0,
									"id" : "obj-15",
									"maxclass" : "number",
									"numinlets" : 1,
									"numoutlets" : 2,
									"outlettype" : [ "", "bang" ],
									"parameter_enable" : 0,
									"patching_rect" : [ 113.5, 382.88562, 48.0, 20.0 ],
									"presentation" : 1,
									"presentation_rect" : [ 83.887177, 130.875, 48.0, 20.0 ],
									"style" : ""
								}

							}
, 							{
								"box" : 								{
									"fontsize" : 10.0,
									"id" : "obj-13",
									"maxclass" : "number",
									"numinlets" : 1,
									"numoutlets" : 2,
									"outlettype" : [ "", "bang" ],
									"parameter_enable" : 0,
									"patching_rect" : [ 293.5, 112.72876, 48.0, 20.0 ],
									"presentation" : 1,
									"presentation_rect" : [ 177.387207, 99.5, 48.0, 20.0 ],
									"style" : ""
								}

							}
, 							{
								"box" : 								{
									"fontsize" : 10.0,
									"format" : 6,
									"id" : "obj-11",
									"maxclass" : "flonum",
									"numinlets" : 1,
									"numoutlets" : 2,
									"outlettype" : [ "", "bang" ],
									"parameter_enable" : 0,
									"patching_rect" : [ 508.5, 108.72876, 47.0, 20.0 ],
									"presentation" : 1,
									"presentation_rect" : [ 83.887177, 99.5, 47.0, 20.0 ],
									"style" : ""
								}

							}
, 							{
								"box" : 								{
									"fontsize" : 10.0,
									"format" : 6,
									"id" : "obj-7",
									"maxclass" : "flonum",
									"numinlets" : 1,
									"numoutlets" : 2,
									"outlettype" : [ "", "bang" ],
									"parameter_enable" : 0,
									"patching_rect" : [ 113.5, 115.5, 47.0, 20.0 ],
									"presentation" : 1,
									"presentation_rect" : [ 83.887177, 74.875, 47.0, 20.0 ],
									"style" : ""
								}

							}
, 							{
								"box" : 								{
									"bgcolor" : [ 0.831373, 0.54902, 0.839216, 0.0 ],
									"bubblepoint" : 0.38,
									"fontname" : "Arial",
									"fontsize" : 11.0,
									"id" : "obj-28",
									"maxclass" : "comment",
									"numinlets" : 1,
									"numoutlets" : 0,
									"patching_rect" : [ 183.5, 48.0, 137.0, 19.0 ],
									"presentation" : 1,
									"presentation_rect" : [ 42.0, 2.0, 162.0, 19.0 ],
									"style" : "",
									"text" : "Currently contol of model:",
									"textcolor" : [ 0.878431, 0.878431, 0.858824, 1.0 ],
									"varname" : "description"
								}

							}
, 							{
								"box" : 								{
									"fontname" : "Arial",
									"fontsize" : 12.0,
									"id" : "obj-45",
									"maxclass" : "newobj",
									"numinlets" : 1,
									"numoutlets" : 1,
									"outlettype" : [ "" ],
									"patching_rect" : [ 99.5, 41.0, 74.0, 22.0 ],
									"style" : "",
									"text" : "prepend set"
								}

							}
, 							{
								"box" : 								{
									"color" : [ 0.804844, 0.527957, 0.824703, 1.0 ],
									"fontname" : "Arial",
									"fontsize" : 12.0,
									"id" : "obj-20",
									"maxclass" : "newobj",
									"numinlets" : 1,
									"numoutlets" : 3,
									"outlettype" : [ "", "", "" ],
									"patching_rect" : [ 99.5, 13.0, 137.0, 22.0 ],
									"style" : "",
									"text" : "j.receive model:address"
								}

							}
, 							{
								"box" : 								{
									"fontname" : "Arial",
									"fontsize" : 10.0,
									"id" : "obj-39",
									"maxclass" : "comment",
									"numinlets" : 1,
									"numoutlets" : 0,
									"patching_rect" : [ 317.5, 248.5, 137.0, 18.0 ],
									"presentation" : 1,
									"presentation_rect" : [ 4.0, 176.875, 65.0, 18.0 ],
									"style" : "",
									"text" : "Loop report:",
									"textcolor" : [ 0.878431, 0.878431, 0.858824, 1.0 ]
								}

							}
, 							{
								"box" : 								{
									"fontname" : "Arial",
									"fontsize" : 10.426503,
									"id" : "obj-41",
									"maxclass" : "comment",
									"numinlets" : 1,
									"numoutlets" : 0,
									"patching_rect" : [ 587.649414, 224.5, 142.0, 18.0 ],
									"presentation" : 1,
									"presentation_rect" : [ 4.0, 160.294922, 63.0, 18.0 ],
									"style" : "",
									"text" : "Flip texture:",
									"textcolor" : [ 0.878431, 0.878431, 0.858824, 1.0 ]
								}

							}
, 							{
								"box" : 								{
									"activecolor" : [ 0.0, 0.0, 0.0, 1.0 ],
									"annotation" : "",
									"bgcolor" : [ 1.0, 1.0, 1.0, 0.0 ],
									"disabled" : [ 0 ],
									"id" : "obj-43",
									"itemtype" : 1,
									"maxclass" : "radiogroup",
									"numinlets" : 1,
									"numoutlets" : 1,
									"outlettype" : [ "" ],
									"parameter_enable" : 0,
									"patching_rect" : [ 563.649414, 224.5, 18.0, 18.0 ],
									"presentation" : 1,
									"presentation_rect" : [ 75.0, 160.294922, 19.0, 18.0 ],
									"size" : 1,
									"style" : "",
									"values" : [ 0 ]
								}

							}
, 							{
								"box" : 								{
									"fontname" : "Arial",
									"fontsize" : 10.426503,
									"id" : "obj-75",
									"maxclass" : "comment",
									"numinlets" : 1,
									"numoutlets" : 0,
									"patching_rect" : [ 167.0, 386.88562, 143.0, 18.0 ],
									"presentation" : 1,
									"presentation_rect" : [ 4.0, 132.875, 82.0, 18.0 ],
									"style" : "",
									"text" : "Jump to frame:",
									"textcolor" : [ 0.878431, 0.878431, 0.858824, 1.0 ]
								}

							}
, 							{
								"box" : 								{
									"fontname" : "Arial",
									"fontsize" : 10.426503,
									"id" : "obj-117",
									"maxclass" : "comment",
									"numinlets" : 1,
									"numoutlets" : 0,
									"patching_rect" : [ 350.166687, 112.72876, 150.0, 18.0 ],
									"presentation" : 1,
									"presentation_rect" : [ 138.387207, 101.5, 45.0, 18.0 ],
									"style" : "",
									"text" : "Frame:",
									"textcolor" : [ 0.878431, 0.878431, 0.858824, 1.0 ]
								}

							}
, 							{
								"box" : 								{
									"fontname" : "Arial",
									"fontsize" : 10.426503,
									"id" : "obj-123",
									"maxclass" : "comment",
									"numinlets" : 1,
									"numoutlets" : 0,
									"patching_rect" : [ 558.5, 112.72876, 144.0, 18.0 ],
									"presentation" : 1,
									"presentation_rect" : [ 4.0, 99.5, 46.0, 18.0 ],
									"style" : "",
									"text" : "Volume:",
									"textcolor" : [ 0.878431, 0.878431, 0.858824, 1.0 ]
								}

							}
, 							{
								"box" : 								{
									"fontname" : "Arial",
									"fontsize" : 10.426503,
									"id" : "obj-115",
									"maxclass" : "comment",
									"numinlets" : 1,
									"numoutlets" : 0,
									"patching_rect" : [ 801.166748, 410.0, 145.0, 18.0 ],
									"presentation" : 1,
									"presentation_rect" : [ 138.387207, 74.875, 39.0, 18.0 ],
									"style" : "",
									"text" : "Time:",
									"textcolor" : [ 0.878431, 0.878431, 0.858824, 1.0 ]
								}

							}
, 							{
								"box" : 								{
									"bgcolor" : [ 0.54902, 0.545098, 0.552941, 0.0 ],
									"fontname" : "Arial",
									"fontsize" : 10.426503,
									"id" : "obj-76",
									"maxclass" : "comment",
									"numinlets" : 1,
									"numoutlets" : 0,
									"patching_rect" : [ 558.5, 302.38562, 143.0, 18.0 ],
									"presentation" : 1,
									"presentation_rect" : [ 101.774353, 176.875, 121.227295, 18.0 ],
									"style" : "",
									"text" : "Dispose of Video:",
									"textcolor" : [ 0.878431, 0.878431, 0.858824, 1.0 ]
								}

							}
, 							{
								"box" : 								{
									"color" : [ 0.804844, 0.527957, 0.824703, 1.0 ],
									"fontname" : "Arial",
									"fontsize" : 12.0,
									"id" : "obj-31",
									"maxclass" : "newobj",
									"numinlets" : 1,
									"numoutlets" : 4,
									"outlettype" : [ "", "", "", "" ],
									"patching_rect" : [ 558.5, 355.0, 99.0, 22.0 ],
									"style" : "",
									"text" : "j.remote dispose"
								}

							}
, 							{
								"box" : 								{
									"color" : [ 0.804844, 0.527957, 0.824703, 1.0 ],
									"fontname" : "Arial",
									"fontsize" : 12.0,
									"id" : "obj-26",
									"maxclass" : "newobj",
									"numinlets" : 1,
									"numoutlets" : 4,
									"outlettype" : [ "", "", "", "" ],
									"patching_rect" : [ 751.166748, 438.88562, 80.0, 22.0 ],
									"style" : "",
									"text" : "j.remote time"
								}

							}
, 							{
								"box" : 								{
									"color" : [ 0.804844, 0.527957, 0.824703, 1.0 ],
									"fontname" : "Arial",
									"fontsize" : 12.0,
									"id" : "obj-24",
									"maxclass" : "newobj",
									"numinlets" : 1,
									"numoutlets" : 4,
									"outlettype" : [ "", "", "", "" ],
									"patching_rect" : [ 300.482727, 312.38562, 111.0, 22.0 ],
									"style" : "",
									"text" : "j.remote loopreport"
								}

							}
, 							{
								"box" : 								{
									"color" : [ 0.804844, 0.527957, 0.824703, 1.0 ],
									"fontname" : "Arial",
									"fontsize" : 12.0,
									"id" : "obj-10",
									"maxclass" : "newobj",
									"numinlets" : 1,
									"numoutlets" : 4,
									"outlettype" : [ "", "", "", "" ],
									"patching_rect" : [ 558.5, 430.38562, 119.0, 22.0 ],
									"style" : "",
									"text" : "j.remote framereport"
								}

							}
, 							{
								"box" : 								{
									"color" : [ 0.804844, 0.527957, 0.824703, 1.0 ],
									"fontname" : "Arial",
									"fontsize" : 12.0,
									"id" : "obj-9",
									"maxclass" : "newobj",
									"numinlets" : 1,
									"numoutlets" : 4,
									"outlettype" : [ "", "", "", "" ],
									"patching_rect" : [ 563.649414, 252.0, 109.0, 22.0 ],
									"style" : "",
									"text" : "j.remote fliptexture"
								}

							}
, 							{
								"box" : 								{
									"color" : [ 0.804844, 0.527957, 0.824703, 1.0 ],
									"fontname" : "Arial",
									"fontsize" : 12.0,
									"id" : "obj-8",
									"maxclass" : "newobj",
									"numinlets" : 1,
									"numoutlets" : 4,
									"outlettype" : [ "", "", "", "" ],
									"patching_rect" : [ 113.5, 413.88562, 83.0, 22.0 ],
									"style" : "",
									"text" : "j.remote jump"
								}

							}
, 							{
								"box" : 								{
									"color" : [ 0.804844, 0.527957, 0.824703, 1.0 ],
									"fontname" : "Arial",
									"fontsize" : 12.0,
									"id" : "obj-3",
									"maxclass" : "newobj",
									"numinlets" : 1,
									"numoutlets" : 4,
									"outlettype" : [ "", "", "", "" ],
									"patching_rect" : [ 508.5, 137.88562, 96.0, 22.0 ],
									"style" : "",
									"text" : "j.remote volume"
								}

							}
, 							{
								"box" : 								{
									"color" : [ 0.804844, 0.527957, 0.824703, 1.0 ],
									"fontname" : "Arial",
									"fontsize" : 12.0,
									"id" : "obj-1",
									"maxclass" : "newobj",
									"numinlets" : 1,
									"numoutlets" : 4,
									"outlettype" : [ "", "", "", "" ],
									"patching_rect" : [ 293.5, 144.5, 88.0, 22.0 ],
									"style" : "",
									"text" : "j.remote frame"
								}

							}
, 							{
								"box" : 								{
									"annotation" : "",
									"border" : 1.0,
									"id" : "obj-30",
									"keymode" : 1,
									"maxclass" : "textedit",
									"numinlets" : 1,
									"numoutlets" : 4,
									"outlettype" : [ "", "int", "", "" ],
									"parameter_enable" : 0,
									"patching_rect" : [ 113.5, 272.0, 164.0, 18.0 ],
									"presentation" : 1,
									"presentation_rect" : [ 64.0, 48.277779, 190.0, 16.0 ],
									"rounded" : 20.0,
									"style" : "default",
									"text" : "Jamoma"
								}

							}
, 							{
								"box" : 								{
									"fontname" : "Arial",
									"fontsize" : 12.0,
									"id" : "obj-42",
									"maxclass" : "newobj",
									"numinlets" : 2,
									"numoutlets" : 2,
									"outlettype" : [ "", "" ],
									"patching_rect" : [ 113.5, 299.5, 61.0, 22.0 ],
									"style" : "",
									"text" : "route text"
								}

							}
, 							{
								"box" : 								{
									"color" : [ 0.804844, 0.527957, 0.824703, 1.0 ],
									"fontname" : "Arial",
									"fontsize" : 12.0,
									"id" : "obj-27",
									"maxclass" : "newobj",
									"numinlets" : 1,
									"numoutlets" : 4,
									"outlettype" : [ "", "", "", "" ],
									"patching_rect" : [ 113.5, 322.11438, 93.0, 22.0 ],
									"style" : "",
									"text" : "j.remote drawto"
								}

							}
, 							{
								"box" : 								{
									"color" : [ 0.804844, 0.527957, 0.824703, 1.0 ],
									"fontname" : "Arial",
									"fontsize" : 12.0,
									"id" : "obj-5",
									"maxclass" : "newobj",
									"numinlets" : 1,
									"numoutlets" : 4,
									"outlettype" : [ "", "", "", "" ],
									"patching_rect" : [ 113.5, 144.5, 78.0, 22.0 ],
									"style" : "",
									"text" : "j.remote rate"
								}

							}
, 							{
								"box" : 								{
									"fontname" : "Arial",
									"fontsize" : 10.426503,
									"id" : "obj-112",
									"maxclass" : "comment",
									"numinlets" : 1,
									"numoutlets" : 0,
									"patching_rect" : [ 585.244873, 402.88562, 145.0, 18.0 ],
									"presentation" : 1,
									"presentation_rect" : [ 101.774353, 160.294922, 77.0, 18.0 ],
									"style" : "",
									"text" : "Frame report:",
									"textcolor" : [ 0.878431, 0.878431, 0.858824, 1.0 ]
								}

							}
, 							{
								"box" : 								{
									"activecolor" : [ 0.0, 0.0, 0.0, 1.0 ],
									"annotation" : "",
									"bgcolor" : [ 1.0, 1.0, 1.0, 0.0 ],
									"disabled" : [ 0 ],
									"id" : "obj-83",
									"itemtype" : 1,
									"maxclass" : "radiogroup",
									"numinlets" : 1,
									"numoutlets" : 1,
									"outlettype" : [ "" ],
									"parameter_enable" : 0,
									"patching_rect" : [ 558.5, 402.88562, 18.0, 18.0 ],
									"presentation" : 1,
									"presentation_rect" : [ 177.387207, 160.294922, 19.0, 18.0 ],
									"size" : 1,
									"style" : "",
									"values" : [ 0 ]
								}

							}
, 							{
								"box" : 								{
									"fontname" : "Arial",
									"fontsize" : 20.0,
									"id" : "obj-84",
									"maxclass" : "comment",
									"numinlets" : 1,
									"numoutlets" : 0,
									"patching_rect" : [ 99.5, 70.5, 209.0, 29.0 ],
									"presentation" : 1,
									"presentation_rect" : [ 44.774353, 13.5, 191.0, 29.0 ],
									"style" : "",
									"text" : "/no_model_address",
									"textcolor" : [ 0.878431, 0.878431, 0.858824, 1.0 ],
									"varname" : "name"
								}

							}
, 							{
								"box" : 								{
									"id" : "obj-85",
									"ignoreclick" : 1,
									"maxclass" : "pictctrl",
									"name" : "RDPJamomaLogo2.png",
									"numinlets" : 1,
									"numoutlets" : 1,
									"outlettype" : [ "int" ],
									"parameter_enable" : 0,
									"patching_rect" : [ 50.5, 13.0, 43.0, 42.5 ],
									"presentation" : 1,
									"presentation_rect" : [ 4.0, 2.0, 38.774353, 38.5 ],
									"varname" : "logo"
								}

							}
, 							{
								"box" : 								{
									"comment" : "",
									"id" : "obj-2",
									"maxclass" : "inlet",
									"numinlets" : 0,
									"numoutlets" : 1,
									"outlettype" : [ "" ],
									"patching_rect" : [ 23.0, 100.0, 25.0, 25.0 ],
									"style" : ""
								}

							}
, 							{
								"box" : 								{
									"bgcolor" : [ 0.54902, 0.545098, 0.552941, 0.0 ],
									"fontname" : "Arial",
									"fontsize" : 10.0,
									"id" : "obj-29",
									"maxclass" : "comment",
									"numinlets" : 1,
									"numoutlets" : 0,
									"patching_rect" : [ 132.5, 252.0, 140.0, 18.0 ],
									"presentation" : 1,
									"presentation_rect" : [ 4.0, 48.277779, 58.0, 18.0 ],
									"style" : "",
									"text" : "Draw to:",
									"textcolor" : [ 0.878431, 0.878431, 0.858824, 1.0 ]
								}

							}
, 							{
								"box" : 								{
									"fontname" : "Arial",
									"fontsize" : 10.426503,
									"id" : "obj-121",
									"maxclass" : "comment",
									"numinlets" : 1,
									"numoutlets" : 0,
									"patching_rect" : [ 170.083328, 115.5, 109.0, 18.0 ],
									"presentation" : 1,
									"presentation_rect" : [ 4.0, 74.875, 88.0, 18.0 ],
									"style" : "",
									"text" : "Playback Rate:",
									"textcolor" : [ 0.878431, 0.878431, 0.858824, 1.0 ]
								}

							}
, 							{
								"box" : 								{
									"angle" : 273.179077,
									"grad1" : [ 0.52549, 0.541176, 0.568627, 1.0 ],
									"grad2" : [ 0.52549, 0.541176, 0.568627, 1.0 ],
									"id" : "obj-4",
									"maxclass" : "panel",
									"mode" : 1,
									"numinlets" : 1,
									"numoutlets" : 0,
									"patching_rect" : [ 363.5, 12.0, 73.0, 48.0 ],
									"presentation" : 1,
									"presentation_rect" : [ 0.0, 42.875, 235.774353, 162.0 ],
									"proportion" : 0.39,
									"pt1" : [ 0.49505, 0.86087 ],
									"pt2" : [ 0.5, 0.95 ],
									"rounded" : 0,
									"style" : ""
								}

							}
, 							{
								"box" : 								{
									"angle" : 273.179077,
									"grad1" : [ 0.290196, 0.309804, 0.301961, 1.0 ],
									"grad2" : [ 0.290196, 0.309804, 0.301961, 1.0 ],
									"id" : "obj-6",
									"maxclass" : "panel",
									"mode" : 1,
									"numinlets" : 1,
									"numoutlets" : 0,
									"patching_rect" : [ 33.0, 243.875, 73.0, 48.0 ],
									"presentation" : 1,
									"presentation_rect" : [ 0.0, 0.0, 235.774353, 42.5 ],
									"proportion" : 0.39,
									"pt1" : [ 0.49505, 0.86087 ],
									"pt2" : [ 0.5, 0.95 ],
									"rounded" : 0,
									"style" : ""
								}

							}
 ],
						"lines" : [ 							{
								"patchline" : 								{
									"destination" : [ "obj-13", 0 ],
									"disabled" : 0,
									"hidden" : 0,
									"midpoints" : [ 303.0, 175.0, 287.0, 175.0, 287.0, 108.0, 303.0, 108.0 ],
									"source" : [ "obj-1", 0 ]
								}

							}
, 							{
								"patchline" : 								{
									"destination" : [ "obj-83", 0 ],
									"disabled" : 0,
									"hidden" : 0,
									"midpoints" : [ 568.0, 458.0, 550.850586, 458.0, 550.850586, 394.0, 568.0, 394.0 ],
									"source" : [ "obj-10", 0 ]
								}

							}
, 							{
								"patchline" : 								{
									"destination" : [ "obj-3", 0 ],
									"disabled" : 0,
									"hidden" : 0,
									"source" : [ "obj-11", 0 ]
								}

							}
, 							{
								"patchline" : 								{
									"destination" : [ "obj-1", 0 ],
									"disabled" : 0,
									"hidden" : 0,
									"source" : [ "obj-13", 0 ]
								}

							}
, 							{
								"patchline" : 								{
									"destination" : [ "obj-8", 0 ],
									"disabled" : 0,
									"hidden" : 0,
									"source" : [ "obj-15", 0 ]
								}

							}
, 							{
								"patchline" : 								{
									"destination" : [ "obj-26", 0 ],
									"disabled" : 0,
									"hidden" : 0,
									"source" : [ "obj-16", 0 ]
								}

							}
, 							{
								"patchline" : 								{
									"destination" : [ "obj-45", 0 ],
									"disabled" : 0,
									"hidden" : 0,
									"source" : [ "obj-20", 0 ]
								}

							}
, 							{
								"patchline" : 								{
									"destination" : [ "obj-24", 0 ],
									"disabled" : 0,
									"hidden" : 0,
									"source" : [ "obj-21", 0 ]
								}

							}
, 							{
								"patchline" : 								{
									"destination" : [ "obj-21", 0 ],
									"disabled" : 0,
									"hidden" : 0,
									"midpoints" : [ 309.982727, 343.0, 291.0, 343.0, 291.0, 277.0, 309.982727, 277.0 ],
									"source" : [ "obj-24", 0 ]
								}

							}
, 							{
								"patchline" : 								{
									"destination" : [ "obj-31", 0 ],
									"disabled" : 0,
									"hidden" : 0,
									"source" : [ "obj-25", 0 ]
								}

							}
, 							{
								"patchline" : 								{
									"destination" : [ "obj-16", 0 ],
									"disabled" : 0,
									"hidden" : 0,
									"midpoints" : [ 760.666748, 466.0, 747.0, 466.0, 747.0, 403.0, 760.666748, 403.0 ],
									"source" : [ "obj-26", 0 ]
								}

							}
, 							{
								"patchline" : 								{
									"destination" : [ "obj-30", 0 ],
									"disabled" : 0,
									"hidden" : 0,
									"midpoints" : [ 123.0, 354.0, 105.825623, 354.0, 105.825623, 261.0, 123.0, 261.0 ],
									"source" : [ "obj-27", 0 ]
								}

							}
, 							{
								"patchline" : 								{
									"destination" : [ "obj-11", 0 ],
									"disabled" : 0,
									"hidden" : 0,
									"midpoints" : [ 518.0, 170.0, 497.0, 170.0, 497.0, 92.0, 518.0, 92.0 ],
									"source" : [ "obj-3", 0 ]
								}

							}
, 							{
								"patchline" : 								{
									"destination" : [ "obj-42", 0 ],
									"disabled" : 0,
									"hidden" : 0,
									"source" : [ "obj-30", 0 ]
								}

							}
, 							{
								"patchline" : 								{
									"destination" : [ "obj-27", 0 ],
									"disabled" : 0,
									"hidden" : 0,
									"source" : [ "obj-42", 0 ]
								}

							}
, 							{
								"patchline" : 								{
									"destination" : [ "obj-9", 0 ],
									"disabled" : 0,
									"hidden" : 0,
									"source" : [ "obj-43", 0 ]
								}

							}
, 							{
								"patchline" : 								{
									"destination" : [ "obj-84", 0 ],
									"disabled" : 0,
									"hidden" : 0,
									"source" : [ "obj-45", 0 ]
								}

							}
, 							{
								"patchline" : 								{
									"destination" : [ "obj-7", 0 ],
									"disabled" : 0,
									"hidden" : 0,
									"midpoints" : [ 123.0, 180.0, 103.0, 180.0, 103.0, 104.0, 123.0, 104.0 ],
									"source" : [ "obj-5", 0 ]
								}

							}
, 							{
								"patchline" : 								{
									"destination" : [ "obj-5", 0 ],
									"disabled" : 0,
									"hidden" : 0,
									"source" : [ "obj-7", 0 ]
								}

							}
, 							{
								"patchline" : 								{
									"destination" : [ "obj-15", 0 ],
									"disabled" : 0,
									"hidden" : 0,
									"midpoints" : [ 123.0, 445.0, 103.0, 445.0, 103.0, 373.0, 123.0, 373.0 ],
									"source" : [ "obj-8", 0 ]
								}

							}
, 							{
								"patchline" : 								{
									"destination" : [ "obj-10", 0 ],
									"disabled" : 0,
									"hidden" : 0,
									"source" : [ "obj-83", 0 ]
								}

							}
, 							{
								"patchline" : 								{
									"destination" : [ "obj-43", 0 ],
									"disabled" : 0,
									"hidden" : 0,
									"midpoints" : [ 573.149414, 280.0, 555.0, 280.0, 555.0, 215.0, 573.149414, 215.0 ],
									"source" : [ "obj-9", 0 ]
								}

							}
 ],
						"styles" : [ 							{
								"name" : "AudioStatus_Menu",
								"default" : 								{
									"bgfillcolor" : 									{
										"type" : "color",
										"color" : [ 0.294118, 0.313726, 0.337255, 1 ],
										"color1" : [ 0.454902, 0.462745, 0.482353, 0.0 ],
										"color2" : [ 0.290196, 0.309804, 0.301961, 1.0 ],
										"angle" : 270.0,
										"proportion" : 0.39,
										"autogradient" : 0
									}

								}
,
								"parentstyle" : "",
								"multi" : 0
							}
, 							{
								"name" : "rdp-jamoma-style",
								"default" : 								{
									"bgcolor" : [ 1.0, 0.827451, 0.345098, 0.0 ],
									"accentcolor" : [ 0.290196, 0.309804, 0.301961, 1.0 ],
									"fontface" : [ 0 ],
									"selectioncolor" : [ 0.849573, 1.0, 0.926902, 1.0 ],
									"textcolor_inverse" : [ 0.290196, 0.309804, 0.301961, 1.0 ]
								}
,
								"parentstyle" : "",
								"multi" : 0
							}
 ]
					}
,
					"patching_rect" : [ 13.0, 97.0, 50.0, 22.0 ],
					"saved_object_attributes" : 					{
						"description" : "",
						"digest" : "",
						"globalpatchername" : "",
						"style" : "",
						"tags" : ""
					}
,
					"style" : "",
					"text" : "p panel"
				}

			}
, 			{
				"box" : 				{
					"bgcolor" : [ 0.526442, 0.540023, 0.568813, 1.0 ],
					"bordercolor" : [ 0.921569, 0.917647, 0.933333, 1.0 ],
					"fontface" : 0,
					"headercolor" : [ 0.290196, 0.309804, 0.301961, 1.0 ],
					"highlightcolor" : [ 0.803922, 0.529412, 0.823529, 1.0 ],
					"id" : "obj-6",
					"maxclass" : "j.ui",
					"numinlets" : 1,
					"numoutlets" : 1,
					"outlettype" : [ "" ],
					"patching_rect" : [ 13.0, 6.5, 300.0, 70.0 ],
					"presentation" : 1,
					"presentation_rect" : [ 0.0, -0.5, 300.0, 210.0 ],
					"text" : "/no_model_address",
					"textcolor" : [ 0.921569, 0.917647, 0.933333, 1.0 ]
				}

			}
, 			{
				"box" : 				{
					"comment" : "",
					"id" : "obj-5",
					"maxclass" : "outlet",
					"numinlets" : 1,
					"numoutlets" : 0,
					"patching_rect" : [ 13.0, 203.11438, 25.0, 25.0 ],
					"style" : ""
				}

			}
, 			{
				"box" : 				{
					"comment" : "",
					"id" : "obj-3",
					"maxclass" : "inlet",
					"numinlets" : 0,
					"numoutlets" : 1,
					"outlettype" : [ "" ],
					"patching_rect" : [ 13.0, 130.11438, 25.0, 25.0 ],
					"style" : ""
				}

			}
, 			{
				"box" : 				{
					"color" : [ 0.804844, 0.527957, 0.824703, 1.0 ],
					"fontname" : "Arial",
					"fontsize" : 12.0,
					"id" : "obj-1",
					"maxclass" : "newobj",
					"numinlets" : 1,
					"numoutlets" : 2,
					"outlettype" : [ "", "" ],
					"patching_rect" : [ 13.0, 170.11438, 281.0, 22.0 ],
					"style" : "",
					"text" : "j.view @description \"interface for hap video player\""
				}

			}
, 			{
				"box" : 				{
					"fontname" : "Arial",
					"fontsize" : 12.0,
					"id" : "obj-94",
					"maxclass" : "newobj",
					"numinlets" : 1,
					"numoutlets" : 4,
					"outlettype" : [ "", "", "", "" ],
					"patching_rect" : [ 547.75, 1187.307983, 98.0, 22.0 ],
					"style" : "",
					"text" : "j.remote file/play",
					"varname" : "play"
				}

			}
 ],
		"lines" : [ 			{
				"patchline" : 				{
					"destination" : [ "obj-5", 0 ],
					"disabled" : 0,
					"hidden" : 0,
					"source" : [ "obj-1", 0 ]
				}

			}
, 			{
				"patchline" : 				{
					"destination" : [ "obj-94", 0 ],
					"disabled" : 0,
					"hidden" : 0,
					"source" : [ "obj-106", 0 ]
				}

			}
, 			{
				"patchline" : 				{
					"destination" : [ "obj-111", 0 ],
					"disabled" : 0,
					"hidden" : 0,
					"source" : [ "obj-109", 0 ]
				}

			}
, 			{
				"patchline" : 				{
					"destination" : [ "obj-65", 0 ],
					"disabled" : 0,
					"hidden" : 0,
					"source" : [ "obj-109", 1 ]
				}

			}
, 			{
				"patchline" : 				{
					"destination" : [ "obj-109", 0 ],
					"disabled" : 0,
					"hidden" : 0,
					"source" : [ "obj-110", 0 ]
				}

			}
, 			{
				"patchline" : 				{
					"destination" : [ "obj-94", 0 ],
					"disabled" : 0,
					"hidden" : 0,
					"midpoints" : [ 304.916656, 1179.750732, 557.25, 1179.750732 ],
					"source" : [ "obj-111", 0 ]
				}

			}
, 			{
				"patchline" : 				{
					"destination" : [ "obj-34", 0 ],
					"disabled" : 0,
					"hidden" : 0,
					"source" : [ "obj-112", 0 ]
				}

			}
, 			{
				"patchline" : 				{
					"destination" : [ "obj-33", 0 ],
					"disabled" : 0,
					"hidden" : 0,
					"source" : [ "obj-113", 0 ]
				}

			}
, 			{
				"patchline" : 				{
					"destination" : [ "obj-36", 0 ],
					"disabled" : 0,
					"hidden" : 0,
					"source" : [ "obj-114", 0 ]
				}

			}
, 			{
				"patchline" : 				{
					"destination" : [ "obj-8", 0 ],
					"disabled" : 0,
					"hidden" : 0,
					"midpoints" : [ 598.560608, 204.0, 502.0, 204.0, 502.0, 77.0, 526.727295, 77.0 ],
					"source" : [ "obj-115", 0 ]
				}

			}
, 			{
				"patchline" : 				{
					"destination" : [ "obj-93", 0 ],
					"disabled" : 0,
					"hidden" : 0,
					"midpoints" : [ 83.000023, 385.69281, 83.000023, 385.69281 ],
					"source" : [ "obj-17", 0 ]
				}

			}
, 			{
				"patchline" : 				{
					"destination" : [ "obj-17", 0 ],
					"disabled" : 0,
					"hidden" : 0,
					"source" : [ "obj-2", 0 ]
				}

			}
, 			{
				"patchline" : 				{
					"destination" : [ "obj-42", 0 ],
					"disabled" : 0,
					"hidden" : 0,
					"source" : [ "obj-23", 0 ]
				}

			}
, 			{
				"patchline" : 				{
					"destination" : [ "obj-30", 0 ],
					"disabled" : 0,
					"hidden" : 0,
					"source" : [ "obj-25", 0 ]
				}

			}
, 			{
				"patchline" : 				{
					"destination" : [ "obj-31", 0 ],
					"disabled" : 0,
					"hidden" : 0,
					"source" : [ "obj-25", 0 ]
				}

			}
, 			{
				"patchline" : 				{
					"destination" : [ "obj-28", 1 ],
					"disabled" : 0,
					"hidden" : 0,
					"source" : [ "obj-26", 0 ]
				}

			}
, 			{
				"patchline" : 				{
					"destination" : [ "obj-28", 0 ],
					"disabled" : 0,
					"hidden" : 0,
					"source" : [ "obj-27", 0 ]
				}

			}
, 			{
				"patchline" : 				{
					"destination" : [ "obj-29", 0 ],
					"disabled" : 0,
					"hidden" : 0,
					"source" : [ "obj-28", 0 ]
				}

			}
, 			{
				"patchline" : 				{
					"destination" : [ "obj-25", 0 ],
					"disabled" : 0,
					"hidden" : 0,
					"midpoints" : [ 369.25, 475.0, 351.25, 475.0, 351.25, 303.0, 369.25, 303.0 ],
					"source" : [ "obj-29", 0 ]
				}

			}
, 			{
				"patchline" : 				{
					"destination" : [ "obj-93", 0 ],
					"disabled" : 0,
					"hidden" : 0,
					"source" : [ "obj-29", 0 ]
				}

			}
, 			{
				"patchline" : 				{
					"destination" : [ "obj-1", 0 ],
					"disabled" : 0,
					"hidden" : 0,
					"source" : [ "obj-3", 0 ]
				}

			}
, 			{
				"patchline" : 				{
					"destination" : [ "obj-27", 0 ],
					"disabled" : 0,
					"hidden" : 0,
					"source" : [ "obj-30", 0 ]
				}

			}
, 			{
				"patchline" : 				{
					"destination" : [ "obj-26", 0 ],
					"disabled" : 0,
					"hidden" : 0,
					"source" : [ "obj-31", 0 ]
				}

			}
, 			{
				"patchline" : 				{
					"destination" : [ "obj-112", 0 ],
					"disabled" : 0,
					"hidden" : 0,
					"midpoints" : [ 772.916626, 655.0, 747.0, 655.0, 747.0, 566.0, 772.916626, 566.0 ],
					"source" : [ "obj-34", 0 ]
				}

			}
, 			{
				"patchline" : 				{
					"destination" : [ "obj-114", 0 ],
					"disabled" : 0,
					"hidden" : 0,
					"midpoints" : [ 369.25, 295.5, 347.0, 295.5, 347.0, 221.5, 369.25, 221.5 ],
					"source" : [ "obj-36", 0 ]
				}

			}
, 			{
				"patchline" : 				{
					"destination" : [ "obj-115", 0 ],
					"disabled" : 0,
					"hidden" : 0,
					"source" : [ "obj-38", 1 ]
				}

			}
, 			{
				"patchline" : 				{
					"destination" : [ "obj-23", 0 ],
					"disabled" : 0,
					"hidden" : 0,
					"source" : [ "obj-41", 0 ]
				}

			}
, 			{
				"patchline" : 				{
					"destination" : [ "obj-43", 0 ],
					"disabled" : 0,
					"hidden" : 0,
					"source" : [ "obj-42", 0 ]
				}

			}
, 			{
				"patchline" : 				{
					"destination" : [ "obj-41", 0 ],
					"disabled" : 0,
					"hidden" : 0,
					"source" : [ "obj-44", 0 ]
				}

			}
, 			{
				"patchline" : 				{
					"destination" : [ "obj-71", 0 ],
					"disabled" : 0,
					"hidden" : 0,
					"source" : [ "obj-51", 0 ]
				}

			}
, 			{
				"patchline" : 				{
					"destination" : [ "obj-11", 0 ],
					"disabled" : 0,
					"hidden" : 0,
					"source" : [ "obj-6", 0 ]
				}

			}
, 			{
				"patchline" : 				{
					"destination" : [ "obj-76", 0 ],
					"disabled" : 0,
					"hidden" : 0,
					"midpoints" : [ 318.916656, 1213.307983, 209.75, 1213.307983, 209.75, 1011.807983, 240.583313, 1011.807983 ],
					"source" : [ "obj-65", 0 ]
				}

			}
, 			{
				"patchline" : 				{
					"destination" : [ "obj-70", 0 ],
					"disabled" : 0,
					"hidden" : 0,
					"source" : [ "obj-67", 0 ]
				}

			}
, 			{
				"patchline" : 				{
					"destination" : [ "obj-76", 0 ],
					"disabled" : 0,
					"hidden" : 0,
					"midpoints" : [ 86.583313, 1009.693604, 240.583313, 1009.693604 ],
					"source" : [ "obj-70", 0 ]
				}

			}
, 			{
				"patchline" : 				{
					"destination" : [ "obj-74", 0 ],
					"disabled" : 0,
					"hidden" : 0,
					"source" : [ "obj-71", 0 ]
				}

			}
, 			{
				"patchline" : 				{
					"destination" : [ "obj-78", 0 ],
					"disabled" : 0,
					"hidden" : 0,
					"source" : [ "obj-74", 0 ]
				}

			}
, 			{
				"patchline" : 				{
					"destination" : [ "obj-110", 0 ],
					"disabled" : 0,
					"hidden" : 0,
					"source" : [ "obj-75", 1 ]
				}

			}
, 			{
				"patchline" : 				{
					"destination" : [ "obj-75", 0 ],
					"disabled" : 0,
					"hidden" : 0,
					"source" : [ "obj-76", 1 ]
				}

			}
, 			{
				"patchline" : 				{
					"destination" : [ "obj-76", 0 ],
					"disabled" : 0,
					"hidden" : 0,
					"source" : [ "obj-77", 0 ]
				}

			}
, 			{
				"patchline" : 				{
					"destination" : [ "obj-77", 0 ],
					"disabled" : 0,
					"hidden" : 0,
					"source" : [ "obj-78", 1 ]
				}

			}
, 			{
				"patchline" : 				{
					"destination" : [ "obj-38", 0 ],
					"disabled" : 0,
					"hidden" : 0,
					"source" : [ "obj-8", 1 ]
				}

			}
, 			{
				"patchline" : 				{
					"destination" : [ "obj-29", 0 ],
					"disabled" : 0,
					"hidden" : 0,
					"source" : [ "obj-93", 0 ]
				}

			}
, 			{
				"patchline" : 				{
					"destination" : [ "obj-106", 0 ],
					"disabled" : 0,
					"hidden" : 0,
					"source" : [ "obj-94", 0 ]
				}

			}
 ],
		"dependency_cache" : [ 			{
				"name" : "RDPJamomaLogo2.png",
				"bootpath" : "~/Documents/Github_Development_Library/rdp_Jamoma_06/Dependencies",
				"patcherrelativepath" : "../../../Dependencies",
				"type" : "PNG ",
				"implicit" : 1
			}
, 			{
				"name" : "j.remote.mxo",
				"type" : "iLaX"
			}
, 			{
				"name" : "j.view.mxo",
				"type" : "iLaX"
			}
, 			{
				"name" : "j.ui.mxo",
				"type" : "iLaX"
			}
, 			{
				"name" : "j.receive.mxo",
				"type" : "iLaX"
			}
, 			{
				"name" : "j.send.mxo",
				"type" : "iLaX"
			}
 ],
		"embedsnapshot" : 0,
		"styles" : [ 			{
				"name" : "AudioStatus_Menu",
				"default" : 				{
					"bgfillcolor" : 					{
						"type" : "color",
						"color" : [ 0.294118, 0.313726, 0.337255, 1 ],
						"color1" : [ 0.454902, 0.462745, 0.482353, 0.0 ],
						"color2" : [ 0.290196, 0.309804, 0.301961, 1.0 ],
						"angle" : 270.0,
						"proportion" : 0.39,
						"autogradient" : 0
					}

				}
,
				"parentstyle" : "",
				"multi" : 0
			}
, 			{
				"name" : "rdp-jamoma-style",
				"default" : 				{
					"bgcolor" : [ 1.0, 0.827451, 0.345098, 0.0 ],
					"accentcolor" : [ 0.290196, 0.309804, 0.301961, 1.0 ],
					"fontface" : [ 0 ],
					"selectioncolor" : [ 0.849573, 1.0, 0.926902, 1.0 ],
					"textcolor_inverse" : [ 0.290196, 0.309804, 0.301961, 1.0 ]
				}
,
				"parentstyle" : "",
				"multi" : 0
			}
 ]
	}

}
