{
	"patcher" : 	{
		"fileversion" : 1,
		"appversion" : 		{
			"major" : 7,
			"minor" : 0,
			"revision" : 2,
			"architecture" : "x86",
			"modernui" : 1
		}
,
		"rect" : [ 83.0, 134.0, 928.0, 621.0 ],
		"bglocked" : 0,
		"openinpresentation" : 1,
		"default_fontsize" : 12.0,
		"default_fontface" : 0,
		"default_fontname" : "Arial",
		"gridonopen" : 1,
		"gridsize" : [ 15.0, 15.0 ],
		"gridsnaponopen" : 1,
		"objectsnaponopen" : 1,
		"statusbarvisible" : 2,
		"toolbarvisible" : 1,
		"lefttoolbarpinned" : 0,
		"toptoolbarpinned" : 0,
		"righttoolbarpinned" : 0,
		"bottomtoolbarpinned" : 0,
		"toolbars_unpinned_last_save" : 0,
		"tallnewobj" : 0,
		"boxanimatetime" : 200,
		"enablehscroll" : 1,
		"enablevscroll" : 1,
		"devicewidth" : 0.0,
		"description" : "",
		"digest" : "",
		"tags" : "",
		"style" : "",
		"subpatcher_template" : "",
		"boxes" : [ 			{
				"box" : 				{
					"id" : "obj-4",
					"maxclass" : "newobj",
					"numinlets" : 1,
					"numoutlets" : 1,
					"outlettype" : [ "" ],
					"patching_rect" : [ 313.0, 501.0, 56.0, 22.0 ],
					"style" : "",
					"text" : "deferlow"
				}

			}
, 			{
				"box" : 				{
					"fontface" : 0,
					"fontname" : "Arial",
					"fontsize" : 12.0,
					"id" : "obj-2",
					"maxclass" : "newobj",
					"numinlets" : 1,
					"numoutlets" : 3,
					"outlettype" : [ "", "", "" ],
					"patching_rect" : [ 73.500023, 314.0, 102.0, 22.0 ],
					"style" : "",
					"text" : "j.receive duration"
				}

			}
, 			{
				"box" : 				{
					"id" : "obj-115",
					"maxclass" : "newobj",
					"numinlets" : 1,
					"numoutlets" : 1,
					"outlettype" : [ "" ],
					"patching_rect" : [ 589.060608, 162.11438, 112.0, 22.0 ],
					"style" : "",
					"text" : "prepend setsymbol"
				}

			}
, 			{
				"box" : 				{
					"fontsize" : 10.0,
					"id" : "obj-113",
					"maxclass" : "textbutton",
					"numinlets" : 1,
					"numoutlets" : 3,
					"outlettype" : [ "", "", "int" ],
					"parameter_enable" : 0,
					"patching_rect" : [ 810.75, 497.0, 100.0, 20.0 ],
					"presentation" : 1,
					"presentation_rect" : [ 143.416626, 160.0, 42.549377, 27.0 ],
					"style" : "",
					"text" : "Clear loop",
					"texton" : "Clear loop",
					"textoncolor" : [ 0.882353, 0.988235, 1.0, 1.0 ]
				}

			}
, 			{
				"box" : 				{
					"fontsize" : 10.0,
					"id" : "obj-112",
					"maxclass" : "textbutton",
					"mode" : 1,
					"numinlets" : 1,
					"numoutlets" : 3,
					"outlettype" : [ "", "", "int" ],
					"parameter_enable" : 0,
					"patching_rect" : [ 763.416626, 588.0, 100.0, 20.0 ],
					"presentation" : 1,
					"presentation_rect" : [ 87.416626, 160.0, 42.549377, 27.0 ],
					"style" : "",
					"text" : "Flip",
					"texton" : "Flip",
					"textoncolor" : [ 0.882353, 0.988235, 1.0, 1.0 ]
				}

			}
, 			{
				"box" : 				{
					"id" : "obj-111",
					"maxclass" : "newobj",
					"numinlets" : 1,
					"numoutlets" : 1,
					"outlettype" : [ "" ],
					"patching_rect" : [ 295.416656, 1151.193604, 56.0, 22.0 ],
					"style" : "",
					"text" : "deferlow"
				}

			}
, 			{
				"box" : 				{
					"id" : "obj-110",
					"maxclass" : "newobj",
					"numinlets" : 1,
					"numoutlets" : 1,
					"outlettype" : [ "" ],
					"patching_rect" : [ 295.416656, 1078.193604, 56.0, 22.0 ],
					"style" : "",
					"text" : "deferlow"
				}

			}
, 			{
				"box" : 				{
					"id" : "obj-109",
					"maxclass" : "newobj",
					"numinlets" : 1,
					"numoutlets" : 2,
					"outlettype" : [ "int", "" ],
					"patching_rect" : [ 295.416656, 1110.0, 33.0, 22.0 ],
					"style" : "",
					"text" : "t 1 s"
				}

			}
, 			{
				"box" : 				{
					"fontsize" : 10.0,
					"id" : "obj-106",
					"maxclass" : "textbutton",
					"mode" : 1,
					"numinlets" : 1,
					"numoutlets" : 3,
					"outlettype" : [ "", "", "int" ],
					"parameter_enable" : 0,
					"patching_rect" : [ 437.25, 1187.307983, 100.0, 20.0 ],
					"presentation" : 1,
					"presentation_rect" : [ 40.25, 160.0, 42.549377, 27.0 ],
					"style" : "",
					"text" : "Play",
					"texton" : "Play",
					"textoncolor" : [ 0.882353, 0.988235, 1.0, 1.0 ]
				}

			}
, 			{
				"box" : 				{
					"id" : "obj-65",
					"maxclass" : "newobj",
					"numinlets" : 1,
					"numoutlets" : 1,
					"outlettype" : [ "" ],
					"patching_rect" : [ 309.416656, 1187.307983, 112.0, 22.0 ],
					"style" : "",
					"text" : "prepend setsymbol"
				}

			}
, 			{
				"box" : 				{
					"color" : [ 0.804844, 0.527957, 0.824703, 1.0 ],
					"fontface" : 0,
					"fontname" : "Arial",
					"fontsize" : 12.0,
					"id" : "obj-67",
					"maxclass" : "newobj",
					"numinlets" : 1,
					"numoutlets" : 3,
					"outlettype" : [ "", "", "" ],
					"patching_rect" : [ 77.083313, 945.193604, 137.0, 22.0 ],
					"style" : "",
					"text" : "j.receive model:address"
				}

			}
, 			{
				"box" : 				{
					"fontsize" : 10.0,
					"id" : "obj-51",
					"maxclass" : "textbutton",
					"numinlets" : 1,
					"numoutlets" : 3,
					"outlettype" : [ "", "", "int" ],
					"parameter_enable" : 0,
					"patching_rect" : [ 204.416641, 819.0, 100.0, 20.0 ],
					"presentation" : 1,
					"presentation_rect" : [ 4.299377, 22.5, 42.549377, 27.0 ],
					"style" : "",
					"text" : "Read",
					"textoncolor" : [ 0.882353, 0.988235, 1.0, 1.0 ]
				}

			}
, 			{
				"box" : 				{
					"id" : "obj-70",
					"maxclass" : "message",
					"numinlets" : 2,
					"numoutlets" : 1,
					"outlettype" : [ "" ],
					"patching_rect" : [ 77.083313, 977.193604, 37.0, 22.0 ],
					"style" : "",
					"text" : "clear"
				}

			}
, 			{
				"box" : 				{
					"id" : "obj-71",
					"maxclass" : "button",
					"numinlets" : 1,
					"numoutlets" : 1,
					"outlettype" : [ "bang" ],
					"patching_rect" : [ 204.416641, 846.0, 24.0, 24.0 ],
					"style" : ""
				}

			}
, 			{
				"box" : 				{
					"id" : "obj-74",
					"maxclass" : "newobj",
					"numinlets" : 1,
					"numoutlets" : 2,
					"outlettype" : [ "", "bang" ],
					"patching_rect" : [ 204.416641, 875.772217, 103.0, 22.0 ],
					"style" : "",
					"text" : "opendialog folder"
				}

			}
, 			{
				"box" : 				{
					"color" : [ 0.803922, 0.529412, 0.823529, 1.0 ],
					"fontface" : 0,
					"fontsize" : 12.0,
					"id" : "obj-75",
					"maxclass" : "newobj",
					"numinlets" : 1,
					"numoutlets" : 4,
					"outlettype" : [ "", "", "", "" ],
					"patching_rect" : [ 266.083313, 1050.46582, 107.0, 22.0 ],
					"style" : "",
					"text" : "j.remote file/select"
				}

			}
, 			{
				"box" : 				{
					"autopopulate" : 1,
					"fontsize" : 10.0,
					"id" : "obj-76",
					"items" : "<empty>",
					"maxclass" : "umenu",
					"numinlets" : 1,
					"numoutlets" : 3,
					"outlettype" : [ "int", "", "" ],
					"parameter_enable" : 0,
					"patching_rect" : [ 231.083313, 1022.807983, 89.0, 20.0 ],
					"prefix_mode" : 2,
					"presentation" : 1,
					"presentation_rect" : [ 4.299377, 51.5, 42.549377, 20.0 ],
					"style" : ""
				}

			}
, 			{
				"box" : 				{
					"fontface" : 0,
					"fontname" : "Arial",
					"fontsize" : 12.0,
					"id" : "obj-77",
					"maxclass" : "newobj",
					"numinlets" : 1,
					"numoutlets" : 1,
					"outlettype" : [ "" ],
					"patching_rect" : [ 231.083313, 945.193604, 87.0, 22.0 ],
					"style" : "",
					"text" : "prepend prefix"
				}

			}
, 			{
				"box" : 				{
					"color" : [ 0.803922, 0.529412, 0.823529, 1.0 ],
					"fontface" : 0,
					"fontsize" : 12.0,
					"id" : "obj-78",
					"maxclass" : "newobj",
					"numinlets" : 1,
					"numoutlets" : 4,
					"outlettype" : [ "", "", "", "" ],
					"patching_rect" : [ 204.416641, 903.0, 99.0, 22.0 ],
					"style" : "",
					"text" : "j.remote file/path"
				}

			}
, 			{
				"box" : 				{
					"id" : "obj-23",
					"maxclass" : "multislider",
					"numinlets" : 1,
					"numoutlets" : 2,
					"orientation" : 0,
					"outlettype" : [ "", "" ],
					"parameter_enable" : 0,
					"patching_rect" : [ 579.916748, 807.0, 141.0, 9.0 ],
					"presentation" : 1,
					"presentation_rect" : [ 12.354172, 80.25, 132.270828, 8.0 ],
					"setminmax" : [ 0.0, 1.0 ],
					"setstyle" : 1,
					"slidercolor" : [ 0.65098, 0.666667, 0.662745, 1.0 ],
					"style" : ""
				}

			}
, 			{
				"box" : 				{
					"id" : "obj-34",
					"maxclass" : "newobj",
					"numinlets" : 1,
					"numoutlets" : 4,
					"outlettype" : [ "", "", "", "" ],
					"patching_rect" : [ 763.416626, 619.5, 109.0, 22.0 ],
					"style" : "",
					"text" : "j.remote fliptexture"
				}

			}
, 			{
				"box" : 				{
					"id" : "obj-33",
					"maxclass" : "newobj",
					"numinlets" : 1,
					"numoutlets" : 1,
					"outlettype" : [ "" ],
					"patching_rect" : [ 810.75, 530.5, 98.0, 22.0 ],
					"style" : "",
					"text" : "j.send loop/clear"
				}

			}
, 			{
				"box" : 				{
					"id" : "obj-31",
					"maxclass" : "message",
					"numinlets" : 2,
					"numoutlets" : 1,
					"outlettype" : [ "" ],
					"patching_rect" : [ 424.25, 348.0, 43.0, 22.0 ],
					"style" : "",
					"text" : "set $2"
				}

			}
, 			{
				"box" : 				{
					"id" : "obj-30",
					"maxclass" : "message",
					"numinlets" : 2,
					"numoutlets" : 1,
					"outlettype" : [ "" ],
					"patching_rect" : [ 359.75, 348.0, 43.0, 22.0 ],
					"style" : "",
					"text" : "set $1"
				}

			}
, 			{
				"box" : 				{
					"id" : "obj-25",
					"maxclass" : "newobj",
					"numinlets" : 2,
					"numoutlets" : 2,
					"outlettype" : [ "", "" ],
					"patching_rect" : [ 359.75, 314.0, 57.0, 22.0 ],
					"style" : "",
					"text" : "route set"
				}

			}
, 			{
				"box" : 				{
					"fontname" : "Arial Bold",
					"fontsize" : 10.0,
					"id" : "obj-26",
					"maxclass" : "number",
					"numinlets" : 1,
					"numoutlets" : 2,
					"outlettype" : [ "", "bang" ],
					"parameter_enable" : 0,
					"patching_rect" : [ 425.75, 381.0, 40.0, 20.0 ],
					"presentation" : 1,
					"presentation_rect" : [ 238.375, 80.25, 46.0, 20.0 ],
					"prototypename" : "Live",
					"style" : "",
					"triscale" : 0.75
				}

			}
, 			{
				"box" : 				{
					"fontname" : "Arial Bold",
					"fontsize" : 10.0,
					"id" : "obj-27",
					"maxclass" : "number",
					"numinlets" : 1,
					"numoutlets" : 2,
					"outlettype" : [ "", "bang" ],
					"parameter_enable" : 0,
					"patching_rect" : [ 359.75, 381.0, 40.0, 20.0 ],
					"presentation" : 1,
					"presentation_rect" : [ 188.75, 80.25, 45.0, 20.0 ],
					"prototypename" : "Live",
					"style" : "",
					"triscale" : 0.75
				}

			}
, 			{
				"box" : 				{
					"id" : "obj-28",
					"maxclass" : "newobj",
					"numinlets" : 2,
					"numoutlets" : 1,
					"outlettype" : [ "" ],
					"patching_rect" : [ 359.75, 409.0, 85.0, 22.0 ],
					"style" : "",
					"text" : "pak 0 0"
				}

			}
, 			{
				"box" : 				{
					"id" : "obj-29",
					"maxclass" : "newobj",
					"numinlets" : 1,
					"numoutlets" : 4,
					"outlettype" : [ "", "", "", "" ],
					"patching_rect" : [ 359.75, 443.0, 115.0, 22.0 ],
					"style" : "",
					"text" : "j.remote loop/points"
				}

			}
, 			{
				"box" : 				{
					"id" : "obj-38",
					"maxclass" : "newobj",
					"numinlets" : 1,
					"numoutlets" : 4,
					"outlettype" : [ "", "", "", "" ],
					"patching_rect" : [ 557.727295, 130.11438, 113.0, 22.0 ],
					"style" : "",
					"text" : "j.remote loop/mode"
				}

			}
, 			{
				"box" : 				{
					"fontname" : "Arial",
					"fontsize" : 12.0,
					"id" : "obj-41",
					"maxclass" : "message",
					"numinlets" : 2,
					"numoutlets" : 1,
					"outlettype" : [ "" ],
					"patching_rect" : [ 579.916748, 763.0, 50.0, 22.0 ],
					"style" : "",
					"text" : "set $1"
				}

			}
, 			{
				"box" : 				{
					"fontname" : "Arial",
					"fontsize" : 12.0,
					"id" : "obj-42",
					"maxclass" : "message",
					"numinlets" : 2,
					"numoutlets" : 1,
					"outlettype" : [ "" ],
					"patching_rect" : [ 579.916748, 832.0, 50.0, 22.0 ],
					"style" : "",
					"text" : "pos $1"
				}

			}
, 			{
				"box" : 				{
					"fontname" : "Arial",
					"fontsize" : 12.0,
					"id" : "obj-43",
					"maxclass" : "newobj",
					"numinlets" : 1,
					"numoutlets" : 1,
					"outlettype" : [ "" ],
					"patching_rect" : [ 579.916748, 857.0, 100.0, 22.0 ],
					"style" : "",
					"text" : "j.send file/direct"
				}

			}
, 			{
				"box" : 				{
					"fontname" : "Arial",
					"fontsize" : 12.0,
					"id" : "obj-44",
					"maxclass" : "newobj",
					"numinlets" : 1,
					"numoutlets" : 3,
					"outlettype" : [ "", "", "" ],
					"patching_rect" : [ 579.916748, 737.0, 141.0, 22.0 ],
					"style" : "",
					"text" : "j.receive file/time/relative"
				}

			}
, 			{
				"box" : 				{
					"bgcolor" : [ 0.54902, 0.545098, 0.552941, 0.0 ],
					"fontname" : "Arial",
					"fontsize" : 10.426503,
					"id" : "obj-62",
					"maxclass" : "comment",
					"numinlets" : 1,
					"numoutlets" : 0,
					"patching_rect" : [ 103.166687, 393.38562, 143.0, 18.0 ],
					"presentation" : 1,
					"presentation_rect" : [ 188.418579, -326.38562, 74.0, 18.0 ],
					"style" : "",
					"text" : "Loop Points:",
					"textcolor" : [ 0.878431, 0.878431, 0.858824, 1.0 ]
				}

			}
, 			{
				"box" : 				{
					"bgfillcolor_angle" : 270.0,
					"bgfillcolor_color" : [ 0.290196, 0.309804, 0.301961, 1.0 ],
					"bgfillcolor_color1" : [ 0.376471, 0.384314, 0.4, 1.0 ],
					"bgfillcolor_color2" : [ 0.290196, 0.309804, 0.301961, 1.0 ],
					"bgfillcolor_proportion" : 0.39,
					"bgfillcolor_type" : "gradient",
					"fontsize" : 10.0,
					"hint" : "Looping mode (default = 1 (start to end))  0 = noloop  1 = normallooping (start to end)  2 = palindrome  (start to end to start to ....)  3 = no looping, but use looppoints to define playback limits-defined",
					"id" : "obj-8",
					"items" : [ "off", ",", "normal", ",", "palindrome", ",", "playback-limits" ],
					"maxclass" : "umenu",
					"numinlets" : 1,
					"numoutlets" : 3,
					"outlettype" : [ "int", "", "" ],
					"parameter_enable" : 0,
					"patching_rect" : [ 517.227295, 92.5, 100.0, 20.0 ],
					"presentation" : 1,
					"presentation_rect" : [ 219.659882, 43.5, 74.565765, 20.0 ],
					"style" : "",
					"textcolor" : [ 0.882353, 0.988235, 1.0, 1.0 ]
				}

			}
, 			{
				"box" : 				{
					"annotation" : "",
					"bgcolor" : [ 0.290196, 0.309804, 0.301961, 1.0 ],
					"bordercolor" : [ 0.803922, 0.898039, 0.909804, 1.0 ],
					"drawline" : 0,
					"fgcolor" : [ 0.803922, 0.898039, 0.909804, 1.0 ],
					"id" : "obj-93",
					"listmode" : 1,
					"maxclass" : "rslider",
					"numinlets" : 2,
					"numoutlets" : 2,
					"orientation" : 1,
					"outlettype" : [ "", "" ],
					"parameter_enable" : 0,
					"patching_rect" : [ 73.500023, 434.38562, 193.54541, 26.0 ],
					"presentation" : 1,
					"presentation_rect" : [ 87.416626, 22.5, 193.54541, 19.0 ],
					"size" : 50.0,
					"style" : ""
				}

			}
, 			{
				"box" : 				{
					"fontname" : "Arial",
					"fontsize" : 12.0,
					"id" : "obj-17",
					"maxclass" : "newobj",
					"numinlets" : 1,
					"numoutlets" : 1,
					"outlettype" : [ "" ],
					"patching_rect" : [ 73.500023, 353.0, 79.0, 22.0 ],
					"style" : "",
					"text" : "prepend size"
				}

			}
, 			{
				"box" : 				{
					"fontname" : "Arial",
					"fontsize" : 12.0,
					"id" : "obj-11",
					"maxclass" : "newobj",
					"numinlets" : 1,
					"numoutlets" : 0,
					"patcher" : 					{
						"fileversion" : 1,
						"appversion" : 						{
							"major" : 7,
							"minor" : 0,
							"revision" : 2,
							"architecture" : "x86",
							"modernui" : 1
						}
,
						"rect" : [ 301.0, 64.0, 1026.0, 805.0 ],
						"bgcolor" : [ 0.878431, 0.878431, 0.858824, 1.0 ],
						"bglocked" : 0,
						"openinpresentation" : 1,
						"default_fontsize" : 12.0,
						"default_fontface" : 0,
						"default_fontname" : "Arial",
						"gridonopen" : 1,
						"gridsize" : [ 15.0, 15.0 ],
						"gridsnaponopen" : 1,
						"objectsnaponopen" : 1,
						"statusbarvisible" : 2,
						"toolbarvisible" : 0,
						"lefttoolbarpinned" : 0,
						"toptoolbarpinned" : 0,
						"righttoolbarpinned" : 0,
						"bottomtoolbarpinned" : 0,
						"toolbars_unpinned_last_save" : 0,
						"tallnewobj" : 0,
						"boxanimatetime" : 200,
						"enablehscroll" : 1,
						"enablevscroll" : 1,
						"devicewidth" : 0.0,
						"description" : "",
						"digest" : "",
						"tags" : "",
						"style" : "",
						"subpatcher_template" : "",
						"title" : "/rdp_gl_hap(view)",
						"visible" : 1,
						"boxes" : [ 							{
								"box" : 								{
									"fontsize" : 10.0,
									"id" : "obj-47",
									"maxclass" : "textbutton",
									"mode" : 1,
									"numinlets" : 1,
									"numoutlets" : 3,
									"outlettype" : [ "", "", "int" ],
									"parameter_enable" : 0,
									"patching_rect" : [ 328.5, 409.38562, 100.0, 20.0 ],
									"presentation" : 1,
									"presentation_rect" : [ 215.416626, 175.0, 42.549377, 27.0 ],
									"style" : "",
									"text" : "Loop report",
									"texton" : "Loop report",
									"textoncolor" : [ 0.882353, 0.988235, 1.0, 1.0 ]
								}

							}
, 							{
								"box" : 								{
									"id" : "obj-48",
									"maxclass" : "newobj",
									"numinlets" : 1,
									"numoutlets" : 4,
									"outlettype" : [ "", "", "", "" ],
									"patching_rect" : [ 328.5, 438.88562, 115.0, 22.0 ],
									"style" : "",
									"text" : "j.remote loop/report"
								}

							}
, 							{
								"box" : 								{
									"id" : "obj-46",
									"maxclass" : "newobj",
									"numinlets" : 1,
									"numoutlets" : 1,
									"outlettype" : [ "" ],
									"patching_rect" : [ 1139.0, 373.0, 100.0, 22.0 ],
									"style" : ""
								}

							}
, 							{
								"box" : 								{
									"fontsize" : 10.0,
									"id" : "obj-12",
									"maxclass" : "textbutton",
									"mode" : 1,
									"numinlets" : 1,
									"numoutlets" : 3,
									"outlettype" : [ "", "", "int" ],
									"parameter_enable" : 0,
									"patching_rect" : [ 1055.916748, 1112.0, 100.0, 20.0 ],
									"presentation" : 1,
									"presentation_rect" : [ 145.510788, 249.32692, 57.489212, 20.0 ],
									"style" : "",
									"text" : "DC Filter",
									"texton" : "DC Filter"
								}

							}
, 							{
								"box" : 								{
									"fontsize" : 10.0,
									"id" : "obj-64",
									"maxclass" : "textbutton",
									"numinlets" : 1,
									"numoutlets" : 3,
									"outlettype" : [ "", "", "int" ],
									"parameter_enable" : 0,
									"patching_rect" : [ 774.916748, 844.5, 100.0, 20.0 ],
									"presentation" : 1,
									"presentation_rect" : [ 205.0, 249.32692, 40.294739, 20.0 ],
									"style" : "",
									"text" : "Clear",
									"texton" : "Legato"
								}

							}
, 							{
								"box" : 								{
									"fontsize" : 10.0,
									"id" : "obj-14",
									"maxclass" : "textbutton",
									"mode" : 1,
									"numinlets" : 1,
									"numoutlets" : 3,
									"outlettype" : [ "", "", "int" ],
									"parameter_enable" : 0,
									"patching_rect" : [ 793.392395, 1158.709839, 100.0, 20.0 ],
									"presentation" : 1,
									"presentation_rect" : [ 96.43158, 249.32692, 48.575615, 20.0 ],
									"style" : "",
									"text" : "Limiter",
									"texton" : "Limiter"
								}

							}
, 							{
								"box" : 								{
									"autopopulate" : 1,
									"fontsize" : 10.0,
									"id" : "obj-72",
									"items" : [ "exponential", ",", "linear" ],
									"maxclass" : "umenu",
									"numinlets" : 1,
									"numoutlets" : 3,
									"outlettype" : [ "int", "", "" ],
									"parameter_enable" : 0,
									"patching_rect" : [ 1068.666748, 1031.61438, 89.0, 20.0 ],
									"prefix_mode" : 2,
									"presentation" : 1,
									"presentation_rect" : [ 4.0, 249.32692, 90.549377, 20.0 ],
									"style" : ""
								}

							}
, 							{
								"box" : 								{
									"bgcolor" : [ 0.290196, 0.309804, 0.301961, 0.0 ],
									"fontsize" : 10.0,
									"format" : 6,
									"id" : "obj-17",
									"maxclass" : "flonum",
									"numinlets" : 1,
									"numoutlets" : 2,
									"outlettype" : [ "", "bang" ],
									"parameter_enable" : 0,
									"patching_rect" : [ 784.416748, 1089.0, 47.0, 20.0 ],
									"presentation" : 1,
									"presentation_rect" : [ 346.294739, 301.436035, 108.0, 20.0 ],
									"style" : "",
									"textcolor" : [ 0.882353, 0.988235, 1.0, 1.0 ],
									"tricolor" : [ 0.882353, 0.988235, 1.0, 1.0 ]
								}

							}
, 							{
								"box" : 								{
									"bgcolor" : [ 0.290196, 0.309804, 0.301961, 0.0 ],
									"fontsize" : 10.0,
									"format" : 6,
									"id" : "obj-114",
									"maxclass" : "flonum",
									"numinlets" : 1,
									"numoutlets" : 2,
									"outlettype" : [ "", "bang" ],
									"parameter_enable" : 0,
									"patching_rect" : [ 784.416748, 1058.0, 47.0, 20.0 ],
									"presentation" : 1,
									"presentation_rect" : [ 741.954712, 277.326904, 49.0, 20.0 ],
									"style" : "",
									"textcolor" : [ 0.882353, 0.988235, 1.0, 1.0 ],
									"tricolor" : [ 0.882353, 0.988235, 1.0, 1.0 ]
								}

							}
, 							{
								"box" : 								{
									"fontsize" : 10.0,
									"id" : "obj-81",
									"maxclass" : "comment",
									"numinlets" : 1,
									"numoutlets" : 0,
									"patching_rect" : [ 840.392395, 565.0, 186.0, 18.0 ],
									"presentation" : 1,
									"presentation_rect" : [ 457.294739, 301.436035, 56.007195, 18.0 ],
									"style" : "",
									"text" : "Frequency",
									"textcolor" : [ 0.882353, 0.988235, 1.0, 1.0 ]
								}

							}
, 							{
								"box" : 								{
									"bgcolor" : [ 0.290196, 0.309804, 0.301961, 0.0 ],
									"fontsize" : 10.0,
									"format" : 6,
									"id" : "obj-82",
									"maxclass" : "flonum",
									"numinlets" : 1,
									"numoutlets" : 2,
									"outlettype" : [ "", "bang" ],
									"parameter_enable" : 0,
									"patching_rect" : [ 780.416748, 948.0, 47.0, 20.0 ],
									"presentation" : 1,
									"presentation_rect" : [ 556.294739, 301.436035, 112.0, 20.0 ],
									"style" : "",
									"textcolor" : [ 0.882353, 0.988235, 1.0, 1.0 ],
									"tricolor" : [ 0.882353, 0.988235, 1.0, 1.0 ]
								}

							}
, 							{
								"box" : 								{
									"fontsize" : 10.0,
									"id" : "obj-18",
									"maxclass" : "comment",
									"numinlets" : 1,
									"numoutlets" : 0,
									"patching_rect" : [ 840.392395, 565.0, 128.0, 18.0 ],
									"presentation" : 1,
									"presentation_rect" : [ 457.294739, 278.38147, 77.0, 18.0 ],
									"style" : "",
									"text" : "Loop end (ms)",
									"textcolor" : [ 0.882353, 0.988235, 1.0, 1.0 ]
								}

							}
, 							{
								"box" : 								{
									"fontsize" : 10.0,
									"id" : "obj-87",
									"maxclass" : "comment",
									"numinlets" : 1,
									"numoutlets" : 0,
									"patching_rect" : [ 840.392395, 565.0, 129.0, 18.0 ],
									"presentation" : 1,
									"presentation_rect" : [ 248.683289, 277.936035, 86.0, 18.0 ],
									"style" : "",
									"text" : "Loop start (ms)",
									"textcolor" : [ 0.882353, 0.988235, 1.0, 1.0 ]
								}

							}
, 							{
								"box" : 								{
									"fontsize" : 10.0,
									"id" : "obj-88",
									"maxclass" : "comment",
									"numinlets" : 1,
									"numoutlets" : 0,
									"patching_rect" : [ 840.392395, 565.0, 97.0, 18.0 ],
									"presentation" : 1,
									"presentation_rect" : [ 457.294739, 255.326904, 97.0, 18.0 ],
									"style" : "",
									"text" : "Display length (ms)",
									"textcolor" : [ 0.882353, 0.988235, 1.0, 1.0 ]
								}

							}
, 							{
								"box" : 								{
									"bgcolor" : [ 0.290196, 0.309804, 0.301961, 0.0 ],
									"fontsize" : 10.0,
									"format" : 6,
									"id" : "obj-105",
									"maxclass" : "flonum",
									"numinlets" : 1,
									"numoutlets" : 2,
									"outlettype" : [ "", "bang" ],
									"parameter_enable" : 0,
									"patching_rect" : [ 1695.666748, 789.0, 47.0, 20.0 ],
									"presentation" : 1,
									"presentation_rect" : [ 556.294739, 277.326904, 112.0, 20.0 ],
									"style" : "",
									"textcolor" : [ 0.882353, 0.988235, 1.0, 1.0 ],
									"tricolor" : [ 0.882353, 0.988235, 1.0, 1.0 ]
								}

							}
, 							{
								"box" : 								{
									"bgcolor" : [ 0.290196, 0.309804, 0.301961, 0.0 ],
									"fontsize" : 10.0,
									"format" : 6,
									"id" : "obj-106",
									"maxclass" : "flonum",
									"numinlets" : 1,
									"numoutlets" : 2,
									"outlettype" : [ "", "bang" ],
									"parameter_enable" : 0,
									"patching_rect" : [ 1615.166748, 787.0, 47.0, 20.0 ],
									"presentation" : 1,
									"presentation_rect" : [ 346.294739, 277.936035, 112.0, 20.0 ],
									"style" : "",
									"textcolor" : [ 0.882353, 0.988235, 1.0, 1.0 ],
									"tricolor" : [ 0.882353, 0.988235, 1.0, 1.0 ]
								}

							}
, 							{
								"box" : 								{
									"bgcolor" : [ 0.290196, 0.309804, 0.301961, 0.0 ],
									"fontsize" : 10.0,
									"format" : 6,
									"id" : "obj-107",
									"maxclass" : "flonum",
									"numinlets" : 1,
									"numoutlets" : 2,
									"outlettype" : [ "", "bang" ],
									"parameter_enable" : 0,
									"patching_rect" : [ 1450.366699, 974.0, 47.0, 20.0 ],
									"presentation" : 1,
									"presentation_rect" : [ 556.294739, 255.32692, 108.0, 20.0 ],
									"style" : "",
									"textcolor" : [ 0.882353, 0.988235, 1.0, 1.0 ],
									"tricolor" : [ 0.882353, 0.988235, 1.0, 1.0 ]
								}

							}
, 							{
								"box" : 								{
									"bgcolor" : [ 0.290196, 0.309804, 0.301961, 0.0 ],
									"fontsize" : 10.0,
									"format" : 6,
									"id" : "obj-108",
									"maxclass" : "flonum",
									"numinlets" : 1,
									"numoutlets" : 2,
									"outlettype" : [ "", "bang" ],
									"parameter_enable" : 0,
									"patching_rect" : [ 1361.166748, 974.0, 47.0, 20.0 ],
									"presentation" : 1,
									"presentation_rect" : [ 346.294739, 255.32692, 108.0, 20.0 ],
									"style" : "",
									"textcolor" : [ 0.882353, 0.988235, 1.0, 1.0 ],
									"tricolor" : [ 0.882353, 0.988235, 1.0, 1.0 ]
								}

							}
, 							{
								"box" : 								{
									"fontsize" : 10.0,
									"id" : "obj-109",
									"maxclass" : "comment",
									"numinlets" : 1,
									"numoutlets" : 0,
									"patching_rect" : [ 840.392395, 565.0, 77.0, 18.0 ],
									"presentation" : 1,
									"presentation_rect" : [ 692.523132, 278.38147, 53.0, 18.0 ],
									"style" : "",
									"text" : "Retrigger",
									"textcolor" : [ 0.882353, 0.988235, 1.0, 1.0 ]
								}

							}
, 							{
								"box" : 								{
									"fontsize" : 10.0,
									"id" : "obj-110",
									"maxclass" : "comment",
									"numinlets" : 1,
									"numoutlets" : 0,
									"patching_rect" : [ 840.392395, 565.0, 186.0, 18.0 ],
									"presentation" : 1,
									"presentation_rect" : [ 248.683289, 301.436035, 59.820145, 18.0 ],
									"style" : "",
									"text" : "Maxsustain",
									"textcolor" : [ 0.882353, 0.988235, 1.0, 1.0 ]
								}

							}
, 							{
								"box" : 								{
									"fontsize" : 10.0,
									"id" : "obj-111",
									"maxclass" : "comment",
									"numinlets" : 1,
									"numoutlets" : 0,
									"patching_rect" : [ 840.392395, 565.0, 96.0, 18.0 ],
									"presentation" : 1,
									"presentation_rect" : [ 692.523132, 255.326904, 42.0, 18.0 ],
									"style" : "",
									"text" : "Voices",
									"textcolor" : [ 0.882353, 0.988235, 1.0, 1.0 ]
								}

							}
, 							{
								"box" : 								{
									"bgcolor" : [ 0.290196, 0.309804, 0.301961, 0.0 ],
									"fontsize" : 10.0,
									"id" : "obj-19",
									"maxclass" : "number",
									"numinlets" : 1,
									"numoutlets" : 2,
									"outlettype" : [ "", "bang" ],
									"parameter_enable" : 0,
									"patching_rect" : [ 780.416748, 917.5, 48.0, 20.0 ],
									"presentation" : 1,
									"presentation_rect" : [ 741.954712, 255.32692, 49.0, 20.0 ],
									"style" : "",
									"textcolor" : [ 0.882353, 0.988235, 1.0, 1.0 ],
									"tricolor" : [ 0.882353, 0.988235, 1.0, 1.0 ]
								}

							}
, 							{
								"box" : 								{
									"fontsize" : 10.0,
									"id" : "obj-89",
									"maxclass" : "comment",
									"numinlets" : 1,
									"numoutlets" : 0,
									"patching_rect" : [ 840.392395, 565.0, 95.0, 18.0 ],
									"presentation" : 1,
									"presentation_rect" : [ 248.683289, 255.326904, 95.0, 18.0 ],
									"style" : "",
									"text" : "Display start (ms)",
									"textcolor" : [ 0.882353, 0.988235, 1.0, 1.0 ]
								}

							}
, 							{
								"box" : 								{
									"activedialcolor" : [ 0.882353, 0.988235, 1.0, 1.0 ],
									"activeneedlecolor" : [ 0.376471, 0.384314, 0.4, 1.0 ],
									"bordercolor" : [ 0.376471, 0.384314, 0.4, 1.0 ],
									"dialcolor" : [ 0.752941, 0.784314, 0.839216, 0.0 ],
									"focusbordercolor" : [ 0.882353, 0.988235, 1.0, 1.0 ],
									"fontface" : 0,
									"fontsize" : 9.0,
									"id" : "obj-22",
									"maxclass" : "live.dial",
									"needlecolor" : [ 0.321569, 0.321569, 0.321569, 0.0 ],
									"numinlets" : 1,
									"numoutlets" : 2,
									"outlettype" : [ "", "float" ],
									"parameter_enable" : 1,
									"patching_rect" : [ 988.416748, 793.11438, 44.0, 45.0 ],
									"presentation" : 1,
									"presentation_rect" : [ 101.007195, 275.936035, 44.0, 45.0 ],
									"saved_attribute_attributes" : 									{
										"valueof" : 										{
											"parameter_longname" : "Threshold",
											"parameter_shortname" : "Threshold",
											"parameter_type" : 0,
											"parameter_mmin" : -48.0,
											"parameter_mmax" : 6.0,
											"parameter_unitstyle" : 9,
											"parameter_units" : "%.1f dB"
										}

									}
,
									"textcolor" : [ 0.882353, 0.988235, 1.0, 1.0 ],
									"tribordercolor" : [ 0.376471, 0.384314, 0.4, 1.0 ],
									"varname" : "live.dial[2]"
								}

							}
, 							{
								"box" : 								{
									"activedialcolor" : [ 0.882353, 0.988235, 1.0, 1.0 ],
									"activeneedlecolor" : [ 0.376471, 0.384314, 0.4, 1.0 ],
									"bordercolor" : [ 0.376471, 0.384314, 0.4, 1.0 ],
									"dialcolor" : [ 0.752941, 0.784314, 0.839216, 0.0 ],
									"focusbordercolor" : [ 0.882353, 0.988235, 1.0, 1.0 ],
									"fontface" : 0,
									"fontsize" : 9.0,
									"id" : "obj-23",
									"maxclass" : "live.dial",
									"needlecolor" : [ 0.321569, 0.321569, 0.321569, 0.0 ],
									"numinlets" : 1,
									"numoutlets" : 2,
									"outlettype" : [ "", "float" ],
									"parameter_enable" : 1,
									"patching_rect" : [ 991.666748, 741.61438, 44.0, 45.0 ],
									"presentation" : 1,
									"presentation_rect" : [ 55.503597, 275.936035, 44.0, 45.0 ],
									"saved_attribute_attributes" : 									{
										"valueof" : 										{
											"parameter_longname" : "Postamp",
											"parameter_shortname" : "Postamp",
											"parameter_type" : 0,
											"parameter_mmin" : -6.0,
											"parameter_mmax" : 48.0,
											"parameter_unitstyle" : 9,
											"parameter_units" : "%.1f dB"
										}

									}
,
									"textcolor" : [ 0.882353, 0.988235, 1.0, 1.0 ],
									"tribordercolor" : [ 0.376471, 0.384314, 0.4, 1.0 ],
									"varname" : "live.dial[1]"
								}

							}
, 							{
								"box" : 								{
									"activedialcolor" : [ 0.882353, 0.988235, 1.0, 1.0 ],
									"activeneedlecolor" : [ 0.376471, 0.384314, 0.4, 1.0 ],
									"bordercolor" : [ 0.376471, 0.384314, 0.4, 1.0 ],
									"dialcolor" : [ 0.752941, 0.784314, 0.839216, 0.0 ],
									"focusbordercolor" : [ 0.882353, 0.988235, 1.0, 1.0 ],
									"fontface" : 0,
									"fontsize" : 9.0,
									"id" : "obj-32",
									"maxclass" : "live.dial",
									"needlecolor" : [ 0.321569, 0.321569, 0.321569, 0.0 ],
									"numinlets" : 1,
									"numoutlets" : 2,
									"outlettype" : [ "", "float" ],
									"parameter_enable" : 1,
									"patching_rect" : [ 985.416748, 899.0, 44.0, 45.0 ],
									"presentation" : 1,
									"presentation_rect" : [ 195.179855, 275.936035, 44.0, 45.0 ],
									"saved_attribute_attributes" : 									{
										"valueof" : 										{
											"parameter_longname" : "Release",
											"parameter_shortname" : "Release",
											"parameter_type" : 0,
											"parameter_mmax" : 500.0,
											"parameter_unitstyle" : 2
										}

									}
,
									"textcolor" : [ 0.882353, 0.988235, 1.0, 1.0 ],
									"tribordercolor" : [ 0.376471, 0.384314, 0.4, 1.0 ],
									"varname" : "live.dial[4]"
								}

							}
, 							{
								"box" : 								{
									"activedialcolor" : [ 0.882353, 0.988235, 1.0, 1.0 ],
									"activeneedlecolor" : [ 0.376471, 0.384314, 0.4, 1.0 ],
									"bordercolor" : [ 0.376471, 0.384314, 0.4, 1.0 ],
									"dialcolor" : [ 0.752941, 0.784314, 0.839216, 0.0 ],
									"focusbordercolor" : [ 0.882353, 0.988235, 1.0, 1.0 ],
									"fontface" : 0,
									"fontsize" : 9.0,
									"id" : "obj-33",
									"maxclass" : "live.dial",
									"needlecolor" : [ 0.321569, 0.321569, 0.321569, 0.0 ],
									"numinlets" : 1,
									"numoutlets" : 2,
									"outlettype" : [ "", "float" ],
									"parameter_enable" : 1,
									"patching_rect" : [ 987.916748, 845.61438, 44.0, 45.0 ],
									"presentation" : 1,
									"presentation_rect" : [ 146.510788, 275.936035, 48.0, 45.0 ],
									"saved_attribute_attributes" : 									{
										"valueof" : 										{
											"parameter_longname" : "Lookahead",
											"parameter_shortname" : "Lookahead",
											"parameter_type" : 0,
											"parameter_mmax" : 256.0,
											"parameter_unitstyle" : 9,
											"parameter_units" : "%ld samples"
										}

									}
,
									"textcolor" : [ 0.882353, 0.988235, 1.0, 1.0 ],
									"tribordercolor" : [ 0.376471, 0.384314, 0.4, 1.0 ],
									"varname" : "live.dial[3]"
								}

							}
, 							{
								"box" : 								{
									"activedialcolor" : [ 0.882353, 0.988235, 1.0, 1.0 ],
									"activeneedlecolor" : [ 0.376471, 0.384314, 0.4, 1.0 ],
									"bordercolor" : [ 0.376471, 0.384314, 0.4, 1.0 ],
									"dialcolor" : [ 0.752941, 0.784314, 0.839216, 0.0 ],
									"focusbordercolor" : [ 0.882353, 0.988235, 1.0, 1.0 ],
									"fontface" : 0,
									"fontsize" : 9.0,
									"id" : "obj-34",
									"maxclass" : "live.dial",
									"needlecolor" : [ 0.321569, 0.321569, 0.321569, 0.0 ],
									"numinlets" : 1,
									"numoutlets" : 2,
									"outlettype" : [ "", "float" ],
									"parameter_enable" : 1,
									"patching_rect" : [ 991.166748, 690.209839, 44.0, 45.0 ],
									"presentation" : 1,
									"presentation_rect" : [ 10.0, 275.936035, 44.0, 45.0 ],
									"saved_attribute_attributes" : 									{
										"valueof" : 										{
											"parameter_longname" : "Preamp",
											"parameter_shortname" : "Preamp",
											"parameter_type" : 0,
											"parameter_mmin" : -6.0,
											"parameter_mmax" : 48.0,
											"parameter_unitstyle" : 9,
											"parameter_units" : "%.1f dB"
										}

									}
,
									"textcolor" : [ 0.882353, 0.988235, 1.0, 1.0 ],
									"tribordercolor" : [ 0.376471, 0.384314, 0.4, 1.0 ],
									"varname" : "live.dial"
								}

							}
, 							{
								"box" : 								{
									"fontname" : "Arial",
									"fontsize" : 14.0,
									"id" : "obj-35",
									"maxclass" : "comment",
									"numinlets" : 1,
									"numoutlets" : 0,
									"patching_rect" : [ 1037.416748, 565.0, 81.0, 22.0 ],
									"presentation" : 1,
									"presentation_rect" : [ 425.205261, 10.25, 77.589478, 22.0 ],
									"style" : "",
									"text" : "Soundfile:",
									"textcolor" : [ 0.878431, 0.878431, 0.858824, 1.0 ],
									"varname" : "name[2]"
								}

							}
, 							{
								"box" : 								{
									"fontname" : "Arial",
									"fontsize" : 14.0,
									"id" : "obj-36",
									"maxclass" : "comment",
									"numinlets" : 1,
									"numoutlets" : 0,
									"patching_rect" : [ 1088.666748, 652.0, 150.0, 22.0 ],
									"presentation" : 1,
									"presentation_rect" : [ 490.705261, 10.25, 287.589478, 22.0 ],
									"style" : "",
									"text" : "/no_model_address",
									"textcolor" : [ 0.878431, 0.878431, 0.858824, 1.0 ],
									"varname" : "name[1]"
								}

							}
, 							{
								"box" : 								{
									"fontsize" : 10.0,
									"id" : "obj-61",
									"maxclass" : "textbutton",
									"numinlets" : 1,
									"numoutlets" : 3,
									"outlettype" : [ "", "", "int" ],
									"parameter_enable" : 0,
									"patching_rect" : [ 1807.416748, 732.670166, 100.0, 20.0 ],
									"presentation" : 1,
									"presentation_rect" : [ 779.294739, 126.20192, 19.0, 69.967575 ],
									"style" : "",
									"text" : "Select all"
								}

							}
, 							{
								"box" : 								{
									"buffername" : "foo",
									"grid" : 500.0,
									"gridcolor" : [ 0.878431, 0.878431, 0.858824, 1.0 ],
									"id" : "obj-37",
									"maxclass" : "waveform~",
									"numinlets" : 5,
									"numoutlets" : 6,
									"outlettype" : [ "float", "float", "float", "float", "list", "" ],
									"patching_rect" : [ 1361.166748, 866.0, 465.0, 96.0 ],
									"presentation" : 1,
									"presentation_rect" : [ 4.0, 49.20192, 774.294739, 199.125 ],
									"selectioncolor" : [ 0.815686, 0.858824, 0.34902, 0.321569 ],
									"setmode" : 3,
									"style" : "",
									"ticks" : 8,
									"vlabels" : 1
								}

							}
, 							{
								"box" : 								{
									"fontsize" : 10.0,
									"id" : "obj-54",
									"legacytextcolor" : 1,
									"maxclass" : "textbutton",
									"numinlets" : 1,
									"numoutlets" : 3,
									"outlettype" : [ "", "", "int" ],
									"parameter_enable" : 0,
									"patching_rect" : [ 784.416748, 990.670166, 100.0, 20.0 ],
									"presentation" : 1,
									"presentation_rect" : [ 779.294739, 197.169495, 19.0, 51.157425 ],
									"style" : "",
									"text" : "All note off",
									"usebgoncolor" : 1
								}

							}
, 							{
								"box" : 								{
									"bkgndpict" : "wfmodes.png",
									"bottomvalue" : 3,
									"id" : "obj-102",
									"imagemask" : 1,
									"inactiveimage" : 0,
									"knobpict" : "wfknob.png",
									"maxclass" : "pictslider",
									"movehorizontal" : 0,
									"numinlets" : 2,
									"numoutlets" : 2,
									"outlettype" : [ "int", "int" ],
									"parameter_enable" : 0,
									"patching_rect" : [ 1289.916748, 876.0, 19.0, 76.0 ],
									"presentation" : 1,
									"presentation_rect" : [ 779.294739, 49.20192, 19.0, 76.0 ],
									"rightvalue" : 0,
									"style" : "",
									"topvalue" : 0
								}

							}
, 							{
								"box" : 								{
									"bgcolor" : [ 0.831373, 0.54902, 0.839216, 0.0 ],
									"bubblepoint" : 0.38,
									"fontname" : "Arial",
									"fontsize" : 11.0,
									"id" : "obj-118",
									"maxclass" : "comment",
									"numinlets" : 1,
									"numoutlets" : 0,
									"patching_rect" : [ 840.392395, 565.0, 137.0, 19.0 ],
									"presentation" : 1,
									"presentation_rect" : [ 42.0, 2.0, 162.0, 19.0 ],
									"style" : "",
									"text" : "Currently contol of model:",
									"textcolor" : [ 0.878431, 0.878431, 0.858824, 1.0 ],
									"varname" : "description[1]"
								}

							}
, 							{
								"box" : 								{
									"fontname" : "Arial",
									"fontsize" : 20.0,
									"id" : "obj-38",
									"maxclass" : "comment",
									"numinlets" : 1,
									"numoutlets" : 0,
									"patching_rect" : [ 774.166748, 701.5, 209.0, 29.0 ],
									"presentation" : 1,
									"presentation_rect" : [ 44.774353, 13.5, 191.0, 29.0 ],
									"style" : "",
									"text" : "/no_model_address",
									"textcolor" : [ 0.878431, 0.878431, 0.858824, 1.0 ],
									"varname" : "name[3]"
								}

							}
, 							{
								"box" : 								{
									"id" : "obj-122",
									"ignoreclick" : 1,
									"maxclass" : "pictctrl",
									"name" : "RDPJamomaLogo2.png",
									"numinlets" : 1,
									"numoutlets" : 1,
									"outlettype" : [ "int" ],
									"parameter_enable" : 0,
									"patching_rect" : [ 911.892395, 596.5, 43.0, 42.5 ],
									"presentation" : 1,
									"presentation_rect" : [ 4.0, 2.0, 38.774353, 38.5 ],
									"varname" : "logo[1]"
								}

							}
, 							{
								"box" : 								{
									"angle" : 273.179077,
									"grad1" : [ 0.290196, 0.309804, 0.301961, 1.0 ],
									"grad2" : [ 0.290196, 0.309804, 0.301961, 1.0 ],
									"id" : "obj-125",
									"maxclass" : "panel",
									"mode" : 1,
									"numinlets" : 1,
									"numoutlets" : 0,
									"patching_rect" : [ 831.166748, 591.0, 73.0, 48.0 ],
									"presentation" : 1,
									"presentation_rect" : [ 0.0, 0.0, 802.774353, 42.5 ],
									"proportion" : 0.39,
									"pt1" : [ 0.49505, 0.86087 ],
									"pt2" : [ 0.5, 0.95 ],
									"rounded" : 0,
									"style" : ""
								}

							}
, 							{
								"box" : 								{
									"angle" : 270.0,
									"grad1" : [ 0.376471, 0.384314, 0.4, 1.0 ],
									"grad2" : [ 0.290196, 0.309804, 0.301961, 1.0 ],
									"id" : "obj-40",
									"maxclass" : "panel",
									"mode" : 1,
									"numinlets" : 1,
									"numoutlets" : 0,
									"patching_rect" : [ 962.916748, 587.0, 59.0, 53.0 ],
									"presentation" : 1,
									"presentation_rect" : [ 4.0, 270.326904, 241.294739, 56.218285 ],
									"proportion" : 0.39,
									"rounded" : 0,
									"style" : ""
								}

							}
, 							{
								"box" : 								{
									"angle" : 270.0,
									"grad1" : [ 0.376471, 0.384314, 0.4, 1.0 ],
									"grad2" : [ 0.290196, 0.309804, 0.301961, 1.0 ],
									"id" : "obj-44",
									"maxclass" : "panel",
									"mode" : 1,
									"numinlets" : 1,
									"numoutlets" : 0,
									"patching_rect" : [ 962.916748, 587.0, 63.0, 53.0 ],
									"presentation" : 1,
									"presentation_rect" : [ 247.294739, 249.32692, 551.0, 77.218269 ],
									"proportion" : 0.39,
									"rounded" : 0,
									"style" : ""
								}

							}
, 							{
								"box" : 								{
									"angle" : 273.179077,
									"grad1" : [ 0.52549, 0.541176, 0.568627, 1.0 ],
									"grad2" : [ 0.52549, 0.541176, 0.568627, 1.0 ],
									"id" : "obj-124",
									"maxclass" : "panel",
									"mode" : 1,
									"numinlets" : 1,
									"numoutlets" : 0,
									"patching_rect" : [ 834.666748, 591.0, 73.0, 48.0 ],
									"presentation" : 1,
									"presentation_rect" : [ 0.0, 42.5, 802.774353, 289.0 ],
									"proportion" : 0.39,
									"pt1" : [ 0.49505, 0.86087 ],
									"pt2" : [ 0.5, 0.95 ],
									"rounded" : 0,
									"style" : ""
								}

							}
, 							{
								"box" : 								{
									"fontsize" : 10.0,
									"id" : "obj-15",
									"maxclass" : "number",
									"numinlets" : 1,
									"numoutlets" : 2,
									"outlettype" : [ "", "bang" ],
									"parameter_enable" : 0,
									"patching_rect" : [ 113.5, 382.88562, 48.0, 20.0 ],
									"presentation" : 1,
									"presentation_rect" : [ 83.887177, 130.875, 48.0, 20.0 ],
									"style" : ""
								}

							}
, 							{
								"box" : 								{
									"bgcolor" : [ 0.831373, 0.54902, 0.839216, 0.0 ],
									"bubblepoint" : 0.38,
									"fontname" : "Arial",
									"fontsize" : 11.0,
									"id" : "obj-28",
									"maxclass" : "comment",
									"numinlets" : 1,
									"numoutlets" : 0,
									"patching_rect" : [ 183.5, 48.0, 137.0, 19.0 ],
									"presentation" : 1,
									"presentation_rect" : [ 42.0, 2.0, 162.0, 19.0 ],
									"style" : "",
									"text" : "Currently contol of model:",
									"textcolor" : [ 0.878431, 0.878431, 0.858824, 1.0 ],
									"varname" : "description"
								}

							}
, 							{
								"box" : 								{
									"fontname" : "Arial",
									"fontsize" : 12.0,
									"id" : "obj-45",
									"maxclass" : "newobj",
									"numinlets" : 1,
									"numoutlets" : 1,
									"outlettype" : [ "" ],
									"patching_rect" : [ 99.5, 41.0, 74.0, 22.0 ],
									"style" : "",
									"text" : "prepend set"
								}

							}
, 							{
								"box" : 								{
									"color" : [ 0.804844, 0.527957, 0.824703, 1.0 ],
									"fontname" : "Arial",
									"fontsize" : 12.0,
									"id" : "obj-20",
									"maxclass" : "newobj",
									"numinlets" : 1,
									"numoutlets" : 3,
									"outlettype" : [ "", "", "" ],
									"patching_rect" : [ 99.5, 13.0, 137.0, 22.0 ],
									"style" : "",
									"text" : "j.receive model:address"
								}

							}
, 							{
								"box" : 								{
									"fontname" : "Arial",
									"fontsize" : 10.0,
									"id" : "obj-39",
									"maxclass" : "comment",
									"numinlets" : 1,
									"numoutlets" : 0,
									"patching_rect" : [ 317.5, 248.5, 137.0, 18.0 ],
									"presentation" : 1,
									"presentation_rect" : [ 4.0, 176.875, 65.0, 18.0 ],
									"style" : "",
									"text" : "Loop report:",
									"textcolor" : [ 0.878431, 0.878431, 0.858824, 1.0 ]
								}

							}
, 							{
								"box" : 								{
									"fontname" : "Arial",
									"fontsize" : 10.426503,
									"id" : "obj-75",
									"maxclass" : "comment",
									"numinlets" : 1,
									"numoutlets" : 0,
									"patching_rect" : [ 167.0, 386.88562, 143.0, 18.0 ],
									"presentation" : 1,
									"presentation_rect" : [ 4.0, 132.875, 82.0, 18.0 ],
									"style" : "",
									"text" : "Jump to frame:",
									"textcolor" : [ 0.878431, 0.878431, 0.858824, 1.0 ]
								}

							}
, 							{
								"box" : 								{
									"color" : [ 0.804844, 0.527957, 0.824703, 1.0 ],
									"fontname" : "Arial",
									"fontsize" : 12.0,
									"id" : "obj-8",
									"maxclass" : "newobj",
									"numinlets" : 1,
									"numoutlets" : 4,
									"outlettype" : [ "", "", "", "" ],
									"patching_rect" : [ 113.5, 413.88562, 83.0, 22.0 ],
									"style" : "",
									"text" : "j.remote jump"
								}

							}
, 							{
								"box" : 								{
									"color" : [ 0.804844, 0.527957, 0.824703, 1.0 ],
									"fontname" : "Arial",
									"fontsize" : 12.0,
									"id" : "obj-1",
									"maxclass" : "newobj",
									"numinlets" : 1,
									"numoutlets" : 4,
									"outlettype" : [ "", "", "", "" ],
									"patching_rect" : [ 293.5, 144.5, 88.0, 22.0 ],
									"style" : "",
									"text" : "j.remote frame"
								}

							}
, 							{
								"box" : 								{
									"annotation" : "",
									"border" : 1.0,
									"id" : "obj-30",
									"keymode" : 1,
									"maxclass" : "textedit",
									"numinlets" : 1,
									"numoutlets" : 4,
									"outlettype" : [ "", "int", "", "" ],
									"parameter_enable" : 0,
									"patching_rect" : [ 113.5, 272.0, 164.0, 18.0 ],
									"presentation" : 1,
									"presentation_rect" : [ 64.0, 48.277779, 190.0, 16.0 ],
									"rounded" : 0.0,
									"style" : "default",
									"text" : "Jamoma",
									"textcolor" : [ 0.882353, 0.988235, 1.0, 1.0 ]
								}

							}
, 							{
								"box" : 								{
									"fontname" : "Arial",
									"fontsize" : 12.0,
									"id" : "obj-42",
									"maxclass" : "newobj",
									"numinlets" : 2,
									"numoutlets" : 2,
									"outlettype" : [ "", "" ],
									"patching_rect" : [ 113.5, 299.5, 61.0, 22.0 ],
									"style" : "",
									"text" : "route text"
								}

							}
, 							{
								"box" : 								{
									"color" : [ 0.804844, 0.527957, 0.824703, 1.0 ],
									"fontname" : "Arial",
									"fontsize" : 12.0,
									"id" : "obj-27",
									"maxclass" : "newobj",
									"numinlets" : 1,
									"numoutlets" : 4,
									"outlettype" : [ "", "", "", "" ],
									"patching_rect" : [ 113.5, 322.11438, 93.0, 22.0 ],
									"style" : "",
									"text" : "j.remote drawto"
								}

							}
, 							{
								"box" : 								{
									"color" : [ 0.804844, 0.527957, 0.824703, 1.0 ],
									"fontname" : "Arial",
									"fontsize" : 12.0,
									"id" : "obj-5",
									"maxclass" : "newobj",
									"numinlets" : 1,
									"numoutlets" : 4,
									"outlettype" : [ "", "", "", "" ],
									"patching_rect" : [ 113.5, 144.5, 78.0, 22.0 ],
									"style" : "",
									"text" : "j.remote rate"
								}

							}
, 							{
								"box" : 								{
									"fontname" : "Arial",
									"fontsize" : 20.0,
									"id" : "obj-84",
									"maxclass" : "comment",
									"numinlets" : 1,
									"numoutlets" : 0,
									"patching_rect" : [ 99.5, 70.5, 209.0, 29.0 ],
									"presentation" : 1,
									"presentation_rect" : [ 44.774353, 13.5, 191.0, 29.0 ],
									"style" : "",
									"text" : "/no_model_address",
									"textcolor" : [ 0.878431, 0.878431, 0.858824, 1.0 ],
									"varname" : "name"
								}

							}
, 							{
								"box" : 								{
									"id" : "obj-85",
									"ignoreclick" : 1,
									"maxclass" : "pictctrl",
									"name" : "RDPJamomaLogo2.png",
									"numinlets" : 1,
									"numoutlets" : 1,
									"outlettype" : [ "int" ],
									"parameter_enable" : 0,
									"patching_rect" : [ 50.5, 13.0, 43.0, 42.5 ],
									"presentation" : 1,
									"presentation_rect" : [ 4.0, 2.0, 38.774353, 38.5 ],
									"varname" : "logo"
								}

							}
, 							{
								"box" : 								{
									"comment" : "",
									"id" : "obj-2",
									"maxclass" : "inlet",
									"numinlets" : 0,
									"numoutlets" : 1,
									"outlettype" : [ "" ],
									"patching_rect" : [ 23.0, 100.0, 25.0, 25.0 ],
									"style" : ""
								}

							}
, 							{
								"box" : 								{
									"bgcolor" : [ 0.54902, 0.545098, 0.552941, 0.0 ],
									"fontname" : "Arial",
									"fontsize" : 10.0,
									"id" : "obj-29",
									"maxclass" : "comment",
									"numinlets" : 1,
									"numoutlets" : 0,
									"patching_rect" : [ 132.5, 252.0, 140.0, 18.0 ],
									"presentation" : 1,
									"presentation_rect" : [ 4.0, 48.277779, 58.0, 18.0 ],
									"style" : "",
									"text" : "Draw to:",
									"textcolor" : [ 0.878431, 0.878431, 0.858824, 1.0 ]
								}

							}
, 							{
								"box" : 								{
									"angle" : 273.179077,
									"grad1" : [ 0.52549, 0.541176, 0.568627, 1.0 ],
									"grad2" : [ 0.52549, 0.541176, 0.568627, 1.0 ],
									"id" : "obj-4",
									"maxclass" : "panel",
									"mode" : 1,
									"numinlets" : 1,
									"numoutlets" : 0,
									"patching_rect" : [ 363.5, 12.0, 73.0, 48.0 ],
									"presentation" : 1,
									"presentation_rect" : [ 0.0, 42.875, 235.774353, 162.0 ],
									"proportion" : 0.39,
									"pt1" : [ 0.49505, 0.86087 ],
									"pt2" : [ 0.5, 0.95 ],
									"rounded" : 0,
									"style" : ""
								}

							}
, 							{
								"box" : 								{
									"angle" : 273.179077,
									"grad1" : [ 0.290196, 0.309804, 0.301961, 1.0 ],
									"grad2" : [ 0.290196, 0.309804, 0.301961, 1.0 ],
									"id" : "obj-6",
									"maxclass" : "panel",
									"mode" : 1,
									"numinlets" : 1,
									"numoutlets" : 0,
									"patching_rect" : [ 33.0, 243.875, 73.0, 48.0 ],
									"presentation" : 1,
									"presentation_rect" : [ 0.0, 0.0, 235.774353, 42.5 ],
									"proportion" : 0.39,
									"pt1" : [ 0.49505, 0.86087 ],
									"pt2" : [ 0.5, 0.95 ],
									"rounded" : 0,
									"style" : ""
								}

							}
 ],
						"lines" : [ 							{
								"patchline" : 								{
									"destination" : [ "obj-37", 3 ],
									"disabled" : 0,
									"hidden" : 0,
									"source" : [ "obj-105", 0 ]
								}

							}
, 							{
								"patchline" : 								{
									"destination" : [ "obj-37", 2 ],
									"disabled" : 0,
									"hidden" : 0,
									"source" : [ "obj-106", 0 ]
								}

							}
, 							{
								"patchline" : 								{
									"destination" : [ "obj-8", 0 ],
									"disabled" : 0,
									"hidden" : 0,
									"source" : [ "obj-15", 0 ]
								}

							}
, 							{
								"patchline" : 								{
									"destination" : [ "obj-45", 0 ],
									"disabled" : 0,
									"hidden" : 0,
									"source" : [ "obj-20", 0 ]
								}

							}
, 							{
								"patchline" : 								{
									"destination" : [ "obj-30", 0 ],
									"disabled" : 0,
									"hidden" : 0,
									"midpoints" : [ 123.0, 354.0, 105.825623, 354.0, 105.825623, 261.0, 123.0, 261.0 ],
									"source" : [ "obj-27", 0 ]
								}

							}
, 							{
								"patchline" : 								{
									"destination" : [ "obj-42", 0 ],
									"disabled" : 0,
									"hidden" : 0,
									"source" : [ "obj-30", 0 ]
								}

							}
, 							{
								"patchline" : 								{
									"destination" : [ "obj-107", 0 ],
									"disabled" : 0,
									"hidden" : 0,
									"source" : [ "obj-37", 1 ]
								}

							}
, 							{
								"patchline" : 								{
									"destination" : [ "obj-108", 0 ],
									"disabled" : 0,
									"hidden" : 0,
									"source" : [ "obj-37", 0 ]
								}

							}
, 							{
								"patchline" : 								{
									"destination" : [ "obj-27", 0 ],
									"disabled" : 0,
									"hidden" : 0,
									"source" : [ "obj-42", 0 ]
								}

							}
, 							{
								"patchline" : 								{
									"destination" : [ "obj-84", 0 ],
									"disabled" : 0,
									"hidden" : 0,
									"source" : [ "obj-45", 0 ]
								}

							}
, 							{
								"patchline" : 								{
									"destination" : [ "obj-48", 0 ],
									"disabled" : 0,
									"hidden" : 0,
									"source" : [ "obj-47", 0 ]
								}

							}
, 							{
								"patchline" : 								{
									"destination" : [ "obj-47", 0 ],
									"disabled" : 0,
									"hidden" : 0,
									"midpoints" : [ 338.0, 470.38562, 315.75, 470.38562, 315.75, 396.38562, 338.0, 396.38562 ],
									"source" : [ "obj-48", 0 ]
								}

							}
, 							{
								"patchline" : 								{
									"destination" : [ "obj-15", 0 ],
									"disabled" : 0,
									"hidden" : 0,
									"midpoints" : [ 123.0, 445.0, 103.0, 445.0, 103.0, 373.0, 123.0, 373.0 ],
									"source" : [ "obj-8", 0 ]
								}

							}
 ],
						"styles" : [ 							{
								"name" : "AudioStatus_Menu",
								"default" : 								{
									"bgfillcolor" : 									{
										"type" : "color",
										"color" : [ 0.294118, 0.313726, 0.337255, 1 ],
										"color1" : [ 0.454902, 0.462745, 0.482353, 0.0 ],
										"color2" : [ 0.290196, 0.309804, 0.301961, 1.0 ],
										"angle" : 270.0,
										"proportion" : 0.39,
										"autogradient" : 0
									}

								}
,
								"parentstyle" : "",
								"multi" : 0
							}
, 							{
								"name" : "rdp-jamoma-style",
								"default" : 								{
									"bgcolor" : [ 1.0, 0.827451, 0.345098, 0.0 ],
									"accentcolor" : [ 0.290196, 0.309804, 0.301961, 1.0 ],
									"fontface" : [ 0 ],
									"selectioncolor" : [ 0.849573, 1.0, 0.926902, 1.0 ],
									"textcolor_inverse" : [ 0.290196, 0.309804, 0.301961, 1.0 ]
								}
,
								"parentstyle" : "",
								"multi" : 0
							}
 ]
					}
,
					"patching_rect" : [ 13.0, 97.0, 50.0, 22.0 ],
					"saved_object_attributes" : 					{
						"description" : "",
						"digest" : "",
						"globalpatchername" : "",
						"style" : "",
						"tags" : ""
					}
,
					"style" : "",
					"text" : "p panel"
				}

			}
, 			{
				"box" : 				{
					"bgcolor" : [ 0.526442, 0.540023, 0.568813, 1.0 ],
					"bordercolor" : [ 0.921569, 0.917647, 0.933333, 1.0 ],
					"fontface" : 0,
					"headercolor" : [ 0.290196, 0.309804, 0.301961, 1.0 ],
					"highlightcolor" : [ 0.803922, 0.529412, 0.823529, 1.0 ],
					"id" : "obj-6",
					"maxclass" : "j.ui",
					"numinlets" : 1,
					"numoutlets" : 1,
					"outlettype" : [ "" ],
					"patching_rect" : [ 13.0, 6.5, 300.0, 70.0 ],
					"presentation" : 1,
					"presentation_rect" : [ 0.0, -0.5, 300.0, 210.0 ],
					"text" : "/no_model_address",
					"textcolor" : [ 0.921569, 0.917647, 0.933333, 1.0 ]
				}

			}
, 			{
				"box" : 				{
					"comment" : "",
					"id" : "obj-5",
					"maxclass" : "outlet",
					"numinlets" : 1,
					"numoutlets" : 0,
					"patching_rect" : [ 13.0, 203.11438, 25.0, 25.0 ],
					"style" : ""
				}

			}
, 			{
				"box" : 				{
					"comment" : "",
					"id" : "obj-3",
					"maxclass" : "inlet",
					"numinlets" : 0,
					"numoutlets" : 1,
					"outlettype" : [ "" ],
					"patching_rect" : [ 13.0, 130.11438, 25.0, 25.0 ],
					"style" : ""
				}

			}
, 			{
				"box" : 				{
					"color" : [ 0.804844, 0.527957, 0.824703, 1.0 ],
					"fontname" : "Arial",
					"fontsize" : 12.0,
					"id" : "obj-1",
					"maxclass" : "newobj",
					"numinlets" : 1,
					"numoutlets" : 2,
					"outlettype" : [ "", "" ],
					"patching_rect" : [ 13.0, 170.11438, 281.0, 22.0 ],
					"style" : "",
					"text" : "j.view @description \"interface for hap video player\""
				}

			}
, 			{
				"box" : 				{
					"fontname" : "Arial",
					"fontsize" : 12.0,
					"id" : "obj-94",
					"maxclass" : "newobj",
					"numinlets" : 1,
					"numoutlets" : 4,
					"outlettype" : [ "", "", "", "" ],
					"patching_rect" : [ 547.75, 1187.307983, 98.0, 22.0 ],
					"style" : "",
					"text" : "j.remote file/play",
					"varname" : "play"
				}

			}
 ],
		"lines" : [ 			{
				"patchline" : 				{
					"destination" : [ "obj-5", 0 ],
					"disabled" : 0,
					"hidden" : 0,
					"source" : [ "obj-1", 0 ]
				}

			}
, 			{
				"patchline" : 				{
					"destination" : [ "obj-94", 0 ],
					"disabled" : 0,
					"hidden" : 0,
					"source" : [ "obj-106", 0 ]
				}

			}
, 			{
				"patchline" : 				{
					"destination" : [ "obj-111", 0 ],
					"disabled" : 0,
					"hidden" : 0,
					"source" : [ "obj-109", 0 ]
				}

			}
, 			{
				"patchline" : 				{
					"destination" : [ "obj-65", 0 ],
					"disabled" : 0,
					"hidden" : 0,
					"source" : [ "obj-109", 1 ]
				}

			}
, 			{
				"patchline" : 				{
					"destination" : [ "obj-109", 0 ],
					"disabled" : 0,
					"hidden" : 0,
					"source" : [ "obj-110", 0 ]
				}

			}
, 			{
				"patchline" : 				{
					"destination" : [ "obj-94", 0 ],
					"disabled" : 0,
					"hidden" : 0,
					"midpoints" : [ 304.916656, 1179.750732, 557.25, 1179.750732 ],
					"source" : [ "obj-111", 0 ]
				}

			}
, 			{
				"patchline" : 				{
					"destination" : [ "obj-34", 0 ],
					"disabled" : 0,
					"hidden" : 0,
					"source" : [ "obj-112", 0 ]
				}

			}
, 			{
				"patchline" : 				{
					"destination" : [ "obj-33", 0 ],
					"disabled" : 0,
					"hidden" : 0,
					"source" : [ "obj-113", 0 ]
				}

			}
, 			{
				"patchline" : 				{
					"destination" : [ "obj-8", 0 ],
					"disabled" : 0,
					"hidden" : 0,
					"midpoints" : [ 598.560608, 204.0, 502.0, 204.0, 502.0, 77.0, 526.727295, 77.0 ],
					"source" : [ "obj-115", 0 ]
				}

			}
, 			{
				"patchline" : 				{
					"destination" : [ "obj-93", 0 ],
					"disabled" : 0,
					"hidden" : 0,
					"midpoints" : [ 83.000023, 385.69281, 83.000023, 385.69281 ],
					"source" : [ "obj-17", 0 ]
				}

			}
, 			{
				"patchline" : 				{
					"destination" : [ "obj-17", 0 ],
					"disabled" : 0,
					"hidden" : 0,
					"source" : [ "obj-2", 0 ]
				}

			}
, 			{
				"patchline" : 				{
					"destination" : [ "obj-42", 0 ],
					"disabled" : 0,
					"hidden" : 0,
					"source" : [ "obj-23", 0 ]
				}

			}
, 			{
				"patchline" : 				{
					"destination" : [ "obj-30", 0 ],
					"disabled" : 0,
					"hidden" : 0,
					"source" : [ "obj-25", 0 ]
				}

			}
, 			{
				"patchline" : 				{
					"destination" : [ "obj-31", 0 ],
					"disabled" : 0,
					"hidden" : 0,
					"source" : [ "obj-25", 0 ]
				}

			}
, 			{
				"patchline" : 				{
					"destination" : [ "obj-28", 1 ],
					"disabled" : 0,
					"hidden" : 0,
					"source" : [ "obj-26", 0 ]
				}

			}
, 			{
				"patchline" : 				{
					"destination" : [ "obj-28", 0 ],
					"disabled" : 0,
					"hidden" : 0,
					"source" : [ "obj-27", 0 ]
				}

			}
, 			{
				"patchline" : 				{
					"destination" : [ "obj-29", 0 ],
					"disabled" : 0,
					"hidden" : 0,
					"source" : [ "obj-28", 0 ]
				}

			}
, 			{
				"patchline" : 				{
					"destination" : [ "obj-25", 0 ],
					"disabled" : 0,
					"hidden" : 0,
					"midpoints" : [ 369.25, 475.0, 351.25, 475.0, 351.25, 303.0, 369.25, 303.0 ],
					"source" : [ "obj-29", 0 ]
				}

			}
, 			{
				"patchline" : 				{
					"destination" : [ "obj-93", 0 ],
					"disabled" : 0,
					"hidden" : 0,
					"source" : [ "obj-29", 0 ]
				}

			}
, 			{
				"patchline" : 				{
					"destination" : [ "obj-1", 0 ],
					"disabled" : 0,
					"hidden" : 0,
					"source" : [ "obj-3", 0 ]
				}

			}
, 			{
				"patchline" : 				{
					"destination" : [ "obj-27", 0 ],
					"disabled" : 0,
					"hidden" : 0,
					"source" : [ "obj-30", 0 ]
				}

			}
, 			{
				"patchline" : 				{
					"destination" : [ "obj-26", 0 ],
					"disabled" : 0,
					"hidden" : 0,
					"source" : [ "obj-31", 0 ]
				}

			}
, 			{
				"patchline" : 				{
					"destination" : [ "obj-112", 0 ],
					"disabled" : 0,
					"hidden" : 0,
					"midpoints" : [ 772.916626, 655.0, 747.0, 655.0, 747.0, 566.0, 772.916626, 566.0 ],
					"source" : [ "obj-34", 0 ]
				}

			}
, 			{
				"patchline" : 				{
					"destination" : [ "obj-115", 0 ],
					"disabled" : 0,
					"hidden" : 0,
					"source" : [ "obj-38", 1 ]
				}

			}
, 			{
				"patchline" : 				{
					"destination" : [ "obj-23", 0 ],
					"disabled" : 0,
					"hidden" : 0,
					"source" : [ "obj-41", 0 ]
				}

			}
, 			{
				"patchline" : 				{
					"destination" : [ "obj-43", 0 ],
					"disabled" : 0,
					"hidden" : 0,
					"source" : [ "obj-42", 0 ]
				}

			}
, 			{
				"patchline" : 				{
					"destination" : [ "obj-41", 0 ],
					"disabled" : 0,
					"hidden" : 0,
					"source" : [ "obj-44", 0 ]
				}

			}
, 			{
				"patchline" : 				{
					"destination" : [ "obj-71", 0 ],
					"disabled" : 0,
					"hidden" : 0,
					"source" : [ "obj-51", 0 ]
				}

			}
, 			{
				"patchline" : 				{
					"destination" : [ "obj-11", 0 ],
					"disabled" : 0,
					"hidden" : 0,
					"source" : [ "obj-6", 0 ]
				}

			}
, 			{
				"patchline" : 				{
					"destination" : [ "obj-76", 0 ],
					"disabled" : 0,
					"hidden" : 0,
					"midpoints" : [ 318.916656, 1213.307983, 209.75, 1213.307983, 209.75, 1011.807983, 240.583313, 1011.807983 ],
					"source" : [ "obj-65", 0 ]
				}

			}
, 			{
				"patchline" : 				{
					"destination" : [ "obj-70", 0 ],
					"disabled" : 0,
					"hidden" : 0,
					"source" : [ "obj-67", 0 ]
				}

			}
, 			{
				"patchline" : 				{
					"destination" : [ "obj-76", 0 ],
					"disabled" : 0,
					"hidden" : 0,
					"midpoints" : [ 86.583313, 1009.693604, 240.583313, 1009.693604 ],
					"source" : [ "obj-70", 0 ]
				}

			}
, 			{
				"patchline" : 				{
					"destination" : [ "obj-74", 0 ],
					"disabled" : 0,
					"hidden" : 0,
					"source" : [ "obj-71", 0 ]
				}

			}
, 			{
				"patchline" : 				{
					"destination" : [ "obj-78", 0 ],
					"disabled" : 0,
					"hidden" : 0,
					"source" : [ "obj-74", 0 ]
				}

			}
, 			{
				"patchline" : 				{
					"destination" : [ "obj-110", 0 ],
					"disabled" : 0,
					"hidden" : 0,
					"source" : [ "obj-75", 1 ]
				}

			}
, 			{
				"patchline" : 				{
					"destination" : [ "obj-75", 0 ],
					"disabled" : 0,
					"hidden" : 0,
					"source" : [ "obj-76", 1 ]
				}

			}
, 			{
				"patchline" : 				{
					"destination" : [ "obj-76", 0 ],
					"disabled" : 0,
					"hidden" : 0,
					"source" : [ "obj-77", 0 ]
				}

			}
, 			{
				"patchline" : 				{
					"destination" : [ "obj-77", 0 ],
					"disabled" : 0,
					"hidden" : 0,
					"source" : [ "obj-78", 1 ]
				}

			}
, 			{
				"patchline" : 				{
					"destination" : [ "obj-38", 0 ],
					"disabled" : 0,
					"hidden" : 0,
					"source" : [ "obj-8", 1 ]
				}

			}
, 			{
				"patchline" : 				{
					"destination" : [ "obj-29", 0 ],
					"disabled" : 0,
					"hidden" : 0,
					"source" : [ "obj-93", 0 ]
				}

			}
, 			{
				"patchline" : 				{
					"destination" : [ "obj-106", 0 ],
					"disabled" : 0,
					"hidden" : 0,
					"source" : [ "obj-94", 0 ]
				}

			}
 ],
		"parameters" : 		{
			"obj-11::obj-22" : [ "Threshold", "Threshold", 0 ],
			"obj-11::obj-23" : [ "Postamp", "Postamp", 0 ],
			"obj-11::obj-32" : [ "Release", "Release", 0 ],
			"obj-11::obj-33" : [ "Lookahead", "Lookahead", 0 ],
			"obj-11::obj-34" : [ "Preamp", "Preamp", 0 ]
		}
,
		"dependency_cache" : [ 			{
				"name" : "RDPJamomaLogo2.png",
				"bootpath" : "~/Documents/Github_Development_Library/rdp_Jamoma_06/Dependencies",
				"patcherrelativepath" : "../../../Dependencies",
				"type" : "PNG ",
				"implicit" : 1
			}
, 			{
				"name" : "wfmodes.png",
				"bootpath" : "C74:/media/max/picts",
				"type" : "PNG ",
				"implicit" : 1
			}
, 			{
				"name" : "wfknob.png",
				"bootpath" : "C74:/media/max/picts",
				"type" : "PNG ",
				"implicit" : 1
			}
, 			{
				"name" : "j.remote.mxo",
				"type" : "iLaX"
			}
, 			{
				"name" : "j.view.mxo",
				"type" : "iLaX"
			}
, 			{
				"name" : "j.ui.mxo",
				"type" : "iLaX"
			}
, 			{
				"name" : "j.receive.mxo",
				"type" : "iLaX"
			}
, 			{
				"name" : "j.send.mxo",
				"type" : "iLaX"
			}
 ],
		"embedsnapshot" : 0,
		"styles" : [ 			{
				"name" : "AudioStatus_Menu",
				"default" : 				{
					"bgfillcolor" : 					{
						"type" : "color",
						"color" : [ 0.294118, 0.313726, 0.337255, 1 ],
						"color1" : [ 0.454902, 0.462745, 0.482353, 0.0 ],
						"color2" : [ 0.290196, 0.309804, 0.301961, 1.0 ],
						"angle" : 270.0,
						"proportion" : 0.39,
						"autogradient" : 0
					}

				}
,
				"parentstyle" : "",
				"multi" : 0
			}
, 			{
				"name" : "rdp-jamoma-style",
				"default" : 				{
					"bgcolor" : [ 1.0, 0.827451, 0.345098, 0.0 ],
					"accentcolor" : [ 0.290196, 0.309804, 0.301961, 1.0 ],
					"fontface" : [ 0 ],
					"selectioncolor" : [ 0.849573, 1.0, 0.926902, 1.0 ],
					"textcolor_inverse" : [ 0.290196, 0.309804, 0.301961, 1.0 ]
				}
,
				"parentstyle" : "",
				"multi" : 0
			}
 ]
	}

}
