{
	"patcher" : 	{
		"fileversion" : 1,
		"appversion" : 		{
			"major" : 7,
			"minor" : 0,
			"revision" : 3,
			"architecture" : "x86",
			"modernui" : 1
		}
,
		"rect" : [ 477.0, 119.0, 1007.0, 601.0 ],
		"bglocked" : 0,
		"openinpresentation" : 0,
		"default_fontsize" : 12.0,
		"default_fontface" : 0,
		"default_fontname" : "Arial",
		"gridonopen" : 1,
		"gridsize" : [ 15.0, 15.0 ],
		"gridsnaponopen" : 1,
		"objectsnaponopen" : 1,
		"statusbarvisible" : 2,
		"toolbarvisible" : 1,
		"lefttoolbarpinned" : 0,
		"toptoolbarpinned" : 0,
		"righttoolbarpinned" : 0,
		"bottomtoolbarpinned" : 0,
		"toolbars_unpinned_last_save" : 0,
		"tallnewobj" : 0,
		"boxanimatetime" : 200,
		"enablehscroll" : 1,
		"enablevscroll" : 1,
		"devicewidth" : 0.0,
		"description" : "",
		"digest" : "",
		"tags" : "",
		"style" : "",
		"subpatcher_template" : "",
		"boxes" : [ 			{
				"box" : 				{
					"id" : "obj-38",
					"maxclass" : "newobj",
					"numinlets" : 1,
					"numoutlets" : 1,
					"outlettype" : [ "" ],
					"patching_rect" : [ 367.5, 198.0, 102.0, 22.0 ],
					"style" : "",
					"text" : "prepend antialias"
				}

			}
, 			{
				"box" : 				{
					"id" : "obj-37",
					"maxclass" : "newobj",
					"numinlets" : 1,
					"numoutlets" : 1,
					"outlettype" : [ "" ],
					"patching_rect" : [ 264.5, 171.0, 94.0, 22.0 ],
					"style" : "",
					"text" : "prepend enable"
				}

			}
, 			{
				"box" : 				{
					"id" : "obj-36",
					"maxclass" : "newobj",
					"numinlets" : 1,
					"numoutlets" : 1,
					"outlettype" : [ "" ],
					"patching_rect" : [ 164.5, 136.5, 94.0, 22.0 ],
					"style" : "",
					"text" : "prepend drawto"
				}

			}
, 			{
				"box" : 				{
					"comment" : "",
					"id" : "obj-35",
					"maxclass" : "inlet",
					"numinlets" : 0,
					"numoutlets" : 1,
					"outlettype" : [ "" ],
					"patching_rect" : [ 57.857178, 107.0, 30.0, 30.0 ],
					"style" : ""
				}

			}
, 			{
				"box" : 				{
					"id" : "obj-34",
					"maxclass" : "newobj",
					"numinlets" : 1,
					"numoutlets" : 2,
					"outlettype" : [ "", "" ],
					"patching_rect" : [ 57.857178, 155.0, 29.5, 22.0 ],
					"style" : "",
					"text" : "j.in"
				}

			}
, 			{
				"box" : 				{
					"comment" : "",
					"id" : "obj-33",
					"maxclass" : "outlet",
					"numinlets" : 1,
					"numoutlets" : 0,
					"patching_rect" : [ 445.5, 477.0, 30.0, 30.0 ],
					"style" : ""
				}

			}
, 			{
				"box" : 				{
					"color" : [ 0.831373, 0.54902, 0.839216, 1.0 ],
					"id" : "obj-30",
					"maxclass" : "newobj",
					"numinlets" : 1,
					"numoutlets" : 2,
					"outlettype" : [ "", "" ],
					"patching_rect" : [ 264.5, 143.0, 489.0, 22.0 ],
					"style" : "",
					"text" : "j.parameter enable @type boolean @description \"Enable drawing.\" @default 1 @priority 2"
				}

			}
, 			{
				"box" : 				{
					"color" : [ 0.831373, 0.54902, 0.839216, 1.0 ],
					"id" : "obj-27",
					"maxclass" : "newobj",
					"numinlets" : 1,
					"numoutlets" : 2,
					"outlettype" : [ "", "" ],
					"patching_rect" : [ 367.5, 171.0, 479.0, 22.0 ],
					"style" : "",
					"text" : "j.parameter antialias @type boolean @description \"Aliasing flag.\" @default 0 @priority 3"
				}

			}
, 			{
				"box" : 				{
					"color" : [ 0.831373, 0.54902, 0.839216, 1.0 ],
					"id" : "obj-26",
					"maxclass" : "newobj",
					"numinlets" : 1,
					"numoutlets" : 2,
					"outlettype" : [ "", "" ],
					"patching_rect" : [ 164.5, 107.0, 669.0, 22.0 ],
					"style" : "",
					"text" : "j.parameter drawto @type string @description \"The named drawing context in which to draw.\" @default Jamoma @priority 1"
				}

			}
, 			{
				"box" : 				{
					"comment" : "",
					"id" : "obj-25",
					"maxclass" : "outlet",
					"numinlets" : 1,
					"numoutlets" : 0,
					"patching_rect" : [ 57.857178, 514.0, 30.0, 30.0 ],
					"style" : ""
				}

			}
, 			{
				"box" : 				{
					"color" : [ 0.831373, 0.54902, 0.839216, 1.0 ],
					"id" : "obj-24",
					"maxclass" : "newobj",
					"numinlets" : 1,
					"numoutlets" : 2,
					"outlettype" : [ "", "" ],
					"patching_rect" : [ 57.857178, 481.0, 153.0, 22.0 ],
					"style" : "",
					"text" : "j.out 1 @type jit_gl_texture"
				}

			}
, 			{
				"box" : 				{
					"color" : [ 0.831373, 0.54902, 0.839216, 1.0 ],
					"id" : "obj-23",
					"maxclass" : "newobj",
					"numinlets" : 1,
					"numoutlets" : 2,
					"outlettype" : [ "", "" ],
					"patching_rect" : [ 453.642822, 332.0, 533.0, 22.0 ],
					"style" : "",
					"text" : "j.parameter alpha @type decimal @range -10. 10. @description saturation @default 1. @priority 7"
				}

			}
, 			{
				"box" : 				{
					"color" : [ 0.831373, 0.54902, 0.839216, 1.0 ],
					"id" : "obj-21",
					"maxclass" : "newobj",
					"numinlets" : 1,
					"numoutlets" : 2,
					"outlettype" : [ "", "" ],
					"patching_rect" : [ 365.642822, 308.0, 556.0, 22.0 ],
					"style" : "",
					"text" : "j.parameter saturation @type decimal @range -10. 10. @description saturation @default 1. @priority 6"
				}

			}
, 			{
				"box" : 				{
					"color" : [ 0.831373, 0.54902, 0.839216, 1.0 ],
					"id" : "obj-17",
					"maxclass" : "newobj",
					"numinlets" : 1,
					"numoutlets" : 2,
					"outlettype" : [ "", "" ],
					"patching_rect" : [ 196.642822, 260.0, 530.0, 22.0 ],
					"style" : "",
					"text" : "j.parameter contrast @type decimal @range -10 10 @description contrast @default 1. @priority 4"
				}

			}
, 			{
				"box" : 				{
					"id" : "obj-15",
					"maxclass" : "newobj",
					"numinlets" : 1,
					"numoutlets" : 1,
					"outlettype" : [ "" ],
					"patching_rect" : [ 196.642822, 402.0, 92.0, 22.0 ],
					"style" : "",
					"text" : "prepend param"
				}

			}
, 			{
				"box" : 				{
					"id" : "obj-18",
					"maxclass" : "message",
					"numinlets" : 2,
					"numoutlets" : 1,
					"outlettype" : [ "" ],
					"patching_rect" : [ 196.642822, 362.0, 70.0, 22.0 ],
					"style" : "",
					"text" : "contrast $1"
				}

			}
, 			{
				"box" : 				{
					"id" : "obj-20",
					"maxclass" : "newobj",
					"numinlets" : 2,
					"numoutlets" : 2,
					"outlettype" : [ "jit_gl_texture", "" ],
					"patching_rect" : [ 57.857178, 445.0, 365.0, 22.0 ],
					"style" : "",
					"text" : "jit.gl.slab Jamoma @file cc.brcosa.jxs @adapt 1 @colormode uyvy"
				}

			}
, 			{
				"box" : 				{
					"id" : "obj-57",
					"maxclass" : "message",
					"numinlets" : 2,
					"numoutlets" : 1,
					"outlettype" : [ "" ],
					"patching_rect" : [ 453.642822, 362.0, 57.0, 22.0 ],
					"style" : "",
					"text" : "alpha $1"
				}

			}
, 			{
				"box" : 				{
					"id" : "obj-59",
					"maxclass" : "message",
					"numinlets" : 2,
					"numoutlets" : 1,
					"outlettype" : [ "" ],
					"patching_rect" : [ 365.642822, 362.0, 80.0, 22.0 ],
					"style" : "",
					"text" : "saturation $1"
				}

			}
, 			{
				"box" : 				{
					"id" : "obj-63",
					"maxclass" : "message",
					"numinlets" : 2,
					"numoutlets" : 1,
					"outlettype" : [ "" ],
					"patching_rect" : [ 275.642822, 362.0, 83.0, 22.0 ],
					"style" : "",
					"text" : "brightness $1"
				}

			}
, 			{
				"box" : 				{
					"color" : [ 0.804844, 0.527957, 0.824703, 1.0 ],
					"fontname" : "Arial",
					"fontsize" : 12.0,
					"id" : "obj-94",
					"maxclass" : "newobj",
					"numinlets" : 0,
					"numoutlets" : 0,
					"patching_rect" : [ 445.5, 416.0, 107.0, 22.0 ],
					"style" : "",
					"text" : "j.parameterCreate"
				}

			}
, 			{
				"box" : 				{
					"fontname" : "Arial",
					"fontsize" : 20.0,
					"id" : "obj-84",
					"maxclass" : "comment",
					"numinlets" : 1,
					"numoutlets" : 0,
					"patching_rect" : [ 47.0, 20.0, 209.0, 29.0 ],
					"presentation" : 1,
					"presentation_rect" : [ 75.0, 58.0, 191.0, 29.0 ],
					"style" : "",
					"text" : "rdp_gl_brcosa",
					"textcolor" : [ 0.4, 0.4, 0.4, 1.0 ],
					"varname" : "name"
				}

			}
, 			{
				"box" : 				{
					"bgcolor" : [ 0.831373, 0.54902, 0.839216, 0.0 ],
					"bubblepoint" : 0.38,
					"fontname" : "Arial",
					"fontsize" : 11.0,
					"id" : "obj-28",
					"maxclass" : "comment",
					"numinlets" : 1,
					"numoutlets" : 0,
					"patching_rect" : [ 47.0, 51.0, 206.0, 19.0 ],
					"presentation" : 1,
					"presentation_rect" : [ 85.338348, 79.0, 190.957382, 19.0 ],
					"style" : "",
					"text" : "A model for brightness & contrast",
					"textcolor" : [ 0.4, 0.4, 0.4, 1.0 ],
					"varname" : "description"
				}

			}
, 			{
				"box" : 				{
					"id" : "obj-85",
					"ignoreclick" : 1,
					"maxclass" : "pictctrl",
					"name" : "RDPJamomaLogo.png",
					"numinlets" : 1,
					"numoutlets" : 1,
					"outlettype" : [ "int" ],
					"parameter_enable" : 0,
					"patching_rect" : [ 4.0, 20.0, 43.0, 42.5 ],
					"presentation" : 1,
					"presentation_rect" : [ 38.0, 58.0, 40.0, 40.875 ],
					"varname" : "logo"
				}

			}
, 			{
				"box" : 				{
					"color" : [ 0.83198, 0.54971, 0.84, 1.0 ],
					"fontface" : 0,
					"fontname" : "Arial",
					"fontsize" : 12.0,
					"id" : "obj-106",
					"maxclass" : "newobj",
					"numinlets" : 1,
					"numoutlets" : 2,
					"outlettype" : [ "", "" ],
					"patching_rect" : [ 445.5, 445.0, 400.0, 22.0 ],
					"style" : "",
					"text" : "j.model @tags brcosa @description \"a model for brightness and contrast\""
				}

			}
, 			{
				"box" : 				{
					"color" : [ 0.831373, 0.54902, 0.839216, 1.0 ],
					"id" : "obj-3",
					"maxclass" : "newobj",
					"numinlets" : 1,
					"numoutlets" : 2,
					"outlettype" : [ "", "" ],
					"patching_rect" : [ 275.642822, 284.0, 555.0, 22.0 ],
					"style" : "",
					"text" : "j.parameter brightness @type decimal @range -10 10 @description brightness @default 1. @priority 5"
				}

			}
 ],
		"lines" : [ 			{
				"patchline" : 				{
					"destination" : [ "obj-33", 0 ],
					"disabled" : 0,
					"hidden" : 0,
					"source" : [ "obj-106", 0 ]
				}

			}
, 			{
				"patchline" : 				{
					"destination" : [ "obj-20", 0 ],
					"disabled" : 0,
					"hidden" : 0,
					"midpoints" : [ 206.142822, 434.0, 67.357178, 434.0 ],
					"source" : [ "obj-15", 0 ]
				}

			}
, 			{
				"patchline" : 				{
					"destination" : [ "obj-18", 0 ],
					"disabled" : 0,
					"hidden" : 0,
					"source" : [ "obj-17", 0 ]
				}

			}
, 			{
				"patchline" : 				{
					"destination" : [ "obj-15", 0 ],
					"disabled" : 0,
					"hidden" : 0,
					"midpoints" : [ 206.142822, 392.5, 206.142822, 392.5 ],
					"source" : [ "obj-18", 0 ]
				}

			}
, 			{
				"patchline" : 				{
					"destination" : [ "obj-24", 0 ],
					"disabled" : 0,
					"hidden" : 0,
					"source" : [ "obj-20", 0 ]
				}

			}
, 			{
				"patchline" : 				{
					"destination" : [ "obj-59", 0 ],
					"disabled" : 0,
					"hidden" : 0,
					"source" : [ "obj-21", 0 ]
				}

			}
, 			{
				"patchline" : 				{
					"destination" : [ "obj-57", 0 ],
					"disabled" : 0,
					"hidden" : 0,
					"source" : [ "obj-23", 0 ]
				}

			}
, 			{
				"patchline" : 				{
					"destination" : [ "obj-25", 0 ],
					"disabled" : 0,
					"hidden" : 0,
					"source" : [ "obj-24", 0 ]
				}

			}
, 			{
				"patchline" : 				{
					"destination" : [ "obj-36", 0 ],
					"disabled" : 0,
					"hidden" : 0,
					"source" : [ "obj-26", 0 ]
				}

			}
, 			{
				"patchline" : 				{
					"destination" : [ "obj-38", 0 ],
					"disabled" : 0,
					"hidden" : 0,
					"source" : [ "obj-27", 0 ]
				}

			}
, 			{
				"patchline" : 				{
					"destination" : [ "obj-63", 0 ],
					"disabled" : 0,
					"hidden" : 0,
					"source" : [ "obj-3", 0 ]
				}

			}
, 			{
				"patchline" : 				{
					"destination" : [ "obj-37", 0 ],
					"disabled" : 0,
					"hidden" : 0,
					"source" : [ "obj-30", 0 ]
				}

			}
, 			{
				"patchline" : 				{
					"destination" : [ "obj-20", 0 ],
					"disabled" : 0,
					"hidden" : 0,
					"source" : [ "obj-34", 0 ]
				}

			}
, 			{
				"patchline" : 				{
					"destination" : [ "obj-34", 0 ],
					"disabled" : 0,
					"hidden" : 0,
					"source" : [ "obj-35", 0 ]
				}

			}
, 			{
				"patchline" : 				{
					"destination" : [ "obj-20", 0 ],
					"disabled" : 0,
					"hidden" : 0,
					"midpoints" : [ 174.0, 239.25, 67.357178, 239.25 ],
					"source" : [ "obj-36", 0 ]
				}

			}
, 			{
				"patchline" : 				{
					"destination" : [ "obj-20", 0 ],
					"disabled" : 0,
					"hidden" : 0,
					"midpoints" : [ 274.0, 239.5, 67.357178, 239.5 ],
					"source" : [ "obj-37", 0 ]
				}

			}
, 			{
				"patchline" : 				{
					"destination" : [ "obj-20", 0 ],
					"disabled" : 0,
					"hidden" : 0,
					"midpoints" : [ 377.0, 239.0, 67.357178, 239.0 ],
					"source" : [ "obj-38", 0 ]
				}

			}
, 			{
				"patchline" : 				{
					"destination" : [ "obj-15", 0 ],
					"disabled" : 0,
					"hidden" : 0,
					"midpoints" : [ 463.142822, 392.5, 206.142822, 392.5 ],
					"source" : [ "obj-57", 0 ]
				}

			}
, 			{
				"patchline" : 				{
					"destination" : [ "obj-15", 0 ],
					"disabled" : 0,
					"hidden" : 0,
					"midpoints" : [ 375.142822, 392.5, 206.142822, 392.5 ],
					"source" : [ "obj-59", 0 ]
				}

			}
, 			{
				"patchline" : 				{
					"destination" : [ "obj-15", 0 ],
					"disabled" : 0,
					"hidden" : 0,
					"midpoints" : [ 285.142822, 392.5, 206.142822, 392.5 ],
					"source" : [ "obj-63", 0 ]
				}

			}
 ],
		"dependency_cache" : [ 			{
				"name" : "RDPJamomaLogo.png",
				"bootpath" : "~/Documents/Github_Development_Library/rdp_Jamoma_06/Dependencies",
				"patcherrelativepath" : "../../Dependencies",
				"type" : "PNG ",
				"implicit" : 1
			}
, 			{
				"name" : "j.parameterCreate.maxpat",
				"bootpath" : "~/Documents/Max 7/Packages/Jamoma/patchers/components/data/parameterCreate",
				"patcherrelativepath" : "../../../../Max 7/Packages/Jamoma/patchers/components/data/parameterCreate",
				"type" : "JSON",
				"implicit" : 1
			}
, 			{
				"name" : "j.thisparentpatcher.js",
				"bootpath" : "~/Documents/Max 7/Packages/Jamoma/javascript",
				"patcherrelativepath" : "../../../../Max 7/Packages/Jamoma/javascript",
				"type" : "TEXT",
				"implicit" : 1
			}
, 			{
				"name" : "j.parameterCreatePresetDoc.js",
				"bootpath" : "~/Documents/Max 7/Packages/Jamoma/javascript",
				"patcherrelativepath" : "../../../../Max 7/Packages/Jamoma/javascript",
				"type" : "TEXT",
				"implicit" : 1
			}
, 			{
				"name" : "j.parameter.mxo",
				"type" : "iLaX"
			}
, 			{
				"name" : "j.model.mxo",
				"type" : "iLaX"
			}
, 			{
				"name" : "j.map.mxo",
				"type" : "iLaX"
			}
, 			{
				"name" : "j.unit.mxo",
				"type" : "iLaX"
			}
, 			{
				"name" : "j.out.mxo",
				"type" : "iLaX"
			}
, 			{
				"name" : "j.in.mxo",
				"type" : "iLaX"
			}
 ],
		"embedsnapshot" : 0,
		"styles" : [ 			{
				"name" : "AudioStatus_Menu",
				"default" : 				{
					"bgfillcolor" : 					{
						"type" : "color",
						"color" : [ 0.294118, 0.313726, 0.337255, 1 ],
						"color1" : [ 0.454902, 0.462745, 0.482353, 0.0 ],
						"color2" : [ 0.290196, 0.309804, 0.301961, 1.0 ],
						"angle" : 270.0,
						"proportion" : 0.39,
						"autogradient" : 0
					}

				}
,
				"parentstyle" : "",
				"multi" : 0
			}
, 			{
				"name" : "rdp-jamoma-style",
				"default" : 				{
					"textcolor_inverse" : [ 0.290196, 0.309804, 0.301961, 1.0 ],
					"fontface" : [ 0 ],
					"bgcolor" : [ 1.0, 0.827451, 0.345098, 0.0 ],
					"accentcolor" : [ 0.290196, 0.309804, 0.301961, 1.0 ],
					"selectioncolor" : [ 0.849573, 1.0, 0.926902, 1.0 ]
				}
,
				"parentstyle" : "",
				"multi" : 0
			}
 ]
	}

}
