{
	"patcher" : 	{
		"fileversion" : 1,
		"appversion" : 		{
			"major" : 7,
			"minor" : 0,
			"revision" : 2,
			"architecture" : "x86",
			"modernui" : 1
		}
,
		"rect" : [ 92.0, 109.0, 640.0, 480.0 ],
		"bglocked" : 0,
		"openinpresentation" : 1,
		"default_fontsize" : 12.0,
		"default_fontface" : 0,
		"default_fontname" : "Arial",
		"gridonopen" : 1,
		"gridsize" : [ 15.0, 15.0 ],
		"gridsnaponopen" : 1,
		"objectsnaponopen" : 1,
		"statusbarvisible" : 2,
		"toolbarvisible" : 1,
		"lefttoolbarpinned" : 0,
		"toptoolbarpinned" : 0,
		"righttoolbarpinned" : 0,
		"bottomtoolbarpinned" : 0,
		"toolbars_unpinned_last_save" : 0,
		"tallnewobj" : 0,
		"boxanimatetime" : 200,
		"enablehscroll" : 1,
		"enablevscroll" : 1,
		"devicewidth" : 0.0,
		"description" : "",
		"digest" : "",
		"tags" : "",
		"style" : "",
		"subpatcher_template" : "",
		"boxes" : [ 			{
				"box" : 				{
					"activedialcolor" : [ 0.882353, 0.988235, 1.0, 1.0 ],
					"activeneedlecolor" : [ 0.376471, 0.384314, 0.4, 1.0 ],
					"bordercolor" : [ 0.376471, 0.384314, 0.4, 1.0 ],
					"dialcolor" : [ 0.752941, 0.784314, 0.839216, 0.0 ],
					"focusbordercolor" : [ 0.882353, 0.988235, 1.0, 1.0 ],
					"fontface" : 0,
					"fontsize" : 9.0,
					"id" : "obj-11",
					"maxclass" : "live.dial",
					"needlecolor" : [ 0.321569, 0.321569, 0.321569, 0.0 ],
					"numinlets" : 1,
					"numoutlets" : 2,
					"outlettype" : [ "", "float" ],
					"parameter_enable" : 1,
					"patching_rect" : [ 338.0, 346.0, 44.0, 45.0 ],
					"presentation" : 1,
					"presentation_rect" : [ 5.044739, 53.109116, 44.0, 45.0 ],
					"saved_attribute_attributes" : 					{
						"valueof" : 						{
							"parameter_longname" : "distortion_amount",
							"parameter_shortname" : "Distortion",
							"parameter_type" : 0,
							"parameter_mmin" : -1.0,
							"parameter_mmax" : 1.0,
							"parameter_unitstyle" : 1
						}

					}
,
					"textcolor" : [ 0.882353, 0.988235, 1.0, 1.0 ],
					"tribordercolor" : [ 0.376471, 0.384314, 0.4, 1.0 ],
					"varname" : "distortion_amount"
				}

			}
, 			{
				"box" : 				{
					"bgcolor" : [ 0.290196, 0.309804, 0.301961, 1.0 ],
					"coldcolor" : [ 0.882353, 0.988235, 1.0, 1.0 ],
					"hotcolor" : [ 0.882353, 0.988235, 1.0, 1.0 ],
					"id" : "obj-15",
					"maxclass" : "live.meter~",
					"numinlets" : 1,
					"numoutlets" : 1,
					"outlettype" : [ "list" ],
					"patching_rect" : [ 471.666687, 681.61438, 15.0, 42.0 ],
					"presentation" : 1,
					"presentation_rect" : [ 275.044739, 22.5, 9.0, 77.0 ],
					"slidercolor" : [ 0.290196, 0.309804, 0.301961, 1.0 ],
					"warmcolor" : [ 0.882353, 0.988235, 1.0, 1.0 ]
				}

			}
, 			{
				"box" : 				{
					"bgcolor" : [ 0.290196, 0.309804, 0.301961, 1.0 ],
					"coldcolor" : [ 0.882353, 0.988235, 1.0, 1.0 ],
					"hotcolor" : [ 0.882353, 0.988235, 1.0, 1.0 ],
					"id" : "obj-30",
					"maxclass" : "live.meter~",
					"numinlets" : 1,
					"numoutlets" : 1,
					"outlettype" : [ "list" ],
					"patching_rect" : [ 316.666687, 681.61438, 15.0, 42.0 ],
					"presentation" : 1,
					"presentation_rect" : [ 285.044739, 22.5, 9.0, 77.0 ],
					"slidercolor" : [ 0.290196, 0.309804, 0.301961, 1.0 ],
					"warmcolor" : [ 0.882353, 0.988235, 1.0, 1.0 ]
				}

			}
, 			{
				"box" : 				{
					"fontsize" : 10.0,
					"id" : "obj-26",
					"maxclass" : "textbutton",
					"mode" : 1,
					"numinlets" : 1,
					"numoutlets" : 3,
					"outlettype" : [ "", "", "int" ],
					"parameter_enable" : 0,
					"patching_rect" : [ 727.25, 536.0, 100.0, 20.0 ],
					"presentation" : 1,
					"presentation_rect" : [ 174.510788, 22.5, 57.489212, 20.0 ],
					"style" : "",
					"text" : "DC Filter",
					"texton" : "DC Filter"
				}

			}
, 			{
				"box" : 				{
					"fontsize" : 10.0,
					"id" : "obj-64",
					"maxclass" : "textbutton",
					"numinlets" : 1,
					"numoutlets" : 3,
					"outlettype" : [ "", "", "int" ],
					"parameter_enable" : 0,
					"patching_rect" : [ 446.25, 268.5, 100.0, 20.0 ],
					"presentation" : 1,
					"presentation_rect" : [ 234.0, 22.5, 40.044739, 20.0 ],
					"style" : "",
					"text" : "Clear",
					"texton" : "Legato"
				}

			}
, 			{
				"box" : 				{
					"fontsize" : 10.0,
					"id" : "obj-76",
					"maxclass" : "textbutton",
					"mode" : 1,
					"numinlets" : 1,
					"numoutlets" : 3,
					"outlettype" : [ "", "", "int" ],
					"parameter_enable" : 0,
					"patching_rect" : [ 464.725647, 582.709839, 100.0, 20.0 ],
					"presentation" : 1,
					"presentation_rect" : [ 125.43158, 22.5, 48.575615, 20.0 ],
					"style" : "",
					"text" : "Limiter",
					"texton" : "Limiter"
				}

			}
, 			{
				"box" : 				{
					"autopopulate" : 1,
					"fontsize" : 10.0,
					"id" : "obj-72",
					"items" : [ "exponential", ",", "linear" ],
					"maxclass" : "umenu",
					"numinlets" : 1,
					"numoutlets" : 3,
					"outlettype" : [ "int", "", "" ],
					"parameter_enable" : 0,
					"patching_rect" : [ 740.0, 455.61438, 89.0, 20.0 ],
					"prefix_mode" : 2,
					"presentation" : 1,
					"presentation_rect" : [ 5.044739, 22.5, 118.386841, 20.0 ],
					"style" : ""
				}

			}
, 			{
				"box" : 				{
					"color" : [ 0.831373, 0.54902, 0.839216, 1.0 ],
					"fontface" : 0,
					"fontname" : "Arial",
					"fontsize" : 12.0,
					"id" : "obj-2",
					"maxclass" : "newobj",
					"numinlets" : 1,
					"numoutlets" : 4,
					"outlettype" : [ "", "", "", "" ],
					"patching_rect" : [ 464.725647, 552.0, 124.0, 22.0 ],
					"style" : "",
					"text" : "j.remote limiter/active"
				}

			}
, 			{
				"box" : 				{
					"color" : [ 0.831373, 0.54902, 0.839216, 1.0 ],
					"fontface" : 0,
					"fontname" : "Arial",
					"fontsize" : 12.0,
					"id" : "obj-40",
					"maxclass" : "newobj",
					"numinlets" : 1,
					"numoutlets" : 4,
					"outlettype" : [ "", "", "", "" ],
					"patching_rect" : [ 446.25, 300.0, 119.0, 22.0 ],
					"style" : "",
					"text" : "j.remote limiter/clear"
				}

			}
, 			{
				"box" : 				{
					"color" : [ 0.831373, 0.54902, 0.839216, 1.0 ],
					"fontface" : 0,
					"fontname" : "Arial",
					"fontsize" : 12.0,
					"id" : "obj-8",
					"maxclass" : "newobj",
					"numinlets" : 1,
					"numoutlets" : 4,
					"outlettype" : [ "", "", "", "" ],
					"patching_rect" : [ 727.25, 507.0, 179.0, 22.0 ],
					"style" : "",
					"text" : "j.remote limiter/dcblocker/active"
				}

			}
, 			{
				"box" : 				{
					"fontname" : "Arial",
					"fontsize" : 12.0,
					"id" : "obj-37",
					"maxclass" : "newobj",
					"numinlets" : 2,
					"numoutlets" : 2,
					"outlettype" : [ "", "" ],
					"patching_rect" : [ 740.0, 424.0, 139.0, 22.0 ],
					"style" : "",
					"text" : "substitute set setsymbol"
				}

			}
, 			{
				"box" : 				{
					"activedialcolor" : [ 0.882353, 0.988235, 1.0, 1.0 ],
					"activeneedlecolor" : [ 0.376471, 0.384314, 0.4, 1.0 ],
					"bordercolor" : [ 0.376471, 0.384314, 0.4, 1.0 ],
					"dialcolor" : [ 0.752941, 0.784314, 0.839216, 0.0 ],
					"focusbordercolor" : [ 0.882353, 0.988235, 1.0, 1.0 ],
					"fontface" : 0,
					"fontsize" : 9.0,
					"id" : "obj-27",
					"maxclass" : "live.dial",
					"needlecolor" : [ 0.321569, 0.321569, 0.321569, 0.0 ],
					"numinlets" : 1,
					"numoutlets" : 2,
					"outlettype" : [ "", "float" ],
					"parameter_enable" : 1,
					"patching_rect" : [ 659.75, 217.11438, 44.0, 45.0 ],
					"presentation" : 1,
					"presentation_rect" : [ 137.125809, 53.109116, 44.0, 45.0 ],
					"saved_attribute_attributes" : 					{
						"valueof" : 						{
							"parameter_longname" : "Threshold",
							"parameter_shortname" : "Threshold",
							"parameter_type" : 0,
							"parameter_mmin" : -48.0,
							"parameter_mmax" : 6.0,
							"parameter_unitstyle" : 9,
							"parameter_units" : "%.1f dB"
						}

					}
,
					"textcolor" : [ 0.882353, 0.988235, 1.0, 1.0 ],
					"tribordercolor" : [ 0.376471, 0.384314, 0.4, 1.0 ],
					"varname" : "live.dial[2]"
				}

			}
, 			{
				"box" : 				{
					"activedialcolor" : [ 0.882353, 0.988235, 1.0, 1.0 ],
					"activeneedlecolor" : [ 0.376471, 0.384314, 0.4, 1.0 ],
					"bordercolor" : [ 0.376471, 0.384314, 0.4, 1.0 ],
					"dialcolor" : [ 0.752941, 0.784314, 0.839216, 0.0 ],
					"focusbordercolor" : [ 0.882353, 0.988235, 1.0, 1.0 ],
					"fontface" : 0,
					"fontsize" : 9.0,
					"id" : "obj-4",
					"maxclass" : "live.dial",
					"needlecolor" : [ 0.321569, 0.321569, 0.321569, 0.0 ],
					"numinlets" : 1,
					"numoutlets" : 2,
					"outlettype" : [ "", "float" ],
					"parameter_enable" : 1,
					"patching_rect" : [ 663.0, 165.61438, 44.0, 45.0 ],
					"presentation" : 1,
					"presentation_rect" : [ 93.098785, 53.109116, 44.0, 45.0 ],
					"saved_attribute_attributes" : 					{
						"valueof" : 						{
							"parameter_longname" : "Postamp",
							"parameter_shortname" : "Postamp",
							"parameter_type" : 0,
							"parameter_mmin" : -6.0,
							"parameter_mmax" : 48.0,
							"parameter_unitstyle" : 9,
							"parameter_units" : "%.1f dB"
						}

					}
,
					"textcolor" : [ 0.882353, 0.988235, 1.0, 1.0 ],
					"tribordercolor" : [ 0.376471, 0.384314, 0.4, 1.0 ],
					"varname" : "live.dial[1]"
				}

			}
, 			{
				"box" : 				{
					"activedialcolor" : [ 0.882353, 0.988235, 1.0, 1.0 ],
					"activeneedlecolor" : [ 0.376471, 0.384314, 0.4, 1.0 ],
					"bordercolor" : [ 0.376471, 0.384314, 0.4, 1.0 ],
					"dialcolor" : [ 0.752941, 0.784314, 0.839216, 0.0 ],
					"focusbordercolor" : [ 0.882353, 0.988235, 1.0, 1.0 ],
					"fontface" : 0,
					"fontsize" : 9.0,
					"id" : "obj-13",
					"maxclass" : "live.dial",
					"needlecolor" : [ 0.321569, 0.321569, 0.321569, 0.0 ],
					"numinlets" : 1,
					"numoutlets" : 2,
					"outlettype" : [ "", "float" ],
					"parameter_enable" : 1,
					"patching_rect" : [ 656.75, 323.0, 44.0, 45.0 ],
					"presentation" : 1,
					"presentation_rect" : [ 229.179855, 53.109116, 44.0, 45.0 ],
					"saved_attribute_attributes" : 					{
						"valueof" : 						{
							"parameter_longname" : "Release",
							"parameter_shortname" : "Release",
							"parameter_type" : 0,
							"parameter_mmax" : 500.0,
							"parameter_unitstyle" : 2
						}

					}
,
					"textcolor" : [ 0.882353, 0.988235, 1.0, 1.0 ],
					"tribordercolor" : [ 0.376471, 0.384314, 0.4, 1.0 ],
					"varname" : "live.dial[4]"
				}

			}
, 			{
				"box" : 				{
					"activedialcolor" : [ 0.882353, 0.988235, 1.0, 1.0 ],
					"activeneedlecolor" : [ 0.376471, 0.384314, 0.4, 1.0 ],
					"bordercolor" : [ 0.376471, 0.384314, 0.4, 1.0 ],
					"dialcolor" : [ 0.752941, 0.784314, 0.839216, 0.0 ],
					"focusbordercolor" : [ 0.882353, 0.988235, 1.0, 1.0 ],
					"fontface" : 0,
					"fontsize" : 9.0,
					"id" : "obj-12",
					"maxclass" : "live.dial",
					"needlecolor" : [ 0.321569, 0.321569, 0.321569, 0.0 ],
					"numinlets" : 1,
					"numoutlets" : 2,
					"outlettype" : [ "", "float" ],
					"parameter_enable" : 1,
					"patching_rect" : [ 659.25, 269.61438, 44.0, 45.0 ],
					"presentation" : 1,
					"presentation_rect" : [ 181.152832, 53.109116, 48.0, 45.0 ],
					"saved_attribute_attributes" : 					{
						"valueof" : 						{
							"parameter_longname" : "Lookahead",
							"parameter_shortname" : "Lookahead",
							"parameter_type" : 0,
							"parameter_mmax" : 256.0,
							"parameter_unitstyle" : 9,
							"parameter_units" : "%ld samples"
						}

					}
,
					"textcolor" : [ 0.882353, 0.988235, 1.0, 1.0 ],
					"tribordercolor" : [ 0.376471, 0.384314, 0.4, 1.0 ],
					"varname" : "live.dial[3]"
				}

			}
, 			{
				"box" : 				{
					"activedialcolor" : [ 0.882353, 0.988235, 1.0, 1.0 ],
					"activeneedlecolor" : [ 0.376471, 0.384314, 0.4, 1.0 ],
					"bordercolor" : [ 0.376471, 0.384314, 0.4, 1.0 ],
					"dialcolor" : [ 0.752941, 0.784314, 0.839216, 0.0 ],
					"focusbordercolor" : [ 0.882353, 0.988235, 1.0, 1.0 ],
					"fontface" : 0,
					"fontsize" : 9.0,
					"id" : "obj-14",
					"maxclass" : "live.dial",
					"needlecolor" : [ 0.321569, 0.321569, 0.321569, 0.0 ],
					"numinlets" : 1,
					"numoutlets" : 2,
					"outlettype" : [ "", "float" ],
					"parameter_enable" : 1,
					"patching_rect" : [ 662.5, 114.209839, 44.0, 45.0 ],
					"presentation" : 1,
					"presentation_rect" : [ 49.071762, 53.109116, 44.0, 45.0 ],
					"saved_attribute_attributes" : 					{
						"valueof" : 						{
							"parameter_longname" : "Preamp",
							"parameter_shortname" : "Preamp",
							"parameter_type" : 0,
							"parameter_mmin" : -6.0,
							"parameter_mmax" : 48.0,
							"parameter_unitstyle" : 9,
							"parameter_units" : "%.1f dB"
						}

					}
,
					"textcolor" : [ 0.882353, 0.988235, 1.0, 1.0 ],
					"tribordercolor" : [ 0.376471, 0.384314, 0.4, 1.0 ],
					"varname" : "live.dial"
				}

			}
, 			{
				"box" : 				{
					"color" : [ 0.831373, 0.54902, 0.839216, 1.0 ],
					"fontface" : 0,
					"fontname" : "Arial",
					"fontsize" : 12.0,
					"id" : "obj-7",
					"maxclass" : "newobj",
					"numinlets" : 1,
					"numoutlets" : 4,
					"outlettype" : [ "", "", "", "" ],
					"patching_rect" : [ 740.0, 383.0, 123.0, 22.0 ],
					"style" : "",
					"text" : "j.remote limiter/mode",
					"varname" : "mode"
				}

			}
, 			{
				"box" : 				{
					"color" : [ 0.831373, 0.54902, 0.839216, 1.0 ],
					"fontface" : 0,
					"fontname" : "Arial",
					"fontsize" : 12.0,
					"id" : "obj-20",
					"maxclass" : "newobj",
					"numinlets" : 1,
					"numoutlets" : 4,
					"outlettype" : [ "", "", "", "" ],
					"patching_rect" : [ 708.75, 334.5, 132.0, 22.0 ],
					"style" : "",
					"text" : "j.remote limiter/release",
					"varname" : "release"
				}

			}
, 			{
				"box" : 				{
					"color" : [ 0.831373, 0.54902, 0.839216, 1.0 ],
					"fontface" : 0,
					"fontname" : "Arial",
					"fontsize" : 12.0,
					"id" : "obj-9",
					"maxclass" : "newobj",
					"numinlets" : 1,
					"numoutlets" : 4,
					"outlettype" : [ "", "", "", "" ],
					"patching_rect" : [ 723.0, 283.5, 148.0, 22.0 ],
					"style" : "",
					"text" : "j.remote limiter/lookahead",
					"varname" : "lookahead"
				}

			}
, 			{
				"box" : 				{
					"color" : [ 0.831373, 0.54902, 0.839216, 1.0 ],
					"fontface" : 0,
					"fontname" : "Arial",
					"fontsize" : 12.0,
					"id" : "obj-22",
					"maxclass" : "newobj",
					"numinlets" : 1,
					"numoutlets" : 4,
					"outlettype" : [ "", "", "", "" ],
					"patching_rect" : [ 708.75, 231.0, 142.0, 22.0 ],
					"style" : "",
					"text" : "j.remote limiter/threshold",
					"varname" : "threshold"
				}

			}
, 			{
				"box" : 				{
					"color" : [ 0.831373, 0.54902, 0.839216, 1.0 ],
					"fontface" : 0,
					"fontname" : "Arial",
					"fontsize" : 12.0,
					"id" : "obj-23",
					"maxclass" : "newobj",
					"numinlets" : 1,
					"numoutlets" : 4,
					"outlettype" : [ "", "", "", "" ],
					"patching_rect" : [ 718.0, 179.5, 139.0, 22.0 ],
					"style" : "",
					"text" : "j.remote limiter/postamp",
					"varname" : "postamp"
				}

			}
, 			{
				"box" : 				{
					"color" : [ 0.831373, 0.54902, 0.839216, 1.0 ],
					"fontface" : 0,
					"fontname" : "Arial",
					"fontsize" : 12.0,
					"id" : "obj-24",
					"maxclass" : "newobj",
					"numinlets" : 1,
					"numoutlets" : 4,
					"outlettype" : [ "", "", "", "" ],
					"patching_rect" : [ 718.0, 129.0, 133.0, 22.0 ],
					"style" : "",
					"text" : "j.remote limiter/preamp",
					"varname" : "preamp"
				}

			}
, 			{
				"box" : 				{
					"color" : [ 0.831373, 0.54902, 0.839216, 1.0 ],
					"fontname" : "Arial",
					"fontsize" : 12.0,
					"id" : "obj-18",
					"maxclass" : "newobj",
					"numinlets" : 1,
					"numoutlets" : 3,
					"outlettype" : [ "signal", "", "" ],
					"patching_rect" : [ 305.5, 514.5, 127.0, 22.0 ],
					"style" : "",
					"text" : "j.receive~ audio/out.R"
				}

			}
, 			{
				"box" : 				{
					"color" : [ 0.831373, 0.54902, 0.839216, 1.0 ],
					"fontname" : "Arial",
					"fontsize" : 12.0,
					"id" : "obj-21",
					"maxclass" : "newobj",
					"numinlets" : 1,
					"numoutlets" : 3,
					"outlettype" : [ "signal", "", "" ],
					"patching_rect" : [ 150.5, 514.5, 125.0, 22.0 ],
					"style" : "",
					"text" : "j.receive~ audio/out.L"
				}

			}
, 			{
				"box" : 				{
					"color" : [ 0.831373, 0.54902, 0.839216, 1.0 ],
					"id" : "obj-43",
					"maxclass" : "newobj",
					"numinlets" : 1,
					"numoutlets" : 4,
					"outlettype" : [ "", "", "", "" ],
					"patching_rect" : [ 397.25, 357.5, 149.0, 22.0 ],
					"style" : "",
					"text" : "j.remote distortion/amount"
				}

			}
, 			{
				"box" : 				{
					"color" : [ 0.804844, 0.527957, 0.824703, 1.0 ],
					"fontface" : 0,
					"fontname" : "Arial",
					"fontsize" : 12.0,
					"id" : "obj-63",
					"maxclass" : "newobj",
					"numinlets" : 1,
					"numoutlets" : 3,
					"outlettype" : [ "", "", "" ],
					"patching_rect" : [ 324.0, 99.5, 137.0, 22.0 ],
					"style" : "",
					"text" : "j.receive model:address"
				}

			}
, 			{
				"box" : 				{
					"comment" : "",
					"id" : "obj-5",
					"maxclass" : "outlet",
					"numinlets" : 1,
					"numoutlets" : 0,
					"patching_rect" : [ 10.0, 206.61438, 25.0, 25.0 ],
					"style" : ""
				}

			}
, 			{
				"box" : 				{
					"comment" : "",
					"id" : "obj-3",
					"maxclass" : "inlet",
					"numinlets" : 0,
					"numoutlets" : 1,
					"outlettype" : [ "" ],
					"patching_rect" : [ 10.0, 133.61438, 25.0, 25.0 ],
					"style" : ""
				}

			}
, 			{
				"box" : 				{
					"color" : [ 0.804844, 0.527957, 0.824703, 1.0 ],
					"fontname" : "Arial",
					"fontsize" : 12.0,
					"id" : "obj-1",
					"maxclass" : "newobj",
					"numinlets" : 1,
					"numoutlets" : 2,
					"outlettype" : [ "", "" ],
					"patching_rect" : [ 10.0, 173.61438, 281.0, 22.0 ],
					"style" : "",
					"text" : "j.view @description \"interface for hap video player\""
				}

			}
, 			{
				"box" : 				{
					"angle" : 270.0,
					"grad1" : [ 0.376471, 0.384314, 0.4, 1.0 ],
					"grad2" : [ 0.290196, 0.309804, 0.301961, 1.0 ],
					"id" : "obj-10",
					"maxclass" : "panel",
					"mode" : 1,
					"numinlets" : 1,
					"numoutlets" : 0,
					"patching_rect" : [ 306.0, 131.88501, 128.0, 128.0 ],
					"presentation" : 1,
					"presentation_rect" : [ 5.044739, 43.890831, 269.0, 55.609169 ],
					"proportion" : 0.39,
					"rounded" : 0,
					"style" : ""
				}

			}
, 			{
				"box" : 				{
					"bgcolor" : [ 0.526442, 0.540023, 0.568813, 1.0 ],
					"bordercolor" : [ 0.921569, 0.917647, 0.933333, 1.0 ],
					"fontface" : 0,
					"headercolor" : [ 0.290196, 0.309804, 0.301961, 1.0 ],
					"highlightcolor" : [ 0.803922, 0.529412, 0.823529, 1.0 ],
					"id" : "obj-6",
					"maxclass" : "j.ui",
					"numinlets" : 1,
					"numoutlets" : 1,
					"outlettype" : [ "" ],
					"patching_rect" : [ 10.0, 10.0, 300.0, 70.0 ],
					"presentation" : 1,
					"presentation_rect" : [ 0.0, -0.5, 300.0, 105.0 ],
					"text" : "/no_model_address",
					"textcolor" : [ 0.921569, 0.917647, 0.933333, 1.0 ]
				}

			}
 ],
		"lines" : [ 			{
				"patchline" : 				{
					"destination" : [ "obj-5", 0 ],
					"disabled" : 0,
					"hidden" : 0,
					"source" : [ "obj-1", 0 ]
				}

			}
, 			{
				"patchline" : 				{
					"destination" : [ "obj-43", 0 ],
					"disabled" : 0,
					"hidden" : 0,
					"source" : [ "obj-11", 0 ]
				}

			}
, 			{
				"patchline" : 				{
					"destination" : [ "obj-9", 0 ],
					"disabled" : 0,
					"hidden" : 0,
					"source" : [ "obj-12", 0 ]
				}

			}
, 			{
				"patchline" : 				{
					"destination" : [ "obj-20", 0 ],
					"disabled" : 0,
					"hidden" : 0,
					"source" : [ "obj-13", 0 ]
				}

			}
, 			{
				"patchline" : 				{
					"destination" : [ "obj-24", 0 ],
					"disabled" : 0,
					"hidden" : 0,
					"source" : [ "obj-14", 0 ]
				}

			}
, 			{
				"patchline" : 				{
					"destination" : [ "obj-15", 0 ],
					"disabled" : 0,
					"hidden" : 0,
					"source" : [ "obj-18", 0 ]
				}

			}
, 			{
				"patchline" : 				{
					"destination" : [ "obj-76", 0 ],
					"disabled" : 0,
					"hidden" : 0,
					"source" : [ "obj-2", 0 ]
				}

			}
, 			{
				"patchline" : 				{
					"destination" : [ "obj-13", 0 ],
					"disabled" : 0,
					"hidden" : 0,
					"source" : [ "obj-20", 0 ]
				}

			}
, 			{
				"patchline" : 				{
					"destination" : [ "obj-30", 0 ],
					"disabled" : 0,
					"hidden" : 0,
					"source" : [ "obj-21", 0 ]
				}

			}
, 			{
				"patchline" : 				{
					"destination" : [ "obj-27", 0 ],
					"disabled" : 0,
					"hidden" : 0,
					"source" : [ "obj-22", 0 ]
				}

			}
, 			{
				"patchline" : 				{
					"destination" : [ "obj-4", 0 ],
					"disabled" : 0,
					"hidden" : 0,
					"source" : [ "obj-23", 0 ]
				}

			}
, 			{
				"patchline" : 				{
					"destination" : [ "obj-14", 0 ],
					"disabled" : 0,
					"hidden" : 0,
					"source" : [ "obj-24", 0 ]
				}

			}
, 			{
				"patchline" : 				{
					"destination" : [ "obj-8", 0 ],
					"disabled" : 0,
					"hidden" : 0,
					"midpoints" : [ 736.75, 566.0, 718.0, 566.0, 718.0, 492.0, 736.75, 492.0 ],
					"source" : [ "obj-26", 0 ]
				}

			}
, 			{
				"patchline" : 				{
					"destination" : [ "obj-22", 0 ],
					"disabled" : 0,
					"hidden" : 0,
					"source" : [ "obj-27", 0 ]
				}

			}
, 			{
				"patchline" : 				{
					"destination" : [ "obj-1", 0 ],
					"disabled" : 0,
					"hidden" : 0,
					"source" : [ "obj-3", 0 ]
				}

			}
, 			{
				"patchline" : 				{
					"destination" : [ "obj-72", 0 ],
					"disabled" : 0,
					"hidden" : 0,
					"source" : [ "obj-37", 0 ]
				}

			}
, 			{
				"patchline" : 				{
					"destination" : [ "obj-23", 0 ],
					"disabled" : 0,
					"hidden" : 0,
					"source" : [ "obj-4", 0 ]
				}

			}
, 			{
				"patchline" : 				{
					"destination" : [ "obj-11", 0 ],
					"disabled" : 0,
					"hidden" : 0,
					"source" : [ "obj-43", 0 ]
				}

			}
, 			{
				"patchline" : 				{
					"destination" : [ "obj-40", 0 ],
					"disabled" : 0,
					"hidden" : 0,
					"source" : [ "obj-64", 0 ]
				}

			}
, 			{
				"patchline" : 				{
					"destination" : [ "obj-37", 0 ],
					"disabled" : 0,
					"hidden" : 0,
					"source" : [ "obj-7", 0 ]
				}

			}
, 			{
				"patchline" : 				{
					"destination" : [ "obj-7", 0 ],
					"disabled" : 0,
					"hidden" : 0,
					"midpoints" : [ 784.5, 488.0, 718.75, 488.0, 718.75, 370.0, 749.5, 370.0 ],
					"source" : [ "obj-72", 1 ]
				}

			}
, 			{
				"patchline" : 				{
					"destination" : [ "obj-2", 0 ],
					"disabled" : 0,
					"hidden" : 0,
					"midpoints" : [ 474.225647, 609.0, 446.625671, 609.0, 446.625671, 540.0, 474.225647, 540.0 ],
					"source" : [ "obj-76", 0 ]
				}

			}
, 			{
				"patchline" : 				{
					"destination" : [ "obj-26", 0 ],
					"disabled" : 0,
					"hidden" : 0,
					"source" : [ "obj-8", 0 ]
				}

			}
, 			{
				"patchline" : 				{
					"destination" : [ "obj-12", 0 ],
					"disabled" : 0,
					"hidden" : 0,
					"source" : [ "obj-9", 0 ]
				}

			}
 ],
		"parameters" : 		{
			"obj-27" : [ "Threshold", "Threshold", 0 ],
			"obj-4" : [ "Postamp", "Postamp", 0 ],
			"obj-13" : [ "Release", "Release", 0 ],
			"obj-11" : [ "distortion_amount", "Distortion", 0 ],
			"obj-12" : [ "Lookahead", "Lookahead", 0 ],
			"obj-14" : [ "Preamp", "Preamp", 0 ]
		}
,
		"dependency_cache" : [ 			{
				"name" : "j.ui.mxo",
				"type" : "iLaX"
			}
, 			{
				"name" : "j.view.mxo",
				"type" : "iLaX"
			}
, 			{
				"name" : "j.receive.mxo",
				"type" : "iLaX"
			}
, 			{
				"name" : "j.remote.mxo",
				"type" : "iLaX"
			}
, 			{
				"name" : "j.receive~.mxo",
				"type" : "iLaX"
			}
 ],
		"embedsnapshot" : 0,
		"styles" : [ 			{
				"name" : "AudioStatus_Menu",
				"default" : 				{
					"bgfillcolor" : 					{
						"type" : "color",
						"color" : [ 0.294118, 0.313726, 0.337255, 1 ],
						"color1" : [ 0.454902, 0.462745, 0.482353, 0.0 ],
						"color2" : [ 0.290196, 0.309804, 0.301961, 1.0 ],
						"angle" : 270.0,
						"proportion" : 0.39,
						"autogradient" : 0
					}

				}
,
				"parentstyle" : "",
				"multi" : 0
			}
, 			{
				"name" : "rdp-jamoma-style",
				"default" : 				{
					"bgcolor" : [ 1.0, 0.827451, 0.345098, 0.0 ],
					"fontface" : [ 0 ],
					"accentcolor" : [ 0.290196, 0.309804, 0.301961, 1.0 ],
					"selectioncolor" : [ 0.849573, 1.0, 0.926902, 1.0 ],
					"textcolor_inverse" : [ 0.290196, 0.309804, 0.301961, 1.0 ]
				}
,
				"parentstyle" : "",
				"multi" : 0
			}
 ]
	}

}
