{
	"patcher" : 	{
		"fileversion" : 1,
		"appversion" : 		{
			"major" : 7,
			"minor" : 3,
			"revision" : 1,
			"architecture" : "x64",
			"modernui" : 1
		}
,
		"rect" : [ 678.0, 178.0, 654.0, 579.0 ],
		"bglocked" : 0,
		"openinpresentation" : 1,
		"default_fontsize" : 12.0,
		"default_fontface" : 0,
		"default_fontname" : "Arial",
		"gridonopen" : 1,
		"gridsize" : [ 15.0, 15.0 ],
		"gridsnaponopen" : 1,
		"objectsnaponopen" : 1,
		"statusbarvisible" : 2,
		"toolbarvisible" : 1,
		"lefttoolbarpinned" : 0,
		"toptoolbarpinned" : 0,
		"righttoolbarpinned" : 0,
		"bottomtoolbarpinned" : 0,
		"toolbars_unpinned_last_save" : 0,
		"tallnewobj" : 0,
		"boxanimatetime" : 200,
		"enablehscroll" : 1,
		"enablevscroll" : 1,
		"devicewidth" : 0.0,
		"description" : "",
		"digest" : "",
		"tags" : "",
		"style" : "",
		"subpatcher_template" : "",
		"boxes" : [ 			{
				"box" : 				{
					"fontname" : "Arial",
					"fontsize" : 12.0,
					"id" : "obj-11",
					"maxclass" : "newobj",
					"numinlets" : 1,
					"numoutlets" : 0,
					"patcher" : 					{
						"fileversion" : 1,
						"appversion" : 						{
							"major" : 7,
							"minor" : 3,
							"revision" : 1,
							"architecture" : "x64",
							"modernui" : 1
						}
,
						"rect" : [ 142.0, 152.0, 249.0, 135.0 ],
						"bgcolor" : [ 0.878431, 0.878431, 0.858824, 1.0 ],
						"bglocked" : 0,
						"openinpresentation" : 1,
						"default_fontsize" : 12.0,
						"default_fontface" : 0,
						"default_fontname" : "Arial",
						"gridonopen" : 1,
						"gridsize" : [ 15.0, 15.0 ],
						"gridsnaponopen" : 1,
						"objectsnaponopen" : 1,
						"statusbarvisible" : 2,
						"toolbarvisible" : 0,
						"lefttoolbarpinned" : 0,
						"toptoolbarpinned" : 0,
						"righttoolbarpinned" : 0,
						"bottomtoolbarpinned" : 0,
						"toolbars_unpinned_last_save" : 0,
						"tallnewobj" : 0,
						"boxanimatetime" : 200,
						"enablehscroll" : 0,
						"enablevscroll" : 0,
						"devicewidth" : 0.0,
						"description" : "",
						"digest" : "",
						"tags" : "",
						"style" : "",
						"subpatcher_template" : "",
						"title" : "no_model_address",
						"boxes" : [ 							{
								"box" : 								{
									"bgcolor" : [ 0.54902, 0.545098, 0.552941, 0.0 ],
									"fontname" : "Arial",
									"fontsize" : 10.0,
									"id" : "obj-30",
									"maxclass" : "comment",
									"numinlets" : 1,
									"numoutlets" : 0,
									"patching_rect" : [ 40.0, 119.277779, 140.0, 18.0 ],
									"presentation" : 1,
									"presentation_rect" : [ 8.683289, 68.763885, 135.349686, 18.0 ],
									"style" : "",
									"text" : "Enable depth mode (3D)",
									"textcolor" : [ 0.882353, 0.988235, 1.0, 1.0 ]
								}

							}
, 							{
								"box" : 								{
									"fontsize" : 10.0,
									"id" : "obj-23",
									"maxclass" : "textbutton",
									"mode" : 1,
									"numinlets" : 1,
									"numoutlets" : 3,
									"outlettype" : [ "", "", "int" ],
									"parameter_enable" : 0,
									"patching_rect" : [ 629.0, 40.574158, 100.0, 20.0 ],
									"presentation" : 1,
									"presentation_rect" : [ 145.032974, 67.763885, 99.774353, 20.0 ],
									"style" : "",
									"text" : "Depth",
									"texton" : "Depth",
									"textoncolor" : [ 0.882353, 0.988235, 1.0, 1.0 ]
								}

							}
, 							{
								"box" : 								{
									"color" : [ 0.831373, 0.54902, 0.839216, 1.0 ],
									"id" : "obj-26",
									"maxclass" : "newobj",
									"numinlets" : 1,
									"numoutlets" : 4,
									"outlettype" : [ "", "", "", "" ],
									"patching_rect" : [ 727.666687, 40.574158, 127.0, 22.0 ],
									"style" : "",
									"text" : "j.remote depth/enable"
								}

							}
, 							{
								"box" : 								{
									"fontsize" : 10.0,
									"id" : "obj-17",
									"maxclass" : "comment",
									"numinlets" : 1,
									"numoutlets" : 0,
									"patching_rect" : [ 10.683289, 145.763885, 95.0, 18.0 ],
									"presentation" : 1,
									"presentation_rect" : [ 8.683289, 89.763885, 95.0, 18.0 ],
									"style" : "",
									"text" : "Blend type",
									"textcolor" : [ 0.882353, 0.988235, 1.0, 1.0 ]
								}

							}
, 							{
								"box" : 								{
									"fontsize" : 10.0,
									"id" : "obj-5",
									"maxclass" : "comment",
									"numinlets" : 1,
									"numoutlets" : 0,
									"patching_rect" : [ 9.683289, 128.763885, 95.0, 18.0 ],
									"presentation" : 1,
									"presentation_rect" : [ 8.683289, 47.763885, 95.0, 18.0 ],
									"style" : "",
									"text" : "Enable blend mode",
									"textcolor" : [ 0.882353, 0.988235, 1.0, 1.0 ]
								}

							}
, 							{
								"box" : 								{
									"fontsize" : 10.0,
									"id" : "obj-1",
									"maxclass" : "textbutton",
									"mode" : 1,
									"numinlets" : 1,
									"numoutlets" : 3,
									"outlettype" : [ "", "", "int" ],
									"parameter_enable" : 0,
									"patching_rect" : [ 632.394043, 213.5, 100.0, 20.0 ],
									"presentation" : 1,
									"presentation_rect" : [ 145.032974, 46.763885, 100.0, 20.0 ],
									"style" : "",
									"text" : "Blend",
									"texton" : "Blend",
									"textoncolor" : [ 0.882353, 0.988235, 1.0, 1.0 ]
								}

							}
, 							{
								"box" : 								{
									"color" : [ 0.804844, 0.527957, 0.824703, 1.0 ],
									"fontface" : 0,
									"fontname" : "Arial",
									"fontsize" : 12.0,
									"id" : "obj-90",
									"maxclass" : "newobj",
									"numinlets" : 1,
									"numoutlets" : 4,
									"outlettype" : [ "", "", "", "" ],
									"patching_rect" : [ 741.394043, 213.5, 126.0, 22.0 ],
									"style" : "",
									"text" : "j.remote blend/enable"
								}

							}
, 							{
								"box" : 								{
									"id" : "obj-63",
									"maxclass" : "newobj",
									"numinlets" : 1,
									"numoutlets" : 1,
									"outlettype" : [ "" ],
									"patching_rect" : [ 708.333313, 389.0, 112.0, 22.0 ],
									"style" : "",
									"text" : "prepend setsymbol"
								}

							}
, 							{
								"box" : 								{
									"color" : [ 0.831373, 0.54902, 0.839216, 1.0 ],
									"id" : "obj-54",
									"maxclass" : "newobj",
									"numinlets" : 1,
									"numoutlets" : 4,
									"outlettype" : [ "", "", "", "" ],
									"patching_rect" : [ 677.0, 358.0, 113.0, 22.0 ],
									"style" : "",
									"text" : "j.remote blend/type"
								}

							}
, 							{
								"box" : 								{
									"fontsize" : 10.0,
									"hint" : "",
									"id" : "obj-4",
									"items" : [ "add", ",", "multiply", ",", "screen", ",", "exclusion", ",", "colorblend", ",", "alphablend", ",", "coloradd", ",", "alphaadd" ],
									"maxclass" : "umenu",
									"numinlets" : 1,
									"numoutlets" : 3,
									"outlettype" : [ "int", "", "" ],
									"parameter_enable" : 0,
									"patching_rect" : [ 636.5, 322.0, 100.0, 20.0 ],
									"presentation" : 1,
									"presentation_rect" : [ 145.032974, 88.763885, 99.774353, 20.0 ],
									"style" : "",
									"textcolor" : [ 0.882353, 0.988235, 1.0, 1.0 ]
								}

							}
, 							{
								"box" : 								{
									"id" : "obj-19",
									"maxclass" : "button",
									"numinlets" : 1,
									"numoutlets" : 1,
									"outlettype" : [ "bang" ],
									"patching_rect" : [ 344.0, 56.0, 24.0, 24.0 ],
									"style" : ""
								}

							}
, 							{
								"box" : 								{
									"id" : "obj-16",
									"maxclass" : "newobj",
									"numinlets" : 1,
									"numoutlets" : 1,
									"outlettype" : [ "int" ],
									"patching_rect" : [ 344.0, 27.574158, 42.0, 22.0 ],
									"style" : "",
									"text" : "active"
								}

							}
, 							{
								"box" : 								{
									"fontsize" : 10.0,
									"id" : "obj-15",
									"maxclass" : "comment",
									"numinlets" : 1,
									"numoutlets" : 0,
									"patching_rect" : [ 510.683289, 70.5, 95.0, 18.0 ],
									"presentation" : 1,
									"presentation_rect" : [ 8.683289, 110.763885, 95.0, 18.0 ],
									"style" : "",
									"text" : "Color mode",
									"textcolor" : [ 0.882353, 0.988235, 1.0, 1.0 ]
								}

							}
, 							{
								"box" : 								{
									"fontsize" : 10.0,
									"id" : "obj-14",
									"maxclass" : "comment",
									"numinlets" : 1,
									"numoutlets" : 0,
									"patching_rect" : [ 510.683289, 48.0, 95.0, 18.0 ],
									"presentation" : 1,
									"presentation_rect" : [ 8.683289, 26.763885, 95.0, 18.0 ],
									"style" : "",
									"text" : "Enable anti-alias",
									"textcolor" : [ 0.882353, 0.988235, 1.0, 1.0 ]
								}

							}
, 							{
								"box" : 								{
									"id" : "obj-12",
									"maxclass" : "newobj",
									"numinlets" : 1,
									"numoutlets" : 1,
									"outlettype" : [ "" ],
									"patching_rect" : [ 357.833313, 379.0, 112.0, 22.0 ],
									"style" : "",
									"text" : "prepend setsymbol"
								}

							}
, 							{
								"box" : 								{
									"color" : [ 0.831373, 0.54902, 0.839216, 1.0 ],
									"id" : "obj-11",
									"maxclass" : "newobj",
									"numinlets" : 1,
									"numoutlets" : 4,
									"outlettype" : [ "", "", "", "" ],
									"patching_rect" : [ 326.5, 350.0, 113.0, 22.0 ],
									"style" : "",
									"text" : "j.remote colormode"
								}

							}
, 							{
								"box" : 								{
									"fontsize" : 10.0,
									"hint" : "",
									"id" : "obj-38",
									"items" : [ "argb", ",", "uyvy" ],
									"maxclass" : "umenu",
									"numinlets" : 1,
									"numoutlets" : 3,
									"outlettype" : [ "int", "", "" ],
									"parameter_enable" : 0,
									"patching_rect" : [ 207.5, 350.0, 100.0, 20.0 ],
									"presentation" : 1,
									"presentation_rect" : [ 145.032974, 109.763885, 99.774353, 20.0 ],
									"style" : "",
									"textcolor" : [ 0.882353, 0.988235, 1.0, 1.0 ]
								}

							}
, 							{
								"box" : 								{
									"fontsize" : 10.0,
									"id" : "obj-34",
									"maxclass" : "comment",
									"numinlets" : 1,
									"numoutlets" : 0,
									"patching_rect" : [ 510.683289, 90.5, 95.0, 18.0 ],
									"presentation" : 1,
									"presentation_rect" : [ 8.683289, 4.763885, 95.0, 18.0 ],
									"style" : "",
									"text" : "Enable slab",
									"textcolor" : [ 0.882353, 0.988235, 1.0, 1.0 ]
								}

							}
, 							{
								"box" : 								{
									"angle" : 270.0,
									"grad1" : [ 0.376471, 0.384314, 0.4, 1.0 ],
									"grad2" : [ 0.290196, 0.309804, 0.301961, 1.0 ],
									"id" : "obj-37",
									"maxclass" : "panel",
									"mode" : 1,
									"numinlets" : 1,
									"numoutlets" : 0,
									"patching_rect" : [ 410.0, 86.0, 63.0, 53.0 ],
									"presentation" : 1,
									"presentation_rect" : [ 4.0, 4.763885, 140.032974, 125.0 ],
									"proportion" : 0.39,
									"rounded" : 0,
									"style" : ""
								}

							}
, 							{
								"box" : 								{
									"color" : [ 0.831373, 0.54902, 0.839216, 1.0 ],
									"id" : "obj-3",
									"maxclass" : "newobj",
									"numinlets" : 1,
									"numoutlets" : 4,
									"outlettype" : [ "", "", "", "" ],
									"patching_rect" : [ 278.0, 474.0, 101.0, 22.0 ],
									"style" : "",
									"text" : "j.remote antialias"
								}

							}
, 							{
								"box" : 								{
									"fontsize" : 10.0,
									"id" : "obj-7",
									"maxclass" : "textbutton",
									"mode" : 1,
									"numinlets" : 1,
									"numoutlets" : 3,
									"outlettype" : [ "", "", "int" ],
									"parameter_enable" : 0,
									"patching_rect" : [ 166.416626, 474.0, 100.0, 20.0 ],
									"presentation" : 1,
									"presentation_rect" : [ 145.032974, 25.763885, 99.774353, 20.0 ],
									"style" : "",
									"text" : "Antialias",
									"texton" : "Antialias",
									"textoncolor" : [ 0.882353, 0.988235, 1.0, 1.0 ]
								}

							}
, 							{
								"box" : 								{
									"color" : [ 0.831373, 0.54902, 0.839216, 1.0 ],
									"id" : "obj-13",
									"maxclass" : "newobj",
									"numinlets" : 1,
									"numoutlets" : 4,
									"outlettype" : [ "", "", "", "" ],
									"patching_rect" : [ 278.0, 434.0, 93.0, 22.0 ],
									"style" : "",
									"text" : "j.remote enable"
								}

							}
, 							{
								"box" : 								{
									"fontsize" : 10.0,
									"id" : "obj-51",
									"maxclass" : "textbutton",
									"mode" : 1,
									"numinlets" : 1,
									"numoutlets" : 3,
									"outlettype" : [ "", "", "int" ],
									"parameter_enable" : 0,
									"patching_rect" : [ 166.416626, 434.0, 100.0, 20.0 ],
									"presentation" : 1,
									"presentation_rect" : [ 145.032974, 4.763885, 99.774353, 20.0 ],
									"style" : "",
									"text" : "Enable",
									"texton" : "Enable",
									"textoncolor" : [ 0.882353, 0.988235, 1.0, 1.0 ]
								}

							}
, 							{
								"box" : 								{
									"comment" : "",
									"id" : "obj-2",
									"maxclass" : "inlet",
									"numinlets" : 0,
									"numoutlets" : 1,
									"outlettype" : [ "" ],
									"patching_rect" : [ 23.0, 100.0, 25.0, 25.0 ],
									"style" : ""
								}

							}
, 							{
								"box" : 								{
									"angle" : 273.179077,
									"grad1" : [ 0.52549, 0.541176, 0.568627, 1.0 ],
									"grad2" : [ 0.52549, 0.541176, 0.568627, 1.0 ],
									"id" : "obj-9",
									"maxclass" : "panel",
									"mode" : 1,
									"numinlets" : 1,
									"numoutlets" : 0,
									"patching_rect" : [ 168.833328, 14.574158, 73.0, 48.0 ],
									"presentation" : 1,
									"presentation_rect" : [ 0.0, 0.263885, 253.774353, 135.611115 ],
									"proportion" : 0.39,
									"pt1" : [ 0.49505, 0.86087 ],
									"pt2" : [ 0.5, 0.95 ],
									"rounded" : 0,
									"style" : ""
								}

							}
 ],
						"lines" : [ 							{
								"patchline" : 								{
									"destination" : [ "obj-90", 0 ],
									"disabled" : 0,
									"hidden" : 0,
									"source" : [ "obj-1", 0 ]
								}

							}
, 							{
								"patchline" : 								{
									"destination" : [ "obj-12", 0 ],
									"disabled" : 0,
									"hidden" : 0,
									"source" : [ "obj-11", 1 ]
								}

							}
, 							{
								"patchline" : 								{
									"destination" : [ "obj-38", 0 ],
									"disabled" : 0,
									"hidden" : 0,
									"source" : [ "obj-12", 0 ]
								}

							}
, 							{
								"patchline" : 								{
									"destination" : [ "obj-51", 0 ],
									"disabled" : 0,
									"hidden" : 0,
									"source" : [ "obj-13", 0 ]
								}

							}
, 							{
								"patchline" : 								{
									"destination" : [ "obj-19", 0 ],
									"disabled" : 0,
									"hidden" : 0,
									"source" : [ "obj-16", 0 ]
								}

							}
, 							{
								"patchline" : 								{
									"destination" : [ "obj-26", 0 ],
									"disabled" : 0,
									"hidden" : 0,
									"source" : [ "obj-23", 0 ]
								}

							}
, 							{
								"patchline" : 								{
									"destination" : [ "obj-23", 0 ],
									"disabled" : 0,
									"hidden" : 0,
									"source" : [ "obj-26", 0 ]
								}

							}
, 							{
								"patchline" : 								{
									"destination" : [ "obj-7", 0 ],
									"disabled" : 0,
									"hidden" : 0,
									"source" : [ "obj-3", 0 ]
								}

							}
, 							{
								"patchline" : 								{
									"destination" : [ "obj-11", 0 ],
									"disabled" : 0,
									"hidden" : 0,
									"source" : [ "obj-38", 1 ]
								}

							}
, 							{
								"patchline" : 								{
									"destination" : [ "obj-54", 0 ],
									"disabled" : 0,
									"hidden" : 0,
									"source" : [ "obj-4", 1 ]
								}

							}
, 							{
								"patchline" : 								{
									"destination" : [ "obj-13", 0 ],
									"disabled" : 0,
									"hidden" : 0,
									"source" : [ "obj-51", 0 ]
								}

							}
, 							{
								"patchline" : 								{
									"destination" : [ "obj-63", 0 ],
									"disabled" : 0,
									"hidden" : 0,
									"source" : [ "obj-54", 1 ]
								}

							}
, 							{
								"patchline" : 								{
									"destination" : [ "obj-4", 0 ],
									"disabled" : 0,
									"hidden" : 0,
									"midpoints" : [ 717.833313, 420.0, 623.0, 420.0, 623.0, 309.0, 646.0, 309.0 ],
									"source" : [ "obj-63", 0 ]
								}

							}
, 							{
								"patchline" : 								{
									"destination" : [ "obj-3", 0 ],
									"disabled" : 0,
									"hidden" : 0,
									"source" : [ "obj-7", 0 ]
								}

							}
, 							{
								"patchline" : 								{
									"destination" : [ "obj-1", 0 ],
									"disabled" : 0,
									"hidden" : 0,
									"source" : [ "obj-90", 0 ]
								}

							}
 ],
						"styles" : [ 							{
								"name" : "AudioStatus_Menu",
								"default" : 								{
									"bgfillcolor" : 									{
										"type" : "color",
										"color" : [ 0.294118, 0.313726, 0.337255, 1 ],
										"color1" : [ 0.454902, 0.462745, 0.482353, 0.0 ],
										"color2" : [ 0.290196, 0.309804, 0.301961, 1.0 ],
										"angle" : 270.0,
										"proportion" : 0.39,
										"autogradient" : 0
									}

								}
,
								"parentstyle" : "",
								"multi" : 0
							}
, 							{
								"name" : "rdp-jamoma-style",
								"default" : 								{
									"selectioncolor" : [ 0.849573, 1.0, 0.926902, 1.0 ],
									"bgcolor" : [ 1.0, 0.827451, 0.345098, 0.0 ],
									"fontface" : [ 0 ],
									"textcolor_inverse" : [ 0.290196, 0.309804, 0.301961, 1.0 ],
									"accentcolor" : [ 0.290196, 0.309804, 0.301961, 1.0 ]
								}
,
								"parentstyle" : "",
								"multi" : 0
							}
 ]
					}
,
					"patching_rect" : [ 7.0, 88.61438, 50.0, 22.0 ],
					"saved_object_attributes" : 					{
						"description" : "",
						"digest" : "",
						"globalpatchername" : "",
						"style" : "",
						"tags" : ""
					}
,
					"style" : "",
					"text" : "p panel"
				}

			}
, 			{
				"box" : 				{
					"activedialcolor" : [ 0.882353, 0.988235, 1.0, 1.0 ],
					"activeneedlecolor" : [ 0.376471, 0.384314, 0.4, 1.0 ],
					"bordercolor" : [ 0.376471, 0.384314, 0.4, 0.0 ],
					"focusbordercolor" : [ 0.882353, 0.988235, 1.0, 1.0 ],
					"fontface" : 0,
					"fontsize" : 9.0,
					"id" : "obj-16",
					"maxclass" : "live.dial",
					"numinlets" : 1,
					"numoutlets" : 2,
					"outlettype" : [ "", "float" ],
					"parameter_enable" : 1,
					"patching_rect" : [ 345.5, 264.61438, 44.0, 45.0 ],
					"presentation" : 1,
					"presentation_rect" : [ 241.264297, 21.5, 44.0, 45.0 ],
					"saved_attribute_attributes" : 					{
						"valueof" : 						{
							"parameter_longname" : "Alpha",
							"parameter_shortname" : "Alpha",
							"parameter_type" : 0,
							"parameter_mmin" : -10.0,
							"parameter_mmax" : 10.0,
							"parameter_unitstyle" : 1
						}

					}
,
					"textcolor" : [ 0.882353, 0.988235, 1.0, 1.0 ],
					"tribordercolor" : [ 0.376471, 0.384314, 0.4, 1.0 ],
					"varname" : "Alpha"
				}

			}
, 			{
				"box" : 				{
					"activedialcolor" : [ 0.882353, 0.988235, 1.0, 1.0 ],
					"activeneedlecolor" : [ 0.376471, 0.384314, 0.4, 1.0 ],
					"bordercolor" : [ 0.376471, 0.384314, 0.4, 0.0 ],
					"focusbordercolor" : [ 0.882353, 0.988235, 1.0, 1.0 ],
					"fontface" : 0,
					"fontsize" : 9.0,
					"id" : "obj-15",
					"maxclass" : "live.dial",
					"numinlets" : 1,
					"numoutlets" : 2,
					"outlettype" : [ "", "float" ],
					"parameter_enable" : 1,
					"patching_rect" : [ 345.5, 207.61438, 44.0, 45.0 ],
					"presentation" : 1,
					"presentation_rect" : [ 165.110397, 21.5, 44.0, 45.0 ],
					"saved_attribute_attributes" : 					{
						"valueof" : 						{
							"parameter_longname" : "Saturation",
							"parameter_shortname" : "Saturation",
							"parameter_type" : 0,
							"parameter_mmin" : -10.0,
							"parameter_mmax" : 10.0,
							"parameter_unitstyle" : 1
						}

					}
,
					"textcolor" : [ 0.882353, 0.988235, 1.0, 1.0 ],
					"tribordercolor" : [ 0.376471, 0.384314, 0.4, 1.0 ],
					"varname" : "Saturation"
				}

			}
, 			{
				"box" : 				{
					"activedialcolor" : [ 0.882353, 0.988235, 1.0, 1.0 ],
					"activeneedlecolor" : [ 0.376471, 0.384314, 0.4, 1.0 ],
					"bordercolor" : [ 0.376471, 0.384314, 0.4, 0.0 ],
					"focusbordercolor" : [ 0.882353, 0.988235, 1.0, 1.0 ],
					"fontface" : 0,
					"fontsize" : 9.0,
					"id" : "obj-14",
					"maxclass" : "live.dial",
					"numinlets" : 1,
					"numoutlets" : 2,
					"outlettype" : [ "", "float" ],
					"parameter_enable" : 1,
					"patching_rect" : [ 345.5, 148.61438, 44.0, 45.0 ],
					"presentation" : 1,
					"presentation_rect" : [ 88.956512, 21.5, 44.0, 45.0 ],
					"saved_attribute_attributes" : 					{
						"valueof" : 						{
							"parameter_longname" : "Brightness",
							"parameter_shortname" : "Brightness",
							"parameter_type" : 0,
							"parameter_mmin" : -10.0,
							"parameter_mmax" : 10.0,
							"parameter_unitstyle" : 1
						}

					}
,
					"textcolor" : [ 0.882353, 0.988235, 1.0, 1.0 ],
					"tribordercolor" : [ 0.376471, 0.384314, 0.4, 1.0 ],
					"varname" : "Brightness"
				}

			}
, 			{
				"box" : 				{
					"activedialcolor" : [ 0.882353, 0.988235, 1.0, 1.0 ],
					"activeneedlecolor" : [ 0.376471, 0.384314, 0.4, 1.0 ],
					"bordercolor" : [ 0.376471, 0.384314, 0.4, 0.0 ],
					"focusbordercolor" : [ 0.882353, 0.988235, 1.0, 1.0 ],
					"fontface" : 0,
					"fontsize" : 9.0,
					"id" : "obj-32",
					"maxclass" : "live.dial",
					"numinlets" : 1,
					"numoutlets" : 2,
					"outlettype" : [ "", "float" ],
					"parameter_enable" : 1,
					"patching_rect" : [ 345.5, 88.61438, 44.0, 45.0 ],
					"presentation" : 1,
					"presentation_rect" : [ 12.80262, 21.5, 44.0, 45.0 ],
					"saved_attribute_attributes" : 					{
						"valueof" : 						{
							"parameter_longname" : "contrast",
							"parameter_shortname" : "Contrast",
							"parameter_type" : 0,
							"parameter_mmin" : -10.0,
							"parameter_mmax" : 10.0,
							"parameter_unitstyle" : 1
						}

					}
,
					"textcolor" : [ 0.882353, 0.988235, 1.0, 1.0 ],
					"tribordercolor" : [ 0.376471, 0.384314, 0.4, 1.0 ],
					"varname" : "contrast"
				}

			}
, 			{
				"box" : 				{
					"color" : [ 0.831373, 0.54902, 0.839216, 1.0 ],
					"id" : "obj-12",
					"maxclass" : "newobj",
					"numinlets" : 1,
					"numoutlets" : 4,
					"outlettype" : [ "", "", "", "" ],
					"patching_rect" : [ 426.0, 279.61438, 87.0, 22.0 ],
					"style" : "",
					"text" : "j.remote alpha"
				}

			}
, 			{
				"box" : 				{
					"color" : [ 0.831373, 0.54902, 0.839216, 1.0 ],
					"id" : "obj-10",
					"maxclass" : "newobj",
					"numinlets" : 1,
					"numoutlets" : 4,
					"outlettype" : [ "", "", "", "" ],
					"patching_rect" : [ 426.0, 215.11438, 110.0, 22.0 ],
					"style" : "",
					"text" : "j.remote saturation"
				}

			}
, 			{
				"box" : 				{
					"color" : [ 0.831373, 0.54902, 0.839216, 1.0 ],
					"id" : "obj-9",
					"maxclass" : "newobj",
					"numinlets" : 1,
					"numoutlets" : 4,
					"outlettype" : [ "", "", "", "" ],
					"patching_rect" : [ 426.0, 156.61438, 113.0, 22.0 ],
					"style" : "",
					"text" : "j.remote brightness"
				}

			}
, 			{
				"box" : 				{
					"color" : [ 0.831373, 0.54902, 0.839216, 1.0 ],
					"id" : "obj-8",
					"maxclass" : "newobj",
					"numinlets" : 1,
					"numoutlets" : 4,
					"outlettype" : [ "", "", "", "" ],
					"patching_rect" : [ 426.0, 92.61438, 100.0, 22.0 ],
					"style" : "",
					"text" : "j.remote contrast"
				}

			}
, 			{
				"box" : 				{
					"comment" : "",
					"id" : "obj-5",
					"maxclass" : "outlet",
					"numinlets" : 1,
					"numoutlets" : 0,
					"patching_rect" : [ 2.0, 198.61438, 25.0, 25.0 ],
					"style" : ""
				}

			}
, 			{
				"box" : 				{
					"comment" : "",
					"id" : "obj-3",
					"maxclass" : "inlet",
					"numinlets" : 0,
					"numoutlets" : 1,
					"outlettype" : [ "" ],
					"patching_rect" : [ 2.0, 129.61438, 25.0, 25.0 ],
					"style" : ""
				}

			}
, 			{
				"box" : 				{
					"color" : [ 0.804844, 0.527957, 0.824703, 1.0 ],
					"fontface" : 0,
					"fontname" : "Arial",
					"fontsize" : 12.0,
					"id" : "obj-1",
					"maxclass" : "newobj",
					"numinlets" : 1,
					"numoutlets" : 2,
					"outlettype" : [ "", "" ],
					"patching_rect" : [ 2.0, 167.61438, 229.0, 22.0 ],
					"style" : "",
					"text" : "j.view @description \"interface for brcosa\""
				}

			}
, 			{
				"box" : 				{
					"bgcolor" : [ 0.290196, 0.309804, 0.301961, 1.0 ],
					"bordercolor" : [ 0.921569, 0.917647, 0.933333, 1.0 ],
					"fontface" : 0,
					"headercolor" : [ 0.290196, 0.309804, 0.301961, 1.0 ],
					"highlightcolor" : [ 0.803922, 0.529412, 0.823529, 1.0 ],
					"id" : "obj-2",
					"maxclass" : "j.ui",
					"numinlets" : 1,
					"numoutlets" : 1,
					"outlettype" : [ "" ],
					"patching_rect" : [ 7.0, 5.5, 300.0, 70.0 ],
					"presentation" : 1,
					"presentation_rect" : [ 0.0, -0.5, 300.0, 70.0 ],
					"text" : "/no_model_address",
					"textcolor" : [ 0.921569, 0.917647, 0.933333, 1.0 ]
				}

			}
 ],
		"lines" : [ 			{
				"patchline" : 				{
					"destination" : [ "obj-5", 0 ],
					"disabled" : 0,
					"hidden" : 0,
					"source" : [ "obj-1", 0 ]
				}

			}
, 			{
				"patchline" : 				{
					"destination" : [ "obj-15", 0 ],
					"disabled" : 0,
					"hidden" : 0,
					"source" : [ "obj-10", 0 ]
				}

			}
, 			{
				"patchline" : 				{
					"destination" : [ "obj-16", 0 ],
					"disabled" : 0,
					"hidden" : 0,
					"source" : [ "obj-12", 0 ]
				}

			}
, 			{
				"patchline" : 				{
					"destination" : [ "obj-9", 0 ],
					"disabled" : 0,
					"hidden" : 0,
					"source" : [ "obj-14", 0 ]
				}

			}
, 			{
				"patchline" : 				{
					"destination" : [ "obj-10", 0 ],
					"disabled" : 0,
					"hidden" : 0,
					"source" : [ "obj-15", 0 ]
				}

			}
, 			{
				"patchline" : 				{
					"destination" : [ "obj-12", 0 ],
					"disabled" : 0,
					"hidden" : 0,
					"source" : [ "obj-16", 0 ]
				}

			}
, 			{
				"patchline" : 				{
					"destination" : [ "obj-11", 0 ],
					"disabled" : 0,
					"hidden" : 0,
					"source" : [ "obj-2", 0 ]
				}

			}
, 			{
				"patchline" : 				{
					"destination" : [ "obj-1", 0 ],
					"disabled" : 0,
					"hidden" : 0,
					"source" : [ "obj-3", 0 ]
				}

			}
, 			{
				"patchline" : 				{
					"destination" : [ "obj-8", 0 ],
					"disabled" : 0,
					"hidden" : 0,
					"source" : [ "obj-32", 0 ]
				}

			}
, 			{
				"patchline" : 				{
					"destination" : [ "obj-32", 0 ],
					"disabled" : 0,
					"hidden" : 0,
					"source" : [ "obj-8", 0 ]
				}

			}
, 			{
				"patchline" : 				{
					"destination" : [ "obj-14", 0 ],
					"disabled" : 0,
					"hidden" : 0,
					"source" : [ "obj-9", 0 ]
				}

			}
 ],
		"parameters" : 		{
			"obj-15" : [ "Saturation", "Saturation", 0 ],
			"obj-32" : [ "contrast", "Contrast", 0 ],
			"obj-14" : [ "Brightness", "Brightness", 0 ],
			"obj-16" : [ "Alpha", "Alpha", 0 ]
		}
,
		"dependency_cache" : [ 			{
				"name" : "j.ui.mxo",
				"type" : "iLaX"
			}
, 			{
				"name" : "j.view.mxo",
				"type" : "iLaX"
			}
, 			{
				"name" : "j.remote.mxo",
				"type" : "iLaX"
			}
 ],
		"autosave" : 0,
		"styles" : [ 			{
				"name" : "AudioStatus_Menu",
				"default" : 				{
					"bgfillcolor" : 					{
						"type" : "color",
						"color" : [ 0.294118, 0.313726, 0.337255, 1 ],
						"color1" : [ 0.454902, 0.462745, 0.482353, 0.0 ],
						"color2" : [ 0.290196, 0.309804, 0.301961, 1.0 ],
						"angle" : 270.0,
						"proportion" : 0.39,
						"autogradient" : 0
					}

				}
,
				"parentstyle" : "",
				"multi" : 0
			}
, 			{
				"name" : "Jamoma_highlighted_orange",
				"default" : 				{
					"accentcolor" : [ 1.0, 0.5, 0.0, 1.0 ]
				}
,
				"parentstyle" : "",
				"multi" : 0
			}
, 			{
				"name" : "buttonGreen-1",
				"default" : 				{
					"bgcolor" : [ 0.043137, 0.364706, 0.094118, 1.0 ]
				}
,
				"parentstyle" : "",
				"multi" : 0
			}
, 			{
				"name" : "jpatcher001",
				"parentstyle" : "",
				"multi" : 0
			}
, 			{
				"name" : "messageGreen-1",
				"default" : 				{
					"bgfillcolor" : 					{
						"type" : "gradient",
						"color" : [ 0.290196, 0.309804, 0.301961, 1.0 ],
						"color1" : [ 0.165741, 0.364658, 0.14032, 0.74 ],
						"color2" : [ 0.290196, 0.309804, 0.301961, 1.0 ],
						"angle" : 270.0,
						"proportion" : 0.39,
						"autogradient" : 0
					}

				}
,
				"parentstyle" : "",
				"multi" : 0
			}
, 			{
				"name" : "messagegold",
				"default" : 				{
					"bgfillcolor" : 					{
						"type" : "gradient",
						"color" : [ 0.290196, 0.309804, 0.301961, 1.0 ],
						"color1" : [ 0.764706, 0.592157, 0.101961, 0.74 ],
						"color2" : [ 0.290196, 0.309804, 0.301961, 1.0 ],
						"angle" : 270.0,
						"proportion" : 0.39,
						"autogradient" : 0
					}

				}
,
				"parentstyle" : "",
				"multi" : 0
			}
, 			{
				"name" : "newobj001-mh",
				"parentstyle" : "",
				"multi" : 0
			}
, 			{
				"name" : "newobjBlue-1",
				"default" : 				{
					"accentcolor" : [ 0.317647, 0.654902, 0.976471, 1.0 ]
				}
,
				"parentstyle" : "",
				"multi" : 0
			}
, 			{
				"name" : "newobjYellow-1",
				"default" : 				{
					"fontsize" : [ 12.059008 ],
					"accentcolor" : [ 0.82517, 0.78181, 0.059545, 1.0 ]
				}
,
				"parentstyle" : "",
				"multi" : 0
			}
, 			{
				"name" : "numberGold-1",
				"default" : 				{
					"accentcolor" : [ 0.764706, 0.592157, 0.101961, 1.0 ]
				}
,
				"parentstyle" : "",
				"multi" : 0
			}
, 			{
				"name" : "rdp-jamoma-style",
				"default" : 				{
					"selectioncolor" : [ 0.849573, 1.0, 0.926902, 1.0 ],
					"bgcolor" : [ 1.0, 0.827451, 0.345098, 0.0 ],
					"fontface" : [ 0 ],
					"textcolor_inverse" : [ 0.290196, 0.309804, 0.301961, 1.0 ],
					"accentcolor" : [ 0.290196, 0.309804, 0.301961, 1.0 ]
				}
,
				"parentstyle" : "",
				"multi" : 0
			}
, 			{
				"name" : "tap",
				"default" : 				{
					"fontname" : [ "Lato Light" ]
				}
,
				"parentstyle" : "",
				"multi" : 0
			}
 ]
	}

}
