{
	"patcher" : 	{
		"fileversion" : 1,
		"appversion" : 		{
			"major" : 7,
			"minor" : 0,
			"revision" : 1,
			"architecture" : "x86",
			"modernui" : 1
		}
,
		"rect" : [ 282.0, 163.0, 732.0, 668.0 ],
		"bglocked" : 0,
		"openinpresentation" : 1,
		"default_fontsize" : 12.0,
		"default_fontface" : 0,
		"default_fontname" : "Arial",
		"gridonopen" : 1,
		"gridsize" : [ 15.0, 15.0 ],
		"gridsnaponopen" : 1,
		"objectsnaponopen" : 1,
		"statusbarvisible" : 2,
		"toolbarvisible" : 1,
		"lefttoolbarpinned" : 0,
		"toptoolbarpinned" : 0,
		"righttoolbarpinned" : 0,
		"bottomtoolbarpinned" : 0,
		"toolbars_unpinned_last_save" : 0,
		"tallnewobj" : 0,
		"boxanimatetime" : 200,
		"enablehscroll" : 1,
		"enablevscroll" : 1,
		"devicewidth" : 0.0,
		"description" : "",
		"digest" : "",
		"tags" : "",
		"style" : "",
		"subpatcher_template" : "",
		"boxes" : [ 			{
				"box" : 				{
					"id" : "obj-76",
					"maxclass" : "newobj",
					"numinlets" : 1,
					"numoutlets" : 1,
					"outlettype" : [ "" ],
					"patcher" : 					{
						"fileversion" : 1,
						"appversion" : 						{
							"major" : 7,
							"minor" : 0,
							"revision" : 1,
							"architecture" : "x86",
							"modernui" : 1
						}
,
						"rect" : [ 34.0, 79.0, 244.0, 238.0 ],
						"bglocked" : 0,
						"openinpresentation" : 1,
						"default_fontsize" : 12.0,
						"default_fontface" : 0,
						"default_fontname" : "Arial",
						"gridonopen" : 1,
						"gridsize" : [ 15.0, 15.0 ],
						"gridsnaponopen" : 1,
						"objectsnaponopen" : 1,
						"statusbarvisible" : 2,
						"toolbarvisible" : 0,
						"lefttoolbarpinned" : 0,
						"toptoolbarpinned" : 0,
						"righttoolbarpinned" : 0,
						"bottomtoolbarpinned" : 0,
						"toolbars_unpinned_last_save" : 0,
						"tallnewobj" : 0,
						"boxanimatetime" : 200,
						"enablehscroll" : 0,
						"enablevscroll" : 0,
						"devicewidth" : 0.0,
						"description" : "",
						"digest" : "",
						"tags" : "",
						"style" : "",
						"subpatcher_template" : "",
						"title" : "no_model_address",
						"boxes" : [ 							{
								"box" : 								{
									"fontsize" : 10.0,
									"id" : "obj-41",
									"maxclass" : "comment",
									"numinlets" : 1,
									"numoutlets" : 0,
									"patching_rect" : [ 179.0, 368.11438, 95.0, 18.0 ],
									"presentation" : 1,
									"presentation_rect" : [ 19.0, 205.5, 57.0, 18.0 ],
									"style" : "",
									"text" : "Bandwidth",
									"textcolor" : [ 0.878431, 0.878431, 0.858824, 1.0 ]
								}

							}
, 							{
								"box" : 								{
									"fontsize" : 10.0,
									"id" : "obj-27",
									"maxclass" : "comment",
									"numinlets" : 1,
									"numoutlets" : 0,
									"patching_rect" : [ 64.0, 370.947754, 95.0, 18.0 ],
									"presentation" : 1,
									"presentation_rect" : [ 19.0, 169.5, 57.0, 18.0 ],
									"style" : "",
									"text" : "Frequenc",
									"textcolor" : [ 0.878431, 0.878431, 0.858824, 1.0 ]
								}

							}
, 							{
								"box" : 								{
									"fontsize" : 10.0,
									"id" : "obj-16",
									"maxclass" : "comment",
									"numinlets" : 1,
									"numoutlets" : 0,
									"patching_rect" : [ 41.0, 345.246826, 95.0, 18.0 ],
									"presentation" : 1,
									"presentation_rect" : [ 19.0, 151.5, 36.0, 18.0 ],
									"style" : "",
									"text" : "Type",
									"textcolor" : [ 0.878431, 0.878431, 0.858824, 1.0 ]
								}

							}
, 							{
								"box" : 								{
									"activebgcolor" : [ 0.290196, 0.309804, 0.301961, 1.0 ],
									"activeslidercolor" : [ 0.882353, 0.988235, 1.0, 1.0 ],
									"appearance" : 2,
									"bordercolor" : [ 0.290196, 0.309804, 0.301961, 1.0 ],
									"focusbordercolor" : [ 0.290196, 0.309804, 0.301961, 1.0 ],
									"fontface" : 0,
									"id" : "obj-19",
									"maxclass" : "live.numbox",
									"numinlets" : 1,
									"numoutlets" : 2,
									"outlettype" : [ "", "float" ],
									"parameter_enable" : 1,
									"patching_rect" : [ 527.400024, 368.11438, 80.0, 15.0 ],
									"presentation" : 1,
									"presentation_rect" : [ 6.218811, 66.5, 123.555542, 15.0 ],
									"saved_attribute_attributes" : 									{
										"valueof" : 										{
											"parameter_longname" : "live.numbox",
											"parameter_shortname" : "live.numbox",
											"parameter_type" : 0,
											"parameter_mmin" : 20.0,
											"parameter_mmax" : 20000.0,
											"parameter_unitstyle" : 3
										}

									}
,
									"textcolor" : [ 0.721569, 0.721569, 0.705882, 1.0 ],
									"varname" : "live.numbox"
								}

							}
, 							{
								"box" : 								{
									"activebgcolor" : [ 0.290196, 0.309804, 0.301961, 1.0 ],
									"activeslidercolor" : [ 0.882353, 0.988235, 1.0, 1.0 ],
									"bordercolor" : [ 0.290196, 0.309804, 0.301961, 1.0 ],
									"focusbordercolor" : [ 0.290196, 0.309804, 0.301961, 1.0 ],
									"fontface" : 0,
									"id" : "obj-17",
									"maxclass" : "live.numbox",
									"numinlets" : 1,
									"numoutlets" : 2,
									"outlettype" : [ "", "float" ],
									"parameter_enable" : 1,
									"patching_rect" : [ 634.800049, 368.11438, 82.0, 15.0 ],
									"presentation" : 1,
									"presentation_rect" : [ 134.774353, 104.0, 101.0, 15.0 ],
									"saved_attribute_attributes" : 									{
										"valueof" : 										{
											"parameter_longname" : "live.numbox[5]",
											"parameter_shortname" : "live.numbox",
											"parameter_type" : 0,
											"parameter_mmax" : 136.0,
											"parameter_unitstyle" : 8
										}

									}
,
									"textcolor" : [ 0.721569, 0.721569, 0.705882, 1.0 ],
									"varname" : "live.numbox[1]"
								}

							}
, 							{
								"box" : 								{
									"activebgcolor" : [ 0.290196, 0.309804, 0.301961, 1.0 ],
									"activeslidercolor" : [ 0.882353, 0.988235, 1.0, 1.0 ],
									"appearance" : 2,
									"bordercolor" : [ 0.290196, 0.309804, 0.301961, 1.0 ],
									"focusbordercolor" : [ 0.290196, 0.309804, 0.301961, 1.0 ],
									"fontface" : 0,
									"id" : "obj-6",
									"maxclass" : "live.numbox",
									"numinlets" : 1,
									"numoutlets" : 2,
									"outlettype" : [ "", "float" ],
									"parameter_enable" : 1,
									"patching_rect" : [ 741.400024, 368.11438, 93.0, 15.0 ],
									"presentation" : 1,
									"presentation_rect" : [ 6.218811, 84.5, 123.555542, 15.0 ],
									"saved_attribute_attributes" : 									{
										"valueof" : 										{
											"parameter_longname" : "live.numbox[4]",
											"parameter_shortname" : "live.numbox[4]",
											"parameter_type" : 0,
											"parameter_mmin" : -48.0,
											"parameter_mmax" : 48.0,
											"parameter_unitstyle" : 4
										}

									}
,
									"textcolor" : [ 0.721569, 0.721569, 0.705882, 1.0 ],
									"varname" : "live.numbox[4]"
								}

							}
, 							{
								"box" : 								{
									"activebgcolor" : [ 0.290196, 0.309804, 0.301961, 1.0 ],
									"activeslidercolor" : [ 0.882353, 0.988235, 1.0, 1.0 ],
									"appearance" : 2,
									"bordercolor" : [ 0.290196, 0.309804, 0.301961, 1.0 ],
									"focusbordercolor" : [ 0.290196, 0.309804, 0.301961, 1.0 ],
									"fontface" : 0,
									"id" : "obj-7",
									"maxclass" : "live.numbox",
									"numinlets" : 1,
									"numoutlets" : 2,
									"outlettype" : [ "", "float" ],
									"parameter_enable" : 1,
									"patching_rect" : [ 848.0, 368.11438, 90.0, 15.0 ],
									"presentation" : 1,
									"presentation_rect" : [ 6.218811, 104.0, 123.555542, 15.0 ],
									"saved_attribute_attributes" : 									{
										"valueof" : 										{
											"parameter_longname" : "live.numbox[2]",
											"parameter_shortname" : "live.numbox",
											"parameter_type" : 0,
											"parameter_mmin" : 0.001,
											"parameter_mmax" : 8.0,
											"parameter_unitstyle" : 9,
											"parameter_units" : "Octaves"
										}

									}
,
									"textcolor" : [ 0.721569, 0.721569, 0.705882, 1.0 ],
									"varname" : "live.numbox[2]"
								}

							}
, 							{
								"box" : 								{
									"activebgcolor" : [ 0.290196, 0.309804, 0.301961, 1.0 ],
									"bordercolor" : [ 0.290196, 0.309804, 0.301961, 1.0 ],
									"focusbordercolor" : [ 0.290196, 0.309804, 0.301961, 1.0 ],
									"fontface" : 0,
									"hltcolor" : [ 0.882353, 0.988235, 1.0, 1.0 ],
									"id" : "obj-9",
									"maxclass" : "live.menu",
									"numinlets" : 1,
									"numoutlets" : 3,
									"outlettype" : [ "", "", "float" ],
									"parameter_enable" : 1,
									"patching_rect" : [ 421.200073, 368.11438, 82.799927, 15.0 ],
									"presentation" : 1,
									"presentation_rect" : [ 6.218811, 50.0, 123.555542, 15.0 ],
									"saved_attribute_attributes" : 									{
										"valueof" : 										{
											"parameter_longname" : "live.menu",
											"parameter_shortname" : "live.menu",
											"parameter_type" : 2,
											"parameter_enum" : [ "lowpass", "highpass", "bandpass", "bandstop", "peaknotch", "lowshelf", "highshelf" ]
										}

									}
,
									"textcolor" : [ 0.721569, 0.721569, 0.705882, 1.0 ],
									"varname" : "live.menu"
								}

							}
, 							{
								"box" : 								{
									"bgcolor" : [ 0.75, 0.75, 0.75, 1.0 ],
									"bgoncolor" : [ 0.55, 0.55, 0.55, 1.0 ],
									"fontsize" : 10.0,
									"id" : "obj-51",
									"legacytextcolor" : 1,
									"maxclass" : "textbutton",
									"mode" : 1,
									"numinlets" : 1,
									"numoutlets" : 3,
									"outlettype" : [ "", "", "int" ],
									"parameter_enable" : 0,
									"patching_rect" : [ 358.0, 119.0, 100.0, 20.0 ],
									"presentation" : 1,
									"presentation_rect" : [ 134.774353, 84.5, 101.0, 15.0 ],
									"style" : "",
									"text" : "View phase off",
									"textcolor" : [ 0.15, 0.15, 0.15, 1.0 ],
									"texton" : "View phase on",
									"textoncolor" : [ 0.882353, 0.988235, 1.0, 1.0 ],
									"textovercolor" : [ 0.1, 0.1, 0.1, 1.0 ],
									"usebgoncolor" : 1,
									"usetextovercolor" : 1
								}

							}
, 							{
								"box" : 								{
									"fontsize" : 10.0,
									"id" : "obj-57",
									"legacytextcolor" : 1,
									"maxclass" : "textbutton",
									"numinlets" : 1,
									"numoutlets" : 3,
									"outlettype" : [ "", "", "int" ],
									"parameter_enable" : 0,
									"patching_rect" : [ 220.0, 212.0, 100.0, 20.0 ],
									"presentation" : 1,
									"presentation_rect" : [ 134.774353, 50.0, 101.0, 15.0 ],
									"style" : "",
									"text" : "Remove band",
									"usebgoncolor" : 1,
									"usetextovercolor" : 1
								}

							}
, 							{
								"box" : 								{
									"fontsize" : 10.0,
									"id" : "obj-48",
									"legacytextcolor" : 1,
									"maxclass" : "textbutton",
									"numinlets" : 1,
									"numoutlets" : 3,
									"outlettype" : [ "", "", "int" ],
									"parameter_enable" : 0,
									"patching_rect" : [ 216.0, 131.0, 100.0, 20.0 ],
									"presentation" : 1,
									"presentation_rect" : [ 134.774353, 66.5, 101.0, 15.0 ],
									"style" : "",
									"text" : "Add band",
									"usebgoncolor" : 1,
									"usetextovercolor" : 1
								}

							}
, 							{
								"box" : 								{
									"id" : "obj-4",
									"maxclass" : "newobj",
									"numinlets" : 1,
									"numoutlets" : 2,
									"outlettype" : [ "", "int" ],
									"patching_rect" : [ 52.0, 138.0, 57.0, 22.0 ],
									"style" : "",
									"text" : "strippath"
								}

							}
, 							{
								"box" : 								{
									"id" : "obj-18",
									"maxclass" : "newobj",
									"numinlets" : 1,
									"numoutlets" : 1,
									"outlettype" : [ "" ],
									"patching_rect" : [ 52.0, 168.0, 77.0, 22.0 ],
									"style" : "",
									"text" : "prepend title"
								}

							}
, 							{
								"box" : 								{
									"id" : "obj-11",
									"maxclass" : "newobj",
									"numinlets" : 1,
									"numoutlets" : 2,
									"outlettype" : [ "", "" ],
									"patching_rect" : [ 52.0, 198.306396, 69.0, 22.0 ],
									"save" : [ "#N", "thispatcher", ";", "#Q", "end", ";" ],
									"style" : "",
									"text" : "thispatcher"
								}

							}
, 							{
								"box" : 								{
									"bgcolor" : [ 0.831373, 0.54902, 0.839216, 0.0 ],
									"bubblepoint" : 0.38,
									"fontname" : "Arial",
									"fontsize" : 11.0,
									"id" : "obj-28",
									"maxclass" : "comment",
									"numinlets" : 1,
									"numoutlets" : 0,
									"patching_rect" : [ 183.5, 48.0, 137.0, 19.0 ],
									"presentation" : 1,
									"presentation_rect" : [ 42.0, 2.0, 162.0, 19.0 ],
									"style" : "",
									"text" : "Currently contol of model:",
									"textcolor" : [ 0.878431, 0.878431, 0.858824, 1.0 ],
									"varname" : "description"
								}

							}
, 							{
								"box" : 								{
									"fontname" : "Arial",
									"fontsize" : 12.0,
									"id" : "obj-45",
									"maxclass" : "newobj",
									"numinlets" : 1,
									"numoutlets" : 1,
									"outlettype" : [ "" ],
									"patching_rect" : [ 99.5, 41.0, 74.0, 22.0 ],
									"style" : "",
									"text" : "prepend set"
								}

							}
, 							{
								"box" : 								{
									"color" : [ 0.804844, 0.527957, 0.824703, 1.0 ],
									"fontname" : "Arial",
									"fontsize" : 12.0,
									"id" : "obj-20",
									"maxclass" : "newobj",
									"numinlets" : 1,
									"numoutlets" : 3,
									"outlettype" : [ "", "", "" ],
									"patching_rect" : [ 99.5, 13.0, 137.0, 22.0 ],
									"style" : "",
									"text" : "j.receive model:address"
								}

							}
, 							{
								"box" : 								{
									"fontname" : "Arial",
									"fontsize" : 20.0,
									"id" : "obj-84",
									"maxclass" : "comment",
									"numinlets" : 1,
									"numoutlets" : 0,
									"patching_rect" : [ 99.5, 70.5, 209.0, 29.0 ],
									"presentation" : 1,
									"presentation_rect" : [ 44.774353, 13.5, 191.0, 29.0 ],
									"style" : "",
									"text" : "/no_model_address",
									"textcolor" : [ 0.878431, 0.878431, 0.858824, 1.0 ],
									"varname" : "name"
								}

							}
, 							{
								"box" : 								{
									"id" : "obj-85",
									"ignoreclick" : 1,
									"maxclass" : "pictctrl",
									"name" : "RDPJamomaLogo2.png",
									"numinlets" : 1,
									"numoutlets" : 1,
									"outlettype" : [ "int" ],
									"parameter_enable" : 0,
									"patching_rect" : [ 50.5, 13.0, 43.0, 42.5 ],
									"presentation" : 1,
									"presentation_rect" : [ 4.0, 2.0, 38.774353, 38.5 ],
									"varname" : "logo"
								}

							}
, 							{
								"box" : 								{
									"angle" : 273.179077,
									"grad1" : [ 0.52549, 0.541176, 0.568627, 1.0 ],
									"grad2" : [ 0.52549, 0.541176, 0.568627, 1.0 ],
									"id" : "obj-22",
									"maxclass" : "panel",
									"mode" : 1,
									"numinlets" : 1,
									"numoutlets" : 0,
									"patching_rect" : [ 363.5, 12.0, 73.0, 48.0 ],
									"presentation" : 1,
									"presentation_rect" : [ 0.0, 43.0, 245.774353, 196.0 ],
									"proportion" : 0.39,
									"pt1" : [ 0.49505, 0.86087 ],
									"pt2" : [ 0.5, 0.95 ],
									"rounded" : 0,
									"style" : ""
								}

							}
, 							{
								"box" : 								{
									"angle" : 273.179077,
									"grad1" : [ 0.290196, 0.309804, 0.301961, 1.0 ],
									"grad2" : [ 0.290196, 0.309804, 0.301961, 1.0 ],
									"id" : "obj-23",
									"maxclass" : "panel",
									"mode" : 1,
									"numinlets" : 1,
									"numoutlets" : 0,
									"patching_rect" : [ 33.0, 243.875, 73.0, 48.0 ],
									"presentation" : 1,
									"presentation_rect" : [ 0.0, 0.0, 245.774353, 42.5 ],
									"proportion" : 0.39,
									"pt1" : [ 0.49505, 0.86087 ],
									"pt2" : [ 0.5, 0.95 ],
									"rounded" : 0,
									"style" : ""
								}

							}
, 							{
								"box" : 								{
									"fontname" : "Arial",
									"fontsize" : 12.0,
									"id" : "obj-32",
									"maxclass" : "newobj",
									"numinlets" : 2,
									"numoutlets" : 1,
									"outlettype" : [ "float" ],
									"patching_rect" : [ 358.0, 157.0, 32.5, 22.0 ],
									"style" : "",
									"text" : "f"
								}

							}
, 							{
								"box" : 								{
									"fontname" : "Arial",
									"fontsize" : 12.0,
									"id" : "obj-31",
									"maxclass" : "message",
									"numinlets" : 2,
									"numoutlets" : 1,
									"outlettype" : [ "" ],
									"patching_rect" : [ 358.0, 180.0, 163.0, 22.0 ],
									"style" : "",
									"text" : "curvecolor 0.44 0.43 0.43 $1"
								}

							}
, 							{
								"box" : 								{
									"color" : [ 0.831373, 0.54902, 0.839216, 1.0 ],
									"fontname" : "Helvetica Neue Light",
									"fontsize" : 12.0,
									"id" : "obj-3",
									"maxclass" : "newobj",
									"numinlets" : 1,
									"numoutlets" : 1,
									"outlettype" : [ "" ],
									"patching_rect" : [ 220.0, 245.11438, 100.0, 23.0 ],
									"style" : "",
									"text" : "j.send bands:dec"
								}

							}
, 							{
								"box" : 								{
									"color" : [ 0.831373, 0.54902, 0.839216, 1.0 ],
									"fontname" : "Helvetica Neue Light",
									"fontsize" : 12.0,
									"id" : "obj-10",
									"maxclass" : "newobj",
									"numinlets" : 1,
									"numoutlets" : 1,
									"outlettype" : [ "" ],
									"patching_rect" : [ 216.0, 171.11438, 96.0, 23.0 ],
									"style" : "",
									"text" : "j.send bands:inc"
								}

							}
, 							{
								"box" : 								{
									"annotation" : "none",
									"fontname" : "Arial",
									"fontsize" : 12.0,
									"id" : "obj-35",
									"maxclass" : "newobj",
									"numinlets" : 6,
									"numoutlets" : 6,
									"outlettype" : [ "", "", "", "", "", "" ],
									"patcher" : 									{
										"fileversion" : 1,
										"appversion" : 										{
											"major" : 7,
											"minor" : 0,
											"revision" : 1,
											"architecture" : "x86",
											"modernui" : 1
										}
,
										"rect" : [ 177.0, 79.0, 1229.0, 473.0 ],
										"bglocked" : 0,
										"openinpresentation" : 0,
										"default_fontsize" : 12.0,
										"default_fontface" : 0,
										"default_fontname" : "Arial",
										"gridonopen" : 1,
										"gridsize" : [ 15.0, 15.0 ],
										"gridsnaponopen" : 1,
										"objectsnaponopen" : 1,
										"statusbarvisible" : 2,
										"toolbarvisible" : 1,
										"lefttoolbarpinned" : 0,
										"toptoolbarpinned" : 0,
										"righttoolbarpinned" : 0,
										"bottomtoolbarpinned" : 0,
										"toolbars_unpinned_last_save" : 0,
										"tallnewobj" : 0,
										"boxanimatetime" : 200,
										"enablehscroll" : 1,
										"enablevscroll" : 1,
										"devicewidth" : 0.0,
										"description" : "",
										"digest" : "",
										"tags" : "",
										"style" : "",
										"subpatcher_template" : "",
										"boxes" : [ 											{
												"box" : 												{
													"color" : [ 0.937255, 0.733333, 0.317647, 1.0 ],
													"fontname" : "Helvetica Neue Light",
													"fontsize" : 14.0,
													"id" : "obj-5",
													"linecount" : 3,
													"maxclass" : "newobj",
													"numinlets" : 1,
													"numoutlets" : 4,
													"outlettype" : [ "", "", "", "" ],
													"patching_rect" : [ 441.0, 100.0, 177.0, 58.0 ],
													"style" : "",
													"text" : "j.remote frequency frequency.midi_converter @unit midinote"
												}

											}
, 											{
												"box" : 												{
													"comment" : "",
													"id" : "obj-6",
													"maxclass" : "inlet",
													"numinlets" : 0,
													"numoutlets" : 1,
													"outlettype" : [ "" ],
													"patching_rect" : [ 441.0, 40.0, 25.0, 25.0 ],
													"style" : ""
												}

											}
, 											{
												"box" : 												{
													"comment" : "",
													"id" : "obj-7",
													"maxclass" : "outlet",
													"numinlets" : 1,
													"numoutlets" : 0,
													"patching_rect" : [ 441.0, 241.0, 25.0, 25.0 ],
													"style" : ""
												}

											}
, 											{
												"box" : 												{
													"comment" : "",
													"id" : "obj-1",
													"maxclass" : "inlet",
													"numinlets" : 0,
													"numoutlets" : 1,
													"outlettype" : [ "" ],
													"patching_rect" : [ 50.0, 40.0, 25.0, 25.0 ],
													"style" : ""
												}

											}
, 											{
												"box" : 												{
													"comment" : "",
													"id" : "obj-2",
													"maxclass" : "outlet",
													"numinlets" : 1,
													"numoutlets" : 0,
													"patching_rect" : [ 50.0, 241.0, 25.0, 25.0 ],
													"style" : ""
												}

											}
, 											{
												"box" : 												{
													"fontname" : "Helvetica Neue Light",
													"fontsize" : 14.0,
													"id" : "obj-18",
													"maxclass" : "newobj",
													"numinlets" : 1,
													"numoutlets" : 1,
													"outlettype" : [ "" ],
													"patching_rect" : [ 129.0, 158.0, 128.0, 25.0 ],
													"style" : "",
													"text" : "prepend setsymbol"
												}

											}
, 											{
												"box" : 												{
													"fontname" : "Helvetica Neue Light",
													"fontsize" : 14.0,
													"id" : "obj-17",
													"maxclass" : "newobj",
													"numinlets" : 2,
													"numoutlets" : 2,
													"outlettype" : [ "", "" ],
													"patching_rect" : [ 129.0, 130.0, 65.0, 25.0 ],
													"style" : "",
													"text" : "route set"
												}

											}
, 											{
												"box" : 												{
													"color" : [ 0.937255, 0.733333, 0.317647, 1.0 ],
													"fontname" : "Helvetica Neue Light",
													"fontsize" : 14.0,
													"id" : "obj-12",
													"maxclass" : "newobj",
													"numinlets" : 1,
													"numoutlets" : 4,
													"outlettype" : [ "", "", "", "" ],
													"patching_rect" : [ 752.0, 100.0, 172.0, 25.0 ],
													"style" : "",
													"text" : "j.remote octave_bandwidth"
												}

											}
, 											{
												"box" : 												{
													"color" : [ 0.937255, 0.733333, 0.317647, 1.0 ],
													"fontname" : "Helvetica Neue Light",
													"fontsize" : 14.0,
													"id" : "obj-13",
													"maxclass" : "newobj",
													"numinlets" : 1,
													"numoutlets" : 4,
													"outlettype" : [ "", "", "", "" ],
													"patching_rect" : [ 625.0, 100.0, 90.0, 25.0 ],
													"style" : "",
													"text" : "j.remote gain"
												}

											}
, 											{
												"box" : 												{
													"color" : [ 0.937255, 0.733333, 0.317647, 1.0 ],
													"fontname" : "Helvetica Neue Light",
													"fontsize" : 14.0,
													"id" : "obj-4",
													"maxclass" : "newobj",
													"numinlets" : 1,
													"numoutlets" : 4,
													"outlettype" : [ "", "", "", "" ],
													"patching_rect" : [ 282.0, 100.0, 124.0, 25.0 ],
													"style" : "",
													"text" : "j.remote frequency"
												}

											}
, 											{
												"box" : 												{
													"color" : [ 0.937255, 0.733333, 0.317647, 1.0 ],
													"fontname" : "Helvetica Neue Light",
													"fontsize" : 14.0,
													"id" : "obj-3",
													"maxclass" : "newobj",
													"numinlets" : 1,
													"numoutlets" : 4,
													"outlettype" : [ "", "", "", "" ],
													"patching_rect" : [ 129.0, 100.0, 91.0, 25.0 ],
													"style" : "",
													"text" : "j.remote type"
												}

											}
, 											{
												"box" : 												{
													"color" : [ 0.533333, 0.756863, 0.658824, 1.0 ],
													"fontname" : "Helvetica Neue Light",
													"fontsize" : 14.0,
													"id" : "obj-15",
													"maxclass" : "newobj",
													"numinlets" : 1,
													"numoutlets" : 2,
													"outlettype" : [ "", "" ],
													"patching_rect" : [ 50.0, 149.0, 46.0, 25.0 ],
													"style" : "",
													"text" : "j.view"
												}

											}
, 											{
												"box" : 												{
													"comment" : "",
													"id" : "obj-20",
													"maxclass" : "inlet",
													"numinlets" : 0,
													"numoutlets" : 1,
													"outlettype" : [ "" ],
													"patching_rect" : [ 129.0, 40.0, 25.0, 25.0 ],
													"style" : ""
												}

											}
, 											{
												"box" : 												{
													"comment" : "",
													"id" : "obj-22",
													"maxclass" : "inlet",
													"numinlets" : 0,
													"numoutlets" : 1,
													"outlettype" : [ "" ],
													"patching_rect" : [ 282.0, 40.0, 25.0, 25.0 ],
													"style" : ""
												}

											}
, 											{
												"box" : 												{
													"comment" : "",
													"id" : "obj-27",
													"maxclass" : "inlet",
													"numinlets" : 0,
													"numoutlets" : 1,
													"outlettype" : [ "" ],
													"patching_rect" : [ 625.0, 40.0, 25.0, 25.0 ],
													"style" : ""
												}

											}
, 											{
												"box" : 												{
													"comment" : "",
													"id" : "obj-29",
													"maxclass" : "inlet",
													"numinlets" : 0,
													"numoutlets" : 1,
													"outlettype" : [ "" ],
													"patching_rect" : [ 752.0, 40.0, 25.0, 25.0 ],
													"style" : ""
												}

											}
, 											{
												"box" : 												{
													"comment" : "",
													"id" : "obj-31",
													"maxclass" : "outlet",
													"numinlets" : 1,
													"numoutlets" : 0,
													"patching_rect" : [ 129.0, 241.0, 25.0, 25.0 ],
													"style" : ""
												}

											}
, 											{
												"box" : 												{
													"comment" : "",
													"id" : "obj-32",
													"maxclass" : "outlet",
													"numinlets" : 1,
													"numoutlets" : 0,
													"patching_rect" : [ 282.0, 241.0, 25.0, 25.0 ],
													"style" : ""
												}

											}
, 											{
												"box" : 												{
													"comment" : "",
													"id" : "obj-33",
													"maxclass" : "outlet",
													"numinlets" : 1,
													"numoutlets" : 0,
													"patching_rect" : [ 625.0, 241.0, 25.0, 25.0 ],
													"style" : ""
												}

											}
, 											{
												"box" : 												{
													"comment" : "",
													"id" : "obj-34",
													"maxclass" : "outlet",
													"numinlets" : 1,
													"numoutlets" : 0,
													"patching_rect" : [ 752.0, 241.0, 25.0, 25.0 ],
													"style" : ""
												}

											}
 ],
										"lines" : [ 											{
												"patchline" : 												{
													"destination" : [ "obj-15", 0 ],
													"disabled" : 0,
													"hidden" : 0,
													"source" : [ "obj-1", 0 ]
												}

											}
, 											{
												"patchline" : 												{
													"destination" : [ "obj-34", 0 ],
													"disabled" : 0,
													"hidden" : 0,
													"source" : [ "obj-12", 0 ]
												}

											}
, 											{
												"patchline" : 												{
													"destination" : [ "obj-33", 0 ],
													"disabled" : 0,
													"hidden" : 0,
													"source" : [ "obj-13", 0 ]
												}

											}
, 											{
												"patchline" : 												{
													"destination" : [ "obj-2", 0 ],
													"disabled" : 0,
													"hidden" : 0,
													"source" : [ "obj-15", 0 ]
												}

											}
, 											{
												"patchline" : 												{
													"destination" : [ "obj-18", 0 ],
													"disabled" : 0,
													"hidden" : 0,
													"source" : [ "obj-17", 0 ]
												}

											}
, 											{
												"patchline" : 												{
													"destination" : [ "obj-31", 0 ],
													"disabled" : 0,
													"hidden" : 0,
													"source" : [ "obj-18", 0 ]
												}

											}
, 											{
												"patchline" : 												{
													"destination" : [ "obj-3", 0 ],
													"disabled" : 0,
													"hidden" : 0,
													"source" : [ "obj-20", 0 ]
												}

											}
, 											{
												"patchline" : 												{
													"destination" : [ "obj-4", 0 ],
													"disabled" : 0,
													"hidden" : 0,
													"source" : [ "obj-22", 0 ]
												}

											}
, 											{
												"patchline" : 												{
													"destination" : [ "obj-13", 0 ],
													"disabled" : 0,
													"hidden" : 0,
													"source" : [ "obj-27", 0 ]
												}

											}
, 											{
												"patchline" : 												{
													"destination" : [ "obj-12", 0 ],
													"disabled" : 0,
													"hidden" : 0,
													"source" : [ "obj-29", 0 ]
												}

											}
, 											{
												"patchline" : 												{
													"destination" : [ "obj-17", 0 ],
													"disabled" : 0,
													"hidden" : 0,
													"source" : [ "obj-3", 0 ]
												}

											}
, 											{
												"patchline" : 												{
													"destination" : [ "obj-32", 0 ],
													"disabled" : 0,
													"hidden" : 0,
													"source" : [ "obj-4", 0 ]
												}

											}
, 											{
												"patchline" : 												{
													"destination" : [ "obj-7", 0 ],
													"disabled" : 0,
													"hidden" : 0,
													"source" : [ "obj-5", 0 ]
												}

											}
, 											{
												"patchline" : 												{
													"destination" : [ "obj-5", 0 ],
													"disabled" : 0,
													"hidden" : 0,
													"source" : [ "obj-6", 0 ]
												}

											}
 ]
									}
,
									"patching_rect" : [ 315.0, 327.61438, 552.0, 22.0 ],
									"saved_object_attributes" : 									{
										"description" : "",
										"digest" : "",
										"globalpatchername" : "",
										"style" : "",
										"tags" : ""
									}
,
									"style" : "",
									"text" : "p filter_numeric"
								}

							}
, 							{
								"box" : 								{
									"comment" : "",
									"id" : "obj-74",
									"maxclass" : "inlet",
									"numinlets" : 0,
									"numoutlets" : 1,
									"outlettype" : [ "" ],
									"patching_rect" : [ 315.0, 180.0, 30.0, 30.0 ],
									"style" : ""
								}

							}
, 							{
								"box" : 								{
									"comment" : "",
									"id" : "obj-75",
									"maxclass" : "outlet",
									"numinlets" : 1,
									"numoutlets" : 0,
									"patching_rect" : [ 358.0, 487.11438, 30.0, 30.0 ],
									"style" : ""
								}

							}
 ],
						"lines" : [ 							{
								"patchline" : 								{
									"destination" : [ "obj-35", 3 ],
									"disabled" : 0,
									"hidden" : 0,
									"midpoints" : [ 644.300049, 411.61438, 1002.0, 411.61438, 1002.0, 300.61438, 644.299988, 300.61438 ],
									"source" : [ "obj-17", 0 ]
								}

							}
, 							{
								"patchline" : 								{
									"destination" : [ "obj-11", 0 ],
									"disabled" : 0,
									"hidden" : 0,
									"source" : [ "obj-18", 0 ]
								}

							}
, 							{
								"patchline" : 								{
									"destination" : [ "obj-35", 2 ],
									"disabled" : 0,
									"hidden" : 0,
									"midpoints" : [ 536.900024, 419.11438, 1014.0, 419.11438, 1014.0, 293.61438, 537.700012, 293.61438 ],
									"source" : [ "obj-19", 0 ]
								}

							}
, 							{
								"patchline" : 								{
									"destination" : [ "obj-4", 0 ],
									"disabled" : 0,
									"hidden" : 0,
									"source" : [ "obj-20", 0 ]
								}

							}
, 							{
								"patchline" : 								{
									"destination" : [ "obj-45", 0 ],
									"disabled" : 0,
									"hidden" : 0,
									"source" : [ "obj-20", 0 ]
								}

							}
, 							{
								"patchline" : 								{
									"destination" : [ "obj-75", 0 ],
									"disabled" : 0,
									"hidden" : 0,
									"source" : [ "obj-31", 0 ]
								}

							}
, 							{
								"patchline" : 								{
									"destination" : [ "obj-31", 0 ],
									"disabled" : 0,
									"hidden" : 0,
									"source" : [ "obj-32", 0 ]
								}

							}
, 							{
								"patchline" : 								{
									"destination" : [ "obj-17", 0 ],
									"disabled" : 0,
									"hidden" : 0,
									"source" : [ "obj-35", 3 ]
								}

							}
, 							{
								"patchline" : 								{
									"destination" : [ "obj-19", 0 ],
									"disabled" : 0,
									"hidden" : 0,
									"source" : [ "obj-35", 2 ]
								}

							}
, 							{
								"patchline" : 								{
									"destination" : [ "obj-6", 0 ],
									"disabled" : 0,
									"hidden" : 0,
									"source" : [ "obj-35", 4 ]
								}

							}
, 							{
								"patchline" : 								{
									"destination" : [ "obj-7", 0 ],
									"disabled" : 0,
									"hidden" : 0,
									"source" : [ "obj-35", 5 ]
								}

							}
, 							{
								"patchline" : 								{
									"destination" : [ "obj-9", 0 ],
									"disabled" : 0,
									"hidden" : 0,
									"source" : [ "obj-35", 1 ]
								}

							}
, 							{
								"patchline" : 								{
									"destination" : [ "obj-18", 0 ],
									"disabled" : 0,
									"hidden" : 0,
									"source" : [ "obj-4", 0 ]
								}

							}
, 							{
								"patchline" : 								{
									"destination" : [ "obj-84", 0 ],
									"disabled" : 0,
									"hidden" : 0,
									"source" : [ "obj-45", 0 ]
								}

							}
, 							{
								"patchline" : 								{
									"destination" : [ "obj-10", 0 ],
									"disabled" : 0,
									"hidden" : 0,
									"source" : [ "obj-48", 0 ]
								}

							}
, 							{
								"patchline" : 								{
									"destination" : [ "obj-32", 0 ],
									"disabled" : 0,
									"hidden" : 0,
									"source" : [ "obj-51", 0 ]
								}

							}
, 							{
								"patchline" : 								{
									"destination" : [ "obj-3", 0 ],
									"disabled" : 0,
									"hidden" : 0,
									"source" : [ "obj-57", 0 ]
								}

							}
, 							{
								"patchline" : 								{
									"destination" : [ "obj-35", 4 ],
									"disabled" : 0,
									"hidden" : 0,
									"midpoints" : [ 750.900024, 403.11438, 993.75, 403.11438, 993.75, 311.61438, 750.900024, 311.61438 ],
									"source" : [ "obj-6", 0 ]
								}

							}
, 							{
								"patchline" : 								{
									"destination" : [ "obj-35", 5 ],
									"disabled" : 0,
									"hidden" : 0,
									"midpoints" : [ 857.5, 397.11438, 983.5, 397.11438, 983.5, 317.61438, 857.5, 317.61438 ],
									"source" : [ "obj-7", 0 ]
								}

							}
, 							{
								"patchline" : 								{
									"destination" : [ "obj-35", 0 ],
									"disabled" : 0,
									"hidden" : 0,
									"source" : [ "obj-74", 0 ]
								}

							}
, 							{
								"patchline" : 								{
									"destination" : [ "obj-35", 1 ],
									"disabled" : 0,
									"hidden" : 0,
									"midpoints" : [ 462.600037, 425.11438, 1023.5, 425.11438, 1023.5, 288.61438, 431.100006, 288.61438 ],
									"source" : [ "obj-9", 1 ]
								}

							}
 ],
						"styles" : [ 							{
								"name" : "AudioStatus_Menu",
								"default" : 								{
									"bgfillcolor" : 									{
										"type" : "color",
										"color" : [ 0.294118, 0.313726, 0.337255, 1 ],
										"color1" : [ 0.454902, 0.462745, 0.482353, 0.0 ],
										"color2" : [ 0.290196, 0.309804, 0.301961, 1.0 ],
										"angle" : 270.0,
										"proportion" : 0.39,
										"autogradient" : 0
									}

								}
,
								"parentstyle" : "",
								"multi" : 0
							}
, 							{
								"name" : "rdp-jamoma-style",
								"default" : 								{
									"bgcolor" : [ 1.0, 0.827451, 0.345098, 0.0 ],
									"fontface" : [ 0 ],
									"accentcolor" : [ 0.290196, 0.309804, 0.301961, 1.0 ],
									"selectioncolor" : [ 0.849573, 1.0, 0.926902, 1.0 ],
									"textcolor_inverse" : [ 0.290196, 0.309804, 0.301961, 1.0 ]
								}
,
								"parentstyle" : "",
								"multi" : 0
							}
 ]
					}
,
					"patching_rect" : [ 111.0, 174.38562, 50.0, 22.0 ],
					"saved_object_attributes" : 					{
						"description" : "",
						"digest" : "",
						"globalpatchername" : "",
						"style" : "",
						"tags" : ""
					}
,
					"style" : "",
					"text" : "p panel"
				}

			}
, 			{
				"box" : 				{
					"bgcolor" : [ 0.290196, 0.309804, 0.301961, 1.0 ],
					"coldcolor" : [ 0.882353, 0.988235, 1.0, 1.0 ],
					"hotcolor" : [ 0.882353, 0.988235, 1.0, 1.0 ],
					"id" : "obj-29",
					"maxclass" : "live.meter~",
					"numinlets" : 1,
					"numoutlets" : 1,
					"outlettype" : [ "list" ],
					"patching_rect" : [ 635.25, 608.0, 15.0, 42.0 ],
					"presentation" : 1,
					"presentation_rect" : [ 284.294739, 47.864807, 8.0, 86.0 ],
					"slidercolor" : [ 0.290196, 0.309804, 0.301961, 1.0 ],
					"warmcolor" : [ 0.882353, 0.988235, 1.0, 1.0 ]
				}

			}
, 			{
				"box" : 				{
					"bgcolor" : [ 0.290196, 0.309804, 0.301961, 1.0 ],
					"coldcolor" : [ 0.882353, 0.988235, 1.0, 1.0 ],
					"hotcolor" : [ 0.882353, 0.988235, 1.0, 1.0 ],
					"id" : "obj-42",
					"maxclass" : "live.meter~",
					"numinlets" : 1,
					"numoutlets" : 1,
					"outlettype" : [ "list" ],
					"patching_rect" : [ 468.5, 608.0, 15.0, 42.0 ],
					"presentation" : 1,
					"presentation_rect" : [ 274.294739, 47.864807, 8.0, 86.0 ],
					"slidercolor" : [ 0.290196, 0.309804, 0.301961, 1.0 ],
					"warmcolor" : [ 0.882353, 0.988235, 1.0, 1.0 ]
				}

			}
, 			{
				"box" : 				{
					"bgcolor" : [ 0.094118, 0.113725, 0.137255, 0.0 ],
					"curvecolor" : [ 0.882353, 0.988235, 1.0, 1.0 ],
					"dbdisplay" : 0,
					"fontface" : 0,
					"fontname" : "Arial",
					"fontsize" : 12.0,
					"hcurvecolor" : [ 0.979423, 0.775264, 1.0, 1.0 ],
					"id" : "obj-11",
					"linmarkers" : [ 0.0, 11025.0, 16537.5 ],
					"logmarkers" : [ 0.0, 100.0, 1000.0, 10000.0 ],
					"markercolor" : [ 0.301961, 0.337255, 0.403922, 0.0 ],
					"maxclass" : "filtergraph~",
					"nfilters" : 1,
					"numdisplay" : 0,
					"numinlets" : 8,
					"numoutlets" : 7,
					"outlettype" : [ "list", "float", "float", "float", "float", "list", "int" ],
					"parameter_enable" : 0,
					"patching_rect" : [ 199.299118, 784.0, 203.0, 60.5 ],
					"presentation" : 1,
					"presentation_rect" : [ 5.0, 50.927307, 267.294739, 82.572693 ],
					"prototypename" : "M4L.black",
					"range" : [ 0.041667, 24.0 ],
					"setfilter" : [ 0, 6, 1, 1, 0, 814.901855, 8.229623, 1.414214, 0.0, 0.0, 0.0, 0.0, 0.0, 0.0 ],
					"style" : "",
					"textcolor" : [ 0.666667, 0.698039, 0.717647, 0.0 ]
				}

			}
, 			{
				"box" : 				{
					"autoout" : 1,
					"bgcolor" : [ 0.094118, 0.113725, 0.137255, 0.0 ],
					"curvecolor" : [ 0.44, 0.43, 0.43, 0.0 ],
					"fontface" : 0,
					"fontname" : "Arial",
					"fontsize" : 12.0,
					"hcurvecolor" : [ 1.0, 0.603922, 0.0, 0.0 ],
					"id" : "obj-20",
					"linmarkers" : [ 0.0, 11025.0, 16537.5 ],
					"logmarkers" : [ 31.25, 62.5, 125.0, 250.0, 500.0, 1000.0, 2000.0, 4000.0, 8000.0, 16000.0 ],
					"markercolor" : [ 0.301961, 0.337255, 0.403922, 0.0 ],
					"maxclass" : "filtergraph~",
					"nfilters" : 4,
					"numdisplay" : 0,
					"numinlets" : 8,
					"numoutlets" : 7,
					"outlettype" : [ "list", "float", "float", "float", "float", "list", "int" ],
					"parameter_enable" : 0,
					"patching_rect" : [ 854.666687, 510.0, 185.366669, 46.0 ],
					"phasespect" : 1,
					"presentation" : 1,
					"presentation_rect" : [ 5.0, 47.864807, 267.294739, 85.635193 ],
					"prototypename" : "M4L.black",
					"range" : [ 0.041667, 24.0 ],
					"setfilter" : [ 3, 0, 1, 0, 0, 135.0, 1.0, 2.5, 0.0, 0.0, 0.0, 0.0, 0.0, 0.0, 2, 0, 1, 0, 0, 90.0, 1.0, 2.5, 0.0, 0.0, 0.0, 0.0, 0.0, 0.0, 1, 0, 1, 0, 0, 60.0, 1.0, 2.5, 0.0, 0.0, 0.0, 0.0, 0.0, 0.0, 0, 0, 1, 1, 0, 102.889992, 0.101838, 1.0, 0.0, 0.0, 0.0, 0.0, 0.0, 0.0 ],
					"style" : "",
					"textcolor" : [ 0.666667, 0.698039, 0.717647, 0.0 ]
				}

			}
, 			{
				"box" : 				{
					"autoout" : 1,
					"bgcolor" : [ 0.376471, 0.384314, 0.4, 1.0 ],
					"curvecolor" : [ 0.815686, 0.858824, 0.34902, 1.0 ],
					"fontface" : 0,
					"fontname" : "Arial",
					"fontsize" : 10.0,
					"hcurvecolor" : [ 0.979423, 0.775264, 1.0, 1.0 ],
					"id" : "obj-1",
					"linmarkers" : [ 0.0, 11025.0, 16537.5 ],
					"logmarkers" : [ 31.25, 62.5, 125.0, 250.0, 500.0, 1000.0, 2000.0, 4000.0, 8000.0, 16000.0 ],
					"markercolor" : [ 0.878431, 0.878431, 0.858824, 1.0 ],
					"maxclass" : "filtergraph~",
					"nfilters" : 4,
					"numdisplay" : 0,
					"numinlets" : 8,
					"numoutlets" : 7,
					"outlettype" : [ "list", "float", "float", "float", "float", "list", "int" ],
					"parameter_enable" : 0,
					"patching_rect" : [ 854.666687, 440.5, 185.366669, 46.0 ],
					"presentation" : 1,
					"presentation_rect" : [ 5.0, 47.864807, 267.294739, 85.635193 ],
					"prototypename" : "M4L.black",
					"range" : [ 0.041667, 24.0 ],
					"setfilter" : [ 3, 0, 1, 0, 0, 135.0, 1.0, 2.5, 0.0, 0.0, 0.0, 0.0, 0.0, 0.0, 2, 0, 1, 0, 0, 90.0, 1.0, 2.5, 0.0, 0.0, 0.0, 0.0, 0.0, 0.0, 1, 0, 1, 0, 0, 60.0, 1.0, 2.5, 0.0, 0.0, 0.0, 0.0, 0.0, 0.0, 0, 0, 1, 1, 0, 102.889992, 0.101838, 1.0, 0.0, 0.0, 0.0, 0.0, 0.0, 0.0 ],
					"style" : "",
					"textcolor" : [ 0.882353, 0.988235, 1.0, 1.0 ]
				}

			}
, 			{
				"box" : 				{
					"bgcolor" : [ 0.376471, 0.384314, 0.4, 0.0 ],
					"fontsize" : 10.0,
					"htabcolor" : [ 0.882353, 0.988235, 1.0, 1.0 ],
					"id" : "obj-4",
					"margin" : 2,
					"maxclass" : "tab",
					"multiline" : 0,
					"numinlets" : 1,
					"numoutlets" : 3,
					"outlettype" : [ "int", "", "" ],
					"parameter_enable" : 0,
					"patching_rect" : [ 45.666748, 441.5, 256.0, 21.0 ],
					"presentation" : 1,
					"presentation_rect" : [ 5.0, 23.5, 288.555542, 21.0 ],
					"prototypename" : "M4L.2",
					"rounded" : 0.0,
					"style" : "",
					"tabcolor" : [ 0.376471, 0.384314, 0.4, 1.0 ],
					"tabs" : [ "1", "2", "3", "4" ],
					"textcolor" : [ 0.921569, 0.917647, 0.933333, 1.0 ]
				}

			}
, 			{
				"box" : 				{
					"color" : [ 0.831373, 0.54902, 0.839216, 1.0 ],
					"fontname" : "Arial",
					"fontsize" : 12.0,
					"id" : "obj-72",
					"maxclass" : "newobj",
					"numinlets" : 1,
					"numoutlets" : 3,
					"outlettype" : [ "signal", "", "" ],
					"patching_rect" : [ 589.5, 560.0, 127.0, 22.0 ],
					"style" : "",
					"text" : "j.receive~ audio/out.R"
				}

			}
, 			{
				"box" : 				{
					"color" : [ 0.831373, 0.54902, 0.839216, 1.0 ],
					"fontname" : "Arial",
					"fontsize" : 12.0,
					"id" : "obj-73",
					"maxclass" : "newobj",
					"numinlets" : 1,
					"numoutlets" : 3,
					"outlettype" : [ "signal", "", "" ],
					"patching_rect" : [ 434.5, 560.0, 125.0, 22.0 ],
					"style" : "",
					"text" : "j.receive~ audio/out.L"
				}

			}
, 			{
				"box" : 				{
					"comment" : "",
					"id" : "obj-34",
					"maxclass" : "outlet",
					"numinlets" : 1,
					"numoutlets" : 0,
					"patching_rect" : [ 38.0, 279.0, 25.0, 25.0 ],
					"style" : ""
				}

			}
, 			{
				"box" : 				{
					"comment" : "",
					"id" : "obj-38",
					"maxclass" : "inlet",
					"numinlets" : 0,
					"numoutlets" : 1,
					"outlettype" : [ "" ],
					"patching_rect" : [ 38.0, 206.0, 25.0, 25.0 ],
					"style" : ""
				}

			}
, 			{
				"box" : 				{
					"color" : [ 0.804844, 0.527957, 0.824703, 1.0 ],
					"fontface" : 0,
					"fontname" : "Arial",
					"fontsize" : 12.0,
					"id" : "obj-43",
					"maxclass" : "newobj",
					"numinlets" : 1,
					"numoutlets" : 2,
					"outlettype" : [ "", "" ],
					"patching_rect" : [ 38.0, 241.0, 245.0, 22.0 ],
					"style" : "",
					"text" : "j.view @description \"interface for equalizerr\""
				}

			}
, 			{
				"box" : 				{
					"bubble" : 1,
					"fontname" : "Arial",
					"fontsize" : 12.0,
					"id" : "obj-33",
					"maxclass" : "comment",
					"numinlets" : 1,
					"numoutlets" : 0,
					"patching_rect" : [ 1084.333496, 521.0, 156.0, 24.0 ],
					"style" : "",
					"text" : "Display phase response"
				}

			}
, 			{
				"box" : 				{
					"fontname" : "Arial",
					"fontsize" : 12.0,
					"id" : "obj-39",
					"maxclass" : "newobj",
					"numinlets" : 1,
					"numoutlets" : 2,
					"outlettype" : [ "int", "int" ],
					"patching_rect" : [ 45.666748, 482.0, 32.5, 22.0 ],
					"style" : "",
					"text" : "t i i"
				}

			}
, 			{
				"box" : 				{
					"fontname" : "Arial",
					"fontsize" : 12.0,
					"id" : "obj-12",
					"maxclass" : "newobj",
					"numinlets" : 1,
					"numoutlets" : 2,
					"outlettype" : [ "bang", "" ],
					"patching_rect" : [ 84.166748, 639.0, 35.0, 22.0 ],
					"style" : "",
					"text" : "t b s"
				}

			}
, 			{
				"box" : 				{
					"fontname" : "Arial",
					"fontsize" : 12.0,
					"id" : "obj-18",
					"maxclass" : "newobj",
					"numinlets" : 2,
					"numoutlets" : 1,
					"outlettype" : [ "" ],
					"patcher" : 					{
						"fileversion" : 1,
						"appversion" : 						{
							"major" : 7,
							"minor" : 0,
							"revision" : 1,
							"architecture" : "x86",
							"modernui" : 1
						}
,
						"rect" : [ 34.0, 79.0, 736.0, 530.0 ],
						"bglocked" : 0,
						"openinpresentation" : 0,
						"default_fontsize" : 12.0,
						"default_fontface" : 0,
						"default_fontname" : "Arial",
						"gridonopen" : 1,
						"gridsize" : [ 15.0, 15.0 ],
						"gridsnaponopen" : 1,
						"objectsnaponopen" : 1,
						"statusbarvisible" : 2,
						"toolbarvisible" : 1,
						"lefttoolbarpinned" : 0,
						"toptoolbarpinned" : 0,
						"righttoolbarpinned" : 0,
						"bottomtoolbarpinned" : 0,
						"toolbars_unpinned_last_save" : 0,
						"tallnewobj" : 0,
						"boxanimatetime" : 200,
						"enablehscroll" : 1,
						"enablevscroll" : 1,
						"devicewidth" : 0.0,
						"description" : "",
						"digest" : "",
						"tags" : "",
						"style" : "",
						"subpatcher_template" : "",
						"boxes" : [ 							{
								"box" : 								{
									"fontname" : "Arial",
									"fontsize" : 12.0,
									"id" : "obj-4",
									"maxclass" : "newobj",
									"numinlets" : 2,
									"numoutlets" : 1,
									"outlettype" : [ "int" ],
									"patching_rect" : [ 427.666748, 348.0, 32.5, 22.0 ],
									"style" : "",
									"text" : "i"
								}

							}
, 							{
								"box" : 								{
									"comment" : "",
									"id" : "obj-3",
									"maxclass" : "inlet",
									"numinlets" : 0,
									"numoutlets" : 1,
									"outlettype" : [ "int" ],
									"patching_rect" : [ 441.166748, 62.0, 25.0, 25.0 ],
									"style" : ""
								}

							}
, 							{
								"box" : 								{
									"fontname" : "Arial",
									"fontsize" : 12.0,
									"id" : "obj-34",
									"maxclass" : "newobj",
									"numinlets" : 1,
									"numoutlets" : 2,
									"outlettype" : [ "int", "int" ],
									"patching_rect" : [ 169.0, 142.0, 121.5, 22.0 ],
									"style" : "",
									"text" : "t i i"
								}

							}
, 							{
								"box" : 								{
									"fontname" : "Arial",
									"fontsize" : 12.0,
									"id" : "obj-29",
									"maxclass" : "newobj",
									"numinlets" : 2,
									"numoutlets" : 1,
									"outlettype" : [ "int" ],
									"patching_rect" : [ 530.166748, 281.0, 32.5, 22.0 ],
									"style" : "",
									"text" : "- 1"
								}

							}
, 							{
								"box" : 								{
									"fontname" : "Arial",
									"fontsize" : 12.0,
									"id" : "obj-33",
									"maxclass" : "newobj",
									"numinlets" : 3,
									"numoutlets" : 1,
									"outlettype" : [ "" ],
									"patching_rect" : [ 427.666748, 380.0, 121.5, 22.0 ],
									"style" : "",
									"text" : "clip 0 4"
								}

							}
, 							{
								"box" : 								{
									"fontname" : "Arial",
									"fontsize" : 12.0,
									"id" : "obj-2",
									"maxclass" : "newobj",
									"numinlets" : 1,
									"numoutlets" : 2,
									"outlettype" : [ "bang", "bang" ],
									"patching_rect" : [ 209.5, 246.0, 34.0, 22.0 ],
									"style" : "",
									"text" : "t b b"
								}

							}
, 							{
								"box" : 								{
									"fontname" : "Arial",
									"fontsize" : 12.0,
									"id" : "obj-1",
									"maxclass" : "newobj",
									"numinlets" : 1,
									"numoutlets" : 1,
									"outlettype" : [ "" ],
									"patching_rect" : [ 94.0, 396.0, 72.0, 22.0 ],
									"style" : "",
									"text" : "loadmess 0"
								}

							}
, 							{
								"box" : 								{
									"fontname" : "Arial",
									"fontsize" : 12.0,
									"id" : "obj-9",
									"maxclass" : "newobj",
									"numinlets" : 1,
									"numoutlets" : 1,
									"outlettype" : [ "" ],
									"patching_rect" : [ 224.5, 365.0, 81.0, 22.0 ],
									"style" : "",
									"text" : "prepend tabs"
								}

							}
, 							{
								"box" : 								{
									"fontname" : "Arial",
									"fontsize" : 12.0,
									"id" : "obj-8",
									"maxclass" : "newobj",
									"numinlets" : 2,
									"numoutlets" : 2,
									"outlettype" : [ "", "" ],
									"patching_rect" : [ 224.5, 335.0, 77.0, 22.0 ],
									"style" : "",
									"text" : "zl group 256"
								}

							}
, 							{
								"box" : 								{
									"fontname" : "Arial",
									"fontsize" : 12.0,
									"id" : "obj-7",
									"maxclass" : "newobj",
									"numinlets" : 2,
									"numoutlets" : 3,
									"outlettype" : [ "bang", "bang", "int" ],
									"patching_rect" : [ 169.0, 187.0, 100.0, 22.0 ],
									"style" : "",
									"text" : "uzi 1 1"
								}

							}
, 							{
								"box" : 								{
									"comment" : "",
									"id" : "obj-10",
									"maxclass" : "inlet",
									"numinlets" : 0,
									"numoutlets" : 1,
									"outlettype" : [ "" ],
									"patching_rect" : [ 169.0, 62.0, 25.0, 25.0 ],
									"style" : ""
								}

							}
, 							{
								"box" : 								{
									"comment" : "",
									"id" : "obj-12",
									"maxclass" : "outlet",
									"numinlets" : 1,
									"numoutlets" : 0,
									"patching_rect" : [ 224.5, 452.0, 25.0, 25.0 ],
									"style" : ""
								}

							}
 ],
						"lines" : [ 							{
								"patchline" : 								{
									"destination" : [ "obj-12", 0 ],
									"disabled" : 0,
									"hidden" : 0,
									"source" : [ "obj-1", 0 ]
								}

							}
, 							{
								"patchline" : 								{
									"destination" : [ "obj-34", 0 ],
									"disabled" : 0,
									"hidden" : 0,
									"source" : [ "obj-10", 0 ]
								}

							}
, 							{
								"patchline" : 								{
									"destination" : [ "obj-4", 0 ],
									"disabled" : 0,
									"hidden" : 0,
									"source" : [ "obj-2", 0 ]
								}

							}
, 							{
								"patchline" : 								{
									"destination" : [ "obj-8", 0 ],
									"disabled" : 0,
									"hidden" : 0,
									"source" : [ "obj-2", 1 ]
								}

							}
, 							{
								"patchline" : 								{
									"destination" : [ "obj-33", 2 ],
									"disabled" : 0,
									"hidden" : 0,
									"source" : [ "obj-29", 0 ]
								}

							}
, 							{
								"patchline" : 								{
									"destination" : [ "obj-4", 1 ],
									"disabled" : 0,
									"hidden" : 0,
									"source" : [ "obj-3", 0 ]
								}

							}
, 							{
								"patchline" : 								{
									"destination" : [ "obj-12", 0 ],
									"disabled" : 0,
									"hidden" : 0,
									"source" : [ "obj-33", 0 ]
								}

							}
, 							{
								"patchline" : 								{
									"destination" : [ "obj-29", 0 ],
									"disabled" : 0,
									"hidden" : 0,
									"source" : [ "obj-34", 1 ]
								}

							}
, 							{
								"patchline" : 								{
									"destination" : [ "obj-7", 0 ],
									"disabled" : 0,
									"hidden" : 0,
									"source" : [ "obj-34", 0 ]
								}

							}
, 							{
								"patchline" : 								{
									"destination" : [ "obj-33", 0 ],
									"disabled" : 0,
									"hidden" : 0,
									"source" : [ "obj-4", 0 ]
								}

							}
, 							{
								"patchline" : 								{
									"destination" : [ "obj-2", 0 ],
									"disabled" : 0,
									"hidden" : 0,
									"source" : [ "obj-7", 1 ]
								}

							}
, 							{
								"patchline" : 								{
									"destination" : [ "obj-8", 0 ],
									"disabled" : 0,
									"hidden" : 0,
									"source" : [ "obj-7", 2 ]
								}

							}
, 							{
								"patchline" : 								{
									"destination" : [ "obj-9", 0 ],
									"disabled" : 0,
									"hidden" : 0,
									"source" : [ "obj-8", 0 ]
								}

							}
, 							{
								"patchline" : 								{
									"destination" : [ "obj-12", 0 ],
									"disabled" : 0,
									"hidden" : 0,
									"source" : [ "obj-9", 0 ]
								}

							}
 ]
					}
,
					"patching_rect" : [ 45.666748, 404.25, 89.0, 22.0 ],
					"saved_object_attributes" : 					{
						"description" : "",
						"digest" : "",
						"globalpatchername" : "",
						"style" : "",
						"tags" : ""
					}
,
					"style" : "",
					"text" : "p update_tabs"
				}

			}
, 			{
				"box" : 				{
					"fontname" : "Arial",
					"fontsize" : 12.0,
					"id" : "obj-36",
					"maxclass" : "newobj",
					"numinlets" : 2,
					"numoutlets" : 1,
					"outlettype" : [ "" ],
					"patching_rect" : [ 59.166748, 703.0, 196.0, 22.0 ],
					"style" : "",
					"text" : "sprintf model:address %s/filter.%ld"
				}

			}
, 			{
				"box" : 				{
					"fontname" : "Arial",
					"fontsize" : 12.0,
					"id" : "obj-15",
					"maxclass" : "newobj",
					"numinlets" : 1,
					"numoutlets" : 2,
					"outlettype" : [ "bang", "int" ],
					"patching_rect" : [ 59.166748, 568.5, 34.0, 22.0 ],
					"style" : "",
					"text" : "t b i"
				}

			}
, 			{
				"box" : 				{
					"fontname" : "Arial",
					"fontsize" : 12.0,
					"id" : "obj-13",
					"maxclass" : "newobj",
					"numinlets" : 2,
					"numoutlets" : 2,
					"outlettype" : [ "", "" ],
					"patching_rect" : [ 59.166748, 677.0, 60.0, 22.0 ],
					"style" : "",
					"text" : "zl reg"
				}

			}
, 			{
				"box" : 				{
					"color" : [ 0.831373, 0.54902, 0.839216, 1.0 ],
					"fontname" : "Arial",
					"fontsize" : 12.0,
					"id" : "obj-5",
					"maxclass" : "newobj",
					"numinlets" : 1,
					"numoutlets" : 3,
					"outlettype" : [ "", "", "" ],
					"patching_rect" : [ 84.166748, 612.0, 139.0, 22.0 ],
					"style" : "",
					"text" : "j.receive model:address"
				}

			}
, 			{
				"box" : 				{
					"fontname" : "Arial",
					"fontsize" : 12.0,
					"id" : "obj-14",
					"maxclass" : "newobj",
					"numinlets" : 2,
					"numoutlets" : 1,
					"outlettype" : [ "int" ],
					"patching_rect" : [ 59.166748, 536.0, 32.5, 22.0 ],
					"style" : "",
					"text" : "+ 1"
				}

			}
, 			{
				"box" : 				{
					"color" : [ 0.831373, 0.54902, 0.839216, 1.0 ],
					"fontname" : "Arial",
					"fontsize" : 12.0,
					"id" : "obj-37",
					"maxclass" : "newobj",
					"numinlets" : 1,
					"numoutlets" : 3,
					"outlettype" : [ "", "", "" ],
					"patching_rect" : [ 45.666748, 358.5, 93.0, 22.0 ],
					"style" : "",
					"text" : "j.receive bands"
				}

			}
, 			{
				"box" : 				{
					"annotation" : "none",
					"fontname" : "Arial",
					"fontsize" : 12.0,
					"id" : "obj-21",
					"maxclass" : "newobj",
					"numinlets" : 4,
					"numoutlets" : 3,
					"outlettype" : [ "", "", "" ],
					"patcher" : 					{
						"fileversion" : 1,
						"appversion" : 						{
							"major" : 7,
							"minor" : 0,
							"revision" : 1,
							"architecture" : "x86",
							"modernui" : 1
						}
,
						"rect" : [ 25.0, 69.0, 1088.0, 889.0 ],
						"bglocked" : 0,
						"openinpresentation" : 0,
						"default_fontsize" : 12.0,
						"default_fontface" : 0,
						"default_fontname" : "Arial",
						"gridonopen" : 1,
						"gridsize" : [ 15.0, 15.0 ],
						"gridsnaponopen" : 1,
						"objectsnaponopen" : 1,
						"statusbarvisible" : 2,
						"toolbarvisible" : 1,
						"lefttoolbarpinned" : 0,
						"toptoolbarpinned" : 0,
						"righttoolbarpinned" : 0,
						"bottomtoolbarpinned" : 0,
						"toolbars_unpinned_last_save" : 0,
						"tallnewobj" : 0,
						"boxanimatetime" : 200,
						"enablehscroll" : 1,
						"enablevscroll" : 1,
						"devicewidth" : 0.0,
						"description" : "",
						"digest" : "",
						"tags" : "",
						"style" : "",
						"subpatcher_template" : "",
						"boxes" : [ 							{
								"box" : 								{
									"comment" : "",
									"id" : "obj-1",
									"maxclass" : "inlet",
									"numinlets" : 0,
									"numoutlets" : 1,
									"outlettype" : [ "" ],
									"patching_rect" : [ 134.435181, 81.0, 25.0, 25.0 ],
									"style" : ""
								}

							}
, 							{
								"box" : 								{
									"comment" : "",
									"id" : "obj-2",
									"maxclass" : "outlet",
									"numinlets" : 1,
									"numoutlets" : 0,
									"patching_rect" : [ 133.861084, 403.5, 25.0, 25.0 ],
									"style" : ""
								}

							}
, 							{
								"box" : 								{
									"fontname" : "Helvetica Neue Light",
									"fontsize" : 14.0,
									"id" : "obj-45",
									"maxclass" : "newobj",
									"numinlets" : 4,
									"numoutlets" : 4,
									"outlettype" : [ "", "", "", "" ],
									"patcher" : 									{
										"fileversion" : 1,
										"appversion" : 										{
											"major" : 7,
											"minor" : 0,
											"revision" : 1,
											"architecture" : "x86",
											"modernui" : 1
										}
,
										"rect" : [ 0.0, 0.0, 640.0, 480.0 ],
										"bglocked" : 0,
										"openinpresentation" : 0,
										"default_fontsize" : 12.0,
										"default_fontface" : 0,
										"default_fontname" : "Arial",
										"gridonopen" : 1,
										"gridsize" : [ 15.0, 15.0 ],
										"gridsnaponopen" : 1,
										"objectsnaponopen" : 1,
										"statusbarvisible" : 2,
										"toolbarvisible" : 1,
										"lefttoolbarpinned" : 0,
										"toptoolbarpinned" : 0,
										"righttoolbarpinned" : 0,
										"bottomtoolbarpinned" : 0,
										"toolbars_unpinned_last_save" : 0,
										"tallnewobj" : 0,
										"boxanimatetime" : 200,
										"enablehscroll" : 1,
										"enablevscroll" : 1,
										"devicewidth" : 0.0,
										"description" : "",
										"digest" : "",
										"tags" : "",
										"style" : "",
										"subpatcher_template" : "",
										"boxes" : [ 											{
												"box" : 												{
													"fontname" : "Arial",
													"fontsize" : 12.0,
													"id" : "obj-33",
													"maxclass" : "newobj",
													"numinlets" : 2,
													"numoutlets" : 1,
													"outlettype" : [ "" ],
													"patching_rect" : [ 314.0, 151.0, 54.0, 20.0 ],
													"style" : "",
													"text" : "gate 1 1"
												}

											}
, 											{
												"box" : 												{
													"fontname" : "Arial",
													"fontsize" : 12.0,
													"id" : "obj-32",
													"maxclass" : "newobj",
													"numinlets" : 2,
													"numoutlets" : 1,
													"outlettype" : [ "" ],
													"patching_rect" : [ 215.666626, 151.0, 54.0, 20.0 ],
													"style" : "",
													"text" : "gate 1 1"
												}

											}
, 											{
												"box" : 												{
													"fontname" : "Arial",
													"fontsize" : 12.0,
													"id" : "obj-31",
													"maxclass" : "newobj",
													"numinlets" : 2,
													"numoutlets" : 1,
													"outlettype" : [ "" ],
													"patching_rect" : [ 98.222168, 151.0, 54.0, 20.0 ],
													"style" : "",
													"text" : "gate 1 1"
												}

											}
, 											{
												"box" : 												{
													"fontname" : "Arial",
													"fontsize" : 12.0,
													"id" : "obj-30",
													"maxclass" : "newobj",
													"numinlets" : 1,
													"numoutlets" : 3,
													"outlettype" : [ "int", "", "int" ],
													"patching_rect" : [ 50.0, 100.0, 46.0, 20.0 ],
													"style" : "",
													"text" : "t 1 s 0"
												}

											}
, 											{
												"box" : 												{
													"comment" : "",
													"id" : "obj-37",
													"maxclass" : "inlet",
													"numinlets" : 0,
													"numoutlets" : 1,
													"outlettype" : [ "" ],
													"patching_rect" : [ 50.0, 40.0, 25.0, 25.0 ],
													"style" : ""
												}

											}
, 											{
												"box" : 												{
													"comment" : "",
													"id" : "obj-38",
													"maxclass" : "inlet",
													"numinlets" : 0,
													"numoutlets" : 1,
													"outlettype" : [ "float" ],
													"patching_rect" : [ 133.222168, 40.0, 25.0, 25.0 ],
													"style" : ""
												}

											}
, 											{
												"box" : 												{
													"comment" : "",
													"id" : "obj-39",
													"maxclass" : "inlet",
													"numinlets" : 0,
													"numoutlets" : 1,
													"outlettype" : [ "float" ],
													"patching_rect" : [ 250.666626, 40.0, 25.0, 25.0 ],
													"style" : ""
												}

											}
, 											{
												"box" : 												{
													"comment" : "",
													"id" : "obj-40",
													"maxclass" : "inlet",
													"numinlets" : 0,
													"numoutlets" : 1,
													"outlettype" : [ "float" ],
													"patching_rect" : [ 349.0, 40.0, 25.0, 25.0 ],
													"style" : ""
												}

											}
, 											{
												"box" : 												{
													"comment" : "",
													"id" : "obj-41",
													"maxclass" : "outlet",
													"numinlets" : 1,
													"numoutlets" : 0,
													"patching_rect" : [ 63.0, 231.0, 25.0, 25.0 ],
													"style" : ""
												}

											}
, 											{
												"box" : 												{
													"comment" : "",
													"id" : "obj-42",
													"maxclass" : "outlet",
													"numinlets" : 1,
													"numoutlets" : 0,
													"patching_rect" : [ 98.222168, 231.0, 25.0, 25.0 ],
													"style" : ""
												}

											}
, 											{
												"box" : 												{
													"comment" : "",
													"id" : "obj-43",
													"maxclass" : "outlet",
													"numinlets" : 1,
													"numoutlets" : 0,
													"patching_rect" : [ 215.666626, 231.0, 25.0, 25.0 ],
													"style" : ""
												}

											}
, 											{
												"box" : 												{
													"comment" : "",
													"id" : "obj-44",
													"maxclass" : "outlet",
													"numinlets" : 1,
													"numoutlets" : 0,
													"patching_rect" : [ 314.0, 231.0, 25.0, 25.0 ],
													"style" : ""
												}

											}
 ],
										"lines" : [ 											{
												"patchline" : 												{
													"destination" : [ "obj-31", 0 ],
													"disabled" : 0,
													"hidden" : 0,
													"source" : [ "obj-30", 2 ]
												}

											}
, 											{
												"patchline" : 												{
													"destination" : [ "obj-31", 0 ],
													"disabled" : 0,
													"hidden" : 0,
													"source" : [ "obj-30", 0 ]
												}

											}
, 											{
												"patchline" : 												{
													"destination" : [ "obj-32", 0 ],
													"disabled" : 0,
													"hidden" : 0,
													"source" : [ "obj-30", 2 ]
												}

											}
, 											{
												"patchline" : 												{
													"destination" : [ "obj-32", 0 ],
													"disabled" : 0,
													"hidden" : 0,
													"source" : [ "obj-30", 0 ]
												}

											}
, 											{
												"patchline" : 												{
													"destination" : [ "obj-33", 0 ],
													"disabled" : 0,
													"hidden" : 0,
													"source" : [ "obj-30", 2 ]
												}

											}
, 											{
												"patchline" : 												{
													"destination" : [ "obj-33", 0 ],
													"disabled" : 0,
													"hidden" : 0,
													"source" : [ "obj-30", 0 ]
												}

											}
, 											{
												"patchline" : 												{
													"destination" : [ "obj-41", 0 ],
													"disabled" : 0,
													"hidden" : 0,
													"source" : [ "obj-30", 1 ]
												}

											}
, 											{
												"patchline" : 												{
													"destination" : [ "obj-42", 0 ],
													"disabled" : 0,
													"hidden" : 0,
													"source" : [ "obj-31", 0 ]
												}

											}
, 											{
												"patchline" : 												{
													"destination" : [ "obj-43", 0 ],
													"disabled" : 0,
													"hidden" : 0,
													"source" : [ "obj-32", 0 ]
												}

											}
, 											{
												"patchline" : 												{
													"destination" : [ "obj-44", 0 ],
													"disabled" : 0,
													"hidden" : 0,
													"source" : [ "obj-33", 0 ]
												}

											}
, 											{
												"patchline" : 												{
													"destination" : [ "obj-30", 0 ],
													"disabled" : 0,
													"hidden" : 0,
													"source" : [ "obj-37", 0 ]
												}

											}
, 											{
												"patchline" : 												{
													"destination" : [ "obj-31", 1 ],
													"disabled" : 0,
													"hidden" : 0,
													"source" : [ "obj-38", 0 ]
												}

											}
, 											{
												"patchline" : 												{
													"destination" : [ "obj-32", 1 ],
													"disabled" : 0,
													"hidden" : 0,
													"source" : [ "obj-39", 0 ]
												}

											}
, 											{
												"patchline" : 												{
													"destination" : [ "obj-33", 1 ],
													"disabled" : 0,
													"hidden" : 0,
													"source" : [ "obj-40", 0 ]
												}

											}
 ]
									}
,
									"patching_rect" : [ 298.0, 175.0, 415.861145, 23.0 ],
									"saved_object_attributes" : 									{
										"description" : "",
										"digest" : "",
										"globalpatchername" : "",
										"style" : "",
										"tags" : ""
									}
,
									"style" : "",
									"text" : "p gate_when_changing_type"
								}

							}
, 							{
								"box" : 								{
									"fontname" : "Helvetica Neue Light",
									"fontsize" : 14.0,
									"id" : "obj-29",
									"maxclass" : "newobj",
									"numinlets" : 2,
									"numoutlets" : 2,
									"outlettype" : [ "", "" ],
									"patching_rect" : [ 694.861084, 286.0, 65.0, 23.0 ],
									"style" : "",
									"text" : "route set"
								}

							}
, 							{
								"box" : 								{
									"fontname" : "Helvetica Neue Light",
									"fontsize" : 14.0,
									"id" : "obj-4",
									"maxclass" : "newobj",
									"numinlets" : 2,
									"numoutlets" : 2,
									"outlettype" : [ "", "" ],
									"patching_rect" : [ 562.574097, 286.0, 65.0, 23.0 ],
									"style" : "",
									"text" : "route set"
								}

							}
, 							{
								"box" : 								{
									"fontname" : "Helvetica Neue Light",
									"fontsize" : 14.0,
									"id" : "obj-5",
									"maxclass" : "newobj",
									"numinlets" : 2,
									"numoutlets" : 2,
									"outlettype" : [ "", "" ],
									"patching_rect" : [ 431.129639, 286.0, 65.0, 23.0 ],
									"style" : "",
									"text" : "route set"
								}

							}
, 							{
								"box" : 								{
									"fontname" : "Helvetica Neue Light",
									"fontsize" : 14.0,
									"id" : "obj-27",
									"maxclass" : "newobj",
									"numinlets" : 1,
									"numoutlets" : 1,
									"outlettype" : [ "" ],
									"patching_rect" : [ 562.574097, 208.0, 49.0, 23.0 ],
									"style" : "",
									"text" : "atodb"
								}

							}
, 							{
								"box" : 								{
									"fontname" : "Helvetica Neue Light",
									"fontsize" : 14.0,
									"id" : "obj-6",
									"maxclass" : "newobj",
									"numinlets" : 1,
									"numoutlets" : 1,
									"outlettype" : [ "" ],
									"patching_rect" : [ 562.574097, 320.0, 49.0, 23.0 ],
									"style" : "",
									"text" : "dbtoa"
								}

							}
, 							{
								"box" : 								{
									"color" : [ 0.937255, 0.733333, 0.317647, 1.0 ],
									"fontname" : "Helvetica Neue Light",
									"fontsize" : 14.0,
									"id" : "obj-22",
									"maxclass" : "newobj",
									"numinlets" : 1,
									"numoutlets" : 3,
									"outlettype" : [ "", "", "" ],
									"patching_rect" : [ 298.0, 124.0, 91.0, 23.0 ],
									"style" : "",
									"text" : "j.receive type"
								}

							}
, 							{
								"box" : 								{
									"fontname" : "Helvetica Neue Light",
									"fontsize" : 14.0,
									"id" : "obj-15",
									"linecount" : 2,
									"maxclass" : "newobj",
									"numinlets" : 1,
									"numoutlets" : 1,
									"outlettype" : [ "" ],
									"patching_rect" : [ 694.861084, 208.0, 131.0, 23.0 ],
									"style" : "",
									"text" : "j.q2octavebandwidth"
								}

							}
, 							{
								"box" : 								{
									"fontname" : "Helvetica Neue Light",
									"fontsize" : 14.0,
									"id" : "obj-12",
									"linecount" : 2,
									"maxclass" : "newobj",
									"numinlets" : 1,
									"numoutlets" : 1,
									"outlettype" : [ "" ],
									"patching_rect" : [ 694.861084, 320.0, 131.0, 23.0 ],
									"style" : "",
									"text" : "j.octavebandwidth2q"
								}

							}
, 							{
								"box" : 								{
									"fontname" : "Helvetica Neue Light",
									"fontsize" : 14.0,
									"id" : "obj-10",
									"maxclass" : "newobj",
									"numinlets" : 4,
									"numoutlets" : 1,
									"outlettype" : [ "" ],
									"patching_rect" : [ 381.796265, 369.0, 167.0, 23.0 ],
									"style" : "",
									"text" : "pak set 100. 1. 1.333"
								}

							}
, 							{
								"box" : 								{
									"color" : [ 0.937255, 0.733333, 0.317647, 1.0 ],
									"fontname" : "Helvetica Neue Light",
									"fontsize" : 14.0,
									"id" : "obj-7",
									"linecount" : 2,
									"maxclass" : "newobj",
									"numinlets" : 1,
									"numoutlets" : 4,
									"outlettype" : [ "", "", "", "" ],
									"patching_rect" : [ 694.861084, 248.0, 168.0, 23.0 ],
									"style" : "",
									"text" : "j.remote octave_bandwidth"
								}

							}
, 							{
								"box" : 								{
									"color" : [ 0.937255, 0.733333, 0.317647, 1.0 ],
									"fontname" : "Helvetica Neue Light",
									"fontsize" : 14.0,
									"id" : "obj-9",
									"maxclass" : "newobj",
									"numinlets" : 1,
									"numoutlets" : 4,
									"outlettype" : [ "", "", "", "" ],
									"patching_rect" : [ 562.574097, 248.0, 90.0, 23.0 ],
									"style" : "",
									"text" : "j.remote gain"
								}

							}
, 							{
								"box" : 								{
									"color" : [ 0.937255, 0.733333, 0.317647, 1.0 ],
									"fontname" : "Helvetica Neue Light",
									"fontsize" : 14.0,
									"id" : "obj-13",
									"maxclass" : "newobj",
									"numinlets" : 1,
									"numoutlets" : 4,
									"outlettype" : [ "", "", "", "" ],
									"patching_rect" : [ 431.129639, 248.0, 124.0, 23.0 ],
									"style" : "",
									"text" : "j.remote frequency"
								}

							}
, 							{
								"box" : 								{
									"color" : [ 0.533333, 0.756863, 0.658824, 1.0 ],
									"fontname" : "Helvetica Neue Light",
									"fontsize" : 14.0,
									"id" : "obj-35",
									"maxclass" : "newobj",
									"numinlets" : 1,
									"numoutlets" : 2,
									"outlettype" : [ "", "" ],
									"patching_rect" : [ 133.861084, 254.5, 47.0, 23.0 ],
									"style" : "",
									"text" : "j.view"
								}

							}
, 							{
								"box" : 								{
									"comment" : "",
									"id" : "obj-16",
									"maxclass" : "inlet",
									"numinlets" : 0,
									"numoutlets" : 1,
									"outlettype" : [ "float" ],
									"patching_rect" : [ 430.574097, 81.0, 25.0, 25.0 ],
									"style" : ""
								}

							}
, 							{
								"box" : 								{
									"comment" : "",
									"id" : "obj-17",
									"maxclass" : "inlet",
									"numinlets" : 0,
									"numoutlets" : 1,
									"outlettype" : [ "float" ],
									"patching_rect" : [ 562.574097, 81.0, 25.0, 25.0 ],
									"style" : ""
								}

							}
, 							{
								"box" : 								{
									"comment" : "",
									"id" : "obj-18",
									"maxclass" : "inlet",
									"numinlets" : 0,
									"numoutlets" : 1,
									"outlettype" : [ "float" ],
									"patching_rect" : [ 694.574097, 81.0, 25.0, 25.0 ],
									"style" : ""
								}

							}
, 							{
								"box" : 								{
									"comment" : "",
									"id" : "obj-19",
									"maxclass" : "outlet",
									"numinlets" : 1,
									"numoutlets" : 0,
									"patching_rect" : [ 298.0, 403.5, 25.0, 25.0 ],
									"style" : ""
								}

							}
, 							{
								"box" : 								{
									"comment" : "",
									"id" : "obj-20",
									"maxclass" : "outlet",
									"numinlets" : 1,
									"numoutlets" : 0,
									"patching_rect" : [ 381.796265, 403.5, 25.0, 25.0 ],
									"style" : ""
								}

							}
 ],
						"lines" : [ 							{
								"patchline" : 								{
									"destination" : [ "obj-35", 0 ],
									"disabled" : 0,
									"hidden" : 0,
									"source" : [ "obj-1", 0 ]
								}

							}
, 							{
								"patchline" : 								{
									"destination" : [ "obj-20", 0 ],
									"disabled" : 0,
									"hidden" : 0,
									"source" : [ "obj-10", 0 ]
								}

							}
, 							{
								"patchline" : 								{
									"destination" : [ "obj-10", 3 ],
									"disabled" : 0,
									"hidden" : 0,
									"source" : [ "obj-12", 0 ]
								}

							}
, 							{
								"patchline" : 								{
									"destination" : [ "obj-5", 0 ],
									"disabled" : 0,
									"hidden" : 0,
									"source" : [ "obj-13", 0 ]
								}

							}
, 							{
								"patchline" : 								{
									"destination" : [ "obj-7", 0 ],
									"disabled" : 0,
									"hidden" : 0,
									"source" : [ "obj-15", 0 ]
								}

							}
, 							{
								"patchline" : 								{
									"destination" : [ "obj-45", 1 ],
									"disabled" : 0,
									"hidden" : 0,
									"source" : [ "obj-16", 0 ]
								}

							}
, 							{
								"patchline" : 								{
									"destination" : [ "obj-45", 2 ],
									"disabled" : 0,
									"hidden" : 0,
									"source" : [ "obj-17", 0 ]
								}

							}
, 							{
								"patchline" : 								{
									"destination" : [ "obj-45", 3 ],
									"disabled" : 0,
									"hidden" : 0,
									"source" : [ "obj-18", 0 ]
								}

							}
, 							{
								"patchline" : 								{
									"destination" : [ "obj-45", 0 ],
									"disabled" : 0,
									"hidden" : 0,
									"source" : [ "obj-22", 0 ]
								}

							}
, 							{
								"patchline" : 								{
									"destination" : [ "obj-9", 0 ],
									"disabled" : 0,
									"hidden" : 0,
									"source" : [ "obj-27", 0 ]
								}

							}
, 							{
								"patchline" : 								{
									"destination" : [ "obj-12", 0 ],
									"disabled" : 0,
									"hidden" : 0,
									"source" : [ "obj-29", 0 ]
								}

							}
, 							{
								"patchline" : 								{
									"destination" : [ "obj-2", 0 ],
									"disabled" : 0,
									"hidden" : 0,
									"source" : [ "obj-35", 0 ]
								}

							}
, 							{
								"patchline" : 								{
									"destination" : [ "obj-6", 0 ],
									"disabled" : 0,
									"hidden" : 0,
									"source" : [ "obj-4", 0 ]
								}

							}
, 							{
								"patchline" : 								{
									"destination" : [ "obj-13", 0 ],
									"disabled" : 0,
									"hidden" : 0,
									"source" : [ "obj-45", 1 ]
								}

							}
, 							{
								"patchline" : 								{
									"destination" : [ "obj-15", 0 ],
									"disabled" : 0,
									"hidden" : 0,
									"source" : [ "obj-45", 3 ]
								}

							}
, 							{
								"patchline" : 								{
									"destination" : [ "obj-19", 0 ],
									"disabled" : 0,
									"hidden" : 0,
									"source" : [ "obj-45", 0 ]
								}

							}
, 							{
								"patchline" : 								{
									"destination" : [ "obj-27", 0 ],
									"disabled" : 0,
									"hidden" : 0,
									"source" : [ "obj-45", 2 ]
								}

							}
, 							{
								"patchline" : 								{
									"destination" : [ "obj-10", 1 ],
									"disabled" : 0,
									"hidden" : 0,
									"source" : [ "obj-5", 0 ]
								}

							}
, 							{
								"patchline" : 								{
									"destination" : [ "obj-10", 2 ],
									"disabled" : 0,
									"hidden" : 0,
									"source" : [ "obj-6", 0 ]
								}

							}
, 							{
								"patchline" : 								{
									"destination" : [ "obj-29", 0 ],
									"disabled" : 0,
									"hidden" : 0,
									"source" : [ "obj-7", 0 ]
								}

							}
, 							{
								"patchline" : 								{
									"destination" : [ "obj-4", 0 ],
									"disabled" : 0,
									"hidden" : 0,
									"source" : [ "obj-9", 0 ]
								}

							}
 ]
					}
,
					"patching_rect" : [ 199.299118, 861.5, 111.0, 22.0 ],
					"saved_object_attributes" : 					{
						"description" : "",
						"digest" : "",
						"globalpatchername" : "",
						"style" : "",
						"tags" : ""
					}
,
					"style" : "",
					"text" : "p filter_graph"
				}

			}
, 			{
				"box" : 				{
					"bubble" : 1,
					"fontname" : "Arial",
					"fontsize" : 12.0,
					"id" : "obj-8",
					"maxclass" : "comment",
					"numinlets" : 1,
					"numoutlets" : 0,
					"patching_rect" : [ 1084.333496, 449.5, 153.0, 24.0 ],
					"style" : "",
					"text" : "Display freq responce"
				}

			}
, 			{
				"box" : 				{
					"color" : [ 0.831373, 0.54902, 0.839216, 1.0 ],
					"fontface" : 0,
					"fontname" : "Arial",
					"fontsize" : 12.0,
					"id" : "obj-25",
					"linecount" : 3,
					"maxclass" : "newobj",
					"numinlets" : 2,
					"numoutlets" : 4,
					"outlettype" : [ "", "", "", "" ],
					"patching_rect" : [ 941.833374, 166.0, 113.999947, 49.0 ],
					"style" : "",
					"text" : "j.remote_array filter.[5]/frequency @format single"
				}

			}
, 			{
				"box" : 				{
					"color" : [ 0.831373, 0.54902, 0.839216, 1.0 ],
					"fontface" : 0,
					"fontname" : "Arial",
					"fontsize" : 12.0,
					"id" : "obj-23",
					"linecount" : 3,
					"maxclass" : "newobj",
					"numinlets" : 2,
					"numoutlets" : 4,
					"outlettype" : [ "", "", "", "" ],
					"patching_rect" : [ 1068.666748, 166.0, 100.0, 49.0 ],
					"style" : "",
					"text" : "j.remote_array filter.[5]/gain @format single"
				}

			}
, 			{
				"box" : 				{
					"fontname" : "Arial",
					"fontsize" : 12.0,
					"id" : "obj-69",
					"maxclass" : "newobj",
					"numinlets" : 1,
					"numoutlets" : 1,
					"outlettype" : [ "" ],
					"patching_rect" : [ 1369.0, 259.0, 96.0, 22.0 ],
					"style" : "",
					"text" : "prepend nfilters"
				}

			}
, 			{
				"box" : 				{
					"fontname" : "Arial",
					"fontsize" : 12.0,
					"id" : "obj-67",
					"maxclass" : "newobj",
					"numinlets" : 1,
					"numoutlets" : 2,
					"outlettype" : [ "int", "int" ],
					"patching_rect" : [ 827.000061, 91.0, 560.999939, 22.0 ],
					"style" : "",
					"text" : "t i i"
				}

			}
, 			{
				"box" : 				{
					"bubble" : 1,
					"fontname" : "Arial",
					"fontsize" : 12.0,
					"id" : "obj-66",
					"maxclass" : "comment",
					"numinlets" : 1,
					"numoutlets" : 0,
					"patching_rect" : [ 1084.333496, 365.25, 154.0, 24.0 ],
					"style" : "",
					"text" : "Used for mapping"
				}

			}
, 			{
				"box" : 				{
					"fontname" : "Arial",
					"fontsize" : 12.0,
					"id" : "obj-63",
					"maxclass" : "newobj",
					"numinlets" : 1,
					"numoutlets" : 1,
					"outlettype" : [ "" ],
					"patching_rect" : [ 854.666687, 407.5, 106.0, 22.0 ],
					"style" : "",
					"text" : "prepend cascade"
				}

			}
, 			{
				"box" : 				{
					"fontname" : "Arial",
					"fontsize" : 12.0,
					"id" : "obj-62",
					"maxclass" : "newobj",
					"numinlets" : 1,
					"numoutlets" : 1,
					"outlettype" : [ "" ],
					"patching_rect" : [ 1095.666748, 275.0, 45.0, 22.0 ],
					"style" : "",
					"text" : "dbtoa"
				}

			}
, 			{
				"box" : 				{
					"fontname" : "Arial",
					"fontsize" : 12.0,
					"id" : "obj-61",
					"maxclass" : "newobj",
					"numinlets" : 1,
					"numoutlets" : 1,
					"outlettype" : [ "" ],
					"patching_rect" : [ 1228.388916, 275.0, 118.0, 22.0 ],
					"style" : "",
					"text" : "j.octavebandwidth2q"
				}

			}
, 			{
				"box" : 				{
					"fontname" : "Arial",
					"fontsize" : 12.0,
					"id" : "obj-60",
					"maxclass" : "newobj",
					"numinlets" : 2,
					"numoutlets" : 1,
					"outlettype" : [ "int" ],
					"patching_rect" : [ 780.0, 253.0, 35.0, 22.0 ],
					"style" : "",
					"text" : "- 1"
				}

			}
, 			{
				"box" : 				{
					"fontname" : "Arial",
					"fontsize" : 12.0,
					"id" : "obj-56",
					"maxclass" : "message",
					"numinlets" : 2,
					"numoutlets" : 1,
					"outlettype" : [ "" ],
					"patching_rect" : [ 780.0, 299.0, 73.0, 22.0 ],
					"style" : "",
					"text" : "whichfilt $1"
				}

			}
, 			{
				"box" : 				{
					"color" : [ 0.831373, 0.54902, 0.839216, 1.0 ],
					"fontname" : "Arial",
					"fontsize" : 12.0,
					"id" : "obj-30",
					"maxclass" : "newobj",
					"numinlets" : 1,
					"numoutlets" : 3,
					"outlettype" : [ "", "", "" ],
					"patching_rect" : [ 827.000061, 55.0, 94.0, 22.0 ],
					"style" : "",
					"text" : "j.receive bands"
				}

			}
, 			{
				"box" : 				{
					"fontname" : "Arial",
					"fontsize" : 12.0,
					"id" : "obj-28",
					"maxclass" : "message",
					"numinlets" : 2,
					"numoutlets" : 1,
					"outlettype" : [ "" ],
					"patching_rect" : [ 827.000061, 120.0, 93.0, 22.0 ],
					"style" : "",
					"text" : "array/resize $1"
				}

			}
, 			{
				"box" : 				{
					"color" : [ 0.831373, 0.54902, 0.839216, 1.0 ],
					"fontface" : 0,
					"fontname" : "Arial",
					"fontsize" : 12.0,
					"id" : "obj-26",
					"linecount" : 3,
					"maxclass" : "newobj",
					"numinlets" : 2,
					"numoutlets" : 4,
					"outlettype" : [ "", "", "", "" ],
					"patching_rect" : [ 827.000061, 166.0, 101.999878, 49.0 ],
					"style" : "",
					"text" : "j.remote_array filter.[5]/type @format single"
				}

			}
, 			{
				"box" : 				{
					"color" : [ 0.831373, 0.54902, 0.839216, 1.0 ],
					"fontface" : 0,
					"fontname" : "Arial",
					"fontsize" : 12.0,
					"id" : "obj-24",
					"linecount" : 2,
					"maxclass" : "newobj",
					"numinlets" : 2,
					"numoutlets" : 4,
					"outlettype" : [ "", "", "", "" ],
					"patching_rect" : [ 1181.5, 166.0, 233.0, 35.0 ],
					"style" : "",
					"text" : "j.remote_array filter.[5]/octave_bandwidth @format single"
				}

			}
, 			{
				"box" : 				{
					"curvecolor" : [ 0.815686, 0.858824, 0.34902, 1.0 ],
					"fontface" : 0,
					"fontname" : "Arial",
					"fontsize" : 12.0,
					"id" : "obj-2",
					"linmarkers" : [ 0.0, 11025.0, 16537.5 ],
					"logmarkers" : [ 0.0, 100.0, 1000.0, 10000.0 ],
					"maxclass" : "filtergraph~",
					"nfilters" : 4,
					"numinlets" : 8,
					"numoutlets" : 7,
					"outlettype" : [ "list", "float", "float", "float", "float", "list", "int" ],
					"parameter_enable" : 0,
					"patching_rect" : [ 854.666687, 357.5, 185.366669, 43.5 ],
					"setfilter" : [ 3, 7, 1, 0, 0, 5000.0, 1.0, 1.414214, 0.0, 0.0, 0.0, 0.0, 0.0, 0.0, 2, 5, 1, 0, 0, 1000.0, 1.0, 1.414214, 0.0, 0.0, 0.0, 0.0, 0.0, 0.0, 1, 5, 1, 0, 0, 300.0, 1.0, 1.414214, 0.0, 0.0, 0.0, 0.0, 0.0, 0.0, 0, 6, 1, 0, 0, 75.0, 1.0, 1.414214, 0.0, 0.0, 0.0, 0.0, 0.0, 0.0 ],
					"style" : ""
				}

			}
, 			{
				"box" : 				{
					"bgcolor" : [ 0.526442, 0.540023, 0.568813, 1.0 ],
					"bordercolor" : [ 0.921569, 0.917647, 0.933333, 1.0 ],
					"fontface" : 0,
					"headercolor" : [ 0.290196, 0.309804, 0.301961, 1.0 ],
					"highlightcolor" : [ 0.803922, 0.529412, 0.823529, 1.0 ],
					"id" : "obj-22",
					"maxclass" : "j.ui",
					"numinlets" : 1,
					"numoutlets" : 1,
					"outlettype" : [ "" ],
					"patching_rect" : [ 10.5, 9.5, 300.0, 70.0 ],
					"presentation" : 1,
					"presentation_rect" : [ 0.0, -0.5, 300.0, 140.0 ],
					"text" : "/no_model_address",
					"textcolor" : [ 0.921569, 0.917647, 0.933333, 1.0 ]
				}

			}
 ],
		"lines" : [ 			{
				"patchline" : 				{
					"destination" : [ "obj-21", 3 ],
					"disabled" : 0,
					"hidden" : 0,
					"source" : [ "obj-11", 3 ]
				}

			}
, 			{
				"patchline" : 				{
					"destination" : [ "obj-21", 2 ],
					"disabled" : 0,
					"hidden" : 0,
					"source" : [ "obj-11", 2 ]
				}

			}
, 			{
				"patchline" : 				{
					"destination" : [ "obj-21", 1 ],
					"disabled" : 0,
					"hidden" : 0,
					"source" : [ "obj-11", 1 ]
				}

			}
, 			{
				"patchline" : 				{
					"destination" : [ "obj-13", 1 ],
					"disabled" : 0,
					"hidden" : 0,
					"source" : [ "obj-12", 1 ]
				}

			}
, 			{
				"patchline" : 				{
					"destination" : [ "obj-14", 0 ],
					"disabled" : 0,
					"hidden" : 0,
					"midpoints" : [ 93.666748, 667.0, 46.5, 667.0, 46.5, 530.0, 68.666748, 530.0 ],
					"source" : [ "obj-12", 0 ]
				}

			}
, 			{
				"patchline" : 				{
					"destination" : [ "obj-36", 0 ],
					"disabled" : 0,
					"hidden" : 0,
					"source" : [ "obj-13", 0 ]
				}

			}
, 			{
				"patchline" : 				{
					"destination" : [ "obj-15", 0 ],
					"disabled" : 0,
					"hidden" : 0,
					"source" : [ "obj-14", 0 ]
				}

			}
, 			{
				"patchline" : 				{
					"destination" : [ "obj-13", 0 ],
					"disabled" : 0,
					"hidden" : 0,
					"source" : [ "obj-15", 0 ]
				}

			}
, 			{
				"patchline" : 				{
					"destination" : [ "obj-36", 1 ],
					"disabled" : 0,
					"hidden" : 0,
					"midpoints" : [ 83.666748, 601.5, 245.666748, 601.5 ],
					"source" : [ "obj-15", 1 ]
				}

			}
, 			{
				"patchline" : 				{
					"destination" : [ "obj-4", 0 ],
					"disabled" : 0,
					"hidden" : 0,
					"source" : [ "obj-18", 0 ]
				}

			}
, 			{
				"patchline" : 				{
					"destination" : [ "obj-63", 0 ],
					"disabled" : 0,
					"hidden" : 0,
					"source" : [ "obj-2", 0 ]
				}

			}
, 			{
				"patchline" : 				{
					"destination" : [ "obj-11", 5 ],
					"disabled" : 0,
					"hidden" : 0,
					"midpoints" : [ 300.799133, 894.5, 410.350311, 894.5, 410.350311, 770.5, 340.227692, 770.5 ],
					"source" : [ "obj-21", 2 ]
				}

			}
, 			{
				"patchline" : 				{
					"destination" : [ "obj-11", 0 ],
					"disabled" : 0,
					"hidden" : 0,
					"midpoints" : [ 254.799118, 900.5, 421.452148, 900.5, 421.452148, 762.5, 208.799118, 762.5 ],
					"source" : [ "obj-21", 1 ]
				}

			}
, 			{
				"patchline" : 				{
					"destination" : [ "obj-76", 0 ],
					"disabled" : 0,
					"hidden" : 0,
					"source" : [ "obj-22", 0 ]
				}

			}
, 			{
				"patchline" : 				{
					"destination" : [ "obj-60", 0 ],
					"disabled" : 0,
					"hidden" : 0,
					"midpoints" : [ 1132.166748, 237.0, 789.5, 237.0 ],
					"source" : [ "obj-23", 2 ]
				}

			}
, 			{
				"patchline" : 				{
					"destination" : [ "obj-62", 0 ],
					"disabled" : 0,
					"hidden" : 0,
					"source" : [ "obj-23", 1 ]
				}

			}
, 			{
				"patchline" : 				{
					"destination" : [ "obj-60", 0 ],
					"disabled" : 0,
					"hidden" : 0,
					"midpoints" : [ 1333.666626, 237.0, 789.5, 237.0 ],
					"source" : [ "obj-24", 2 ]
				}

			}
, 			{
				"patchline" : 				{
					"destination" : [ "obj-61", 0 ],
					"disabled" : 0,
					"hidden" : 0,
					"source" : [ "obj-24", 1 ]
				}

			}
, 			{
				"patchline" : 				{
					"destination" : [ "obj-2", 5 ],
					"disabled" : 0,
					"hidden" : 0,
					"source" : [ "obj-25", 1 ]
				}

			}
, 			{
				"patchline" : 				{
					"destination" : [ "obj-60", 0 ],
					"disabled" : 0,
					"hidden" : 0,
					"midpoints" : [ 1014.666687, 237.0, 789.5, 237.0 ],
					"source" : [ "obj-25", 2 ]
				}

			}
, 			{
				"patchline" : 				{
					"destination" : [ "obj-2", 0 ],
					"disabled" : 0,
					"hidden" : 0,
					"source" : [ "obj-26", 1 ]
				}

			}
, 			{
				"patchline" : 				{
					"destination" : [ "obj-60", 0 ],
					"disabled" : 0,
					"hidden" : 0,
					"midpoints" : [ 891.833313, 237.0, 789.5, 237.0 ],
					"source" : [ "obj-26", 2 ]
				}

			}
, 			{
				"patchline" : 				{
					"destination" : [ "obj-23", 0 ],
					"disabled" : 0,
					"hidden" : 0,
					"midpoints" : [ 836.500061, 153.0, 1078.166748, 153.0 ],
					"source" : [ "obj-28", 0 ]
				}

			}
, 			{
				"patchline" : 				{
					"destination" : [ "obj-24", 0 ],
					"disabled" : 0,
					"hidden" : 0,
					"midpoints" : [ 836.500061, 153.0, 1191.0, 153.0 ],
					"source" : [ "obj-28", 0 ]
				}

			}
, 			{
				"patchline" : 				{
					"destination" : [ "obj-25", 0 ],
					"disabled" : 0,
					"hidden" : 0,
					"midpoints" : [ 836.500061, 153.0, 951.333374, 153.0 ],
					"source" : [ "obj-28", 0 ]
				}

			}
, 			{
				"patchline" : 				{
					"destination" : [ "obj-26", 0 ],
					"disabled" : 0,
					"hidden" : 0,
					"midpoints" : [ 836.500061, 156.0, 836.500061, 156.0 ],
					"source" : [ "obj-28", 0 ]
				}

			}
, 			{
				"patchline" : 				{
					"destination" : [ "obj-67", 0 ],
					"disabled" : 0,
					"hidden" : 0,
					"source" : [ "obj-30", 0 ]
				}

			}
, 			{
				"patchline" : 				{
					"destination" : [ "obj-21", 0 ],
					"disabled" : 0,
					"hidden" : 0,
					"midpoints" : [ 68.666748, 853.75, 208.799118, 853.75 ],
					"source" : [ "obj-36", 0 ]
				}

			}
, 			{
				"patchline" : 				{
					"destination" : [ "obj-76", 0 ],
					"disabled" : 0,
					"hidden" : 0,
					"source" : [ "obj-36", 0 ]
				}

			}
, 			{
				"patchline" : 				{
					"destination" : [ "obj-18", 0 ],
					"disabled" : 0,
					"hidden" : 0,
					"source" : [ "obj-37", 0 ]
				}

			}
, 			{
				"patchline" : 				{
					"destination" : [ "obj-43", 0 ],
					"disabled" : 0,
					"hidden" : 0,
					"source" : [ "obj-38", 0 ]
				}

			}
, 			{
				"patchline" : 				{
					"destination" : [ "obj-14", 0 ],
					"disabled" : 0,
					"hidden" : 0,
					"source" : [ "obj-39", 1 ]
				}

			}
, 			{
				"patchline" : 				{
					"destination" : [ "obj-18", 1 ],
					"disabled" : 0,
					"hidden" : 0,
					"midpoints" : [ 55.166748, 513.0, 320.0, 513.0, 320.0, 396.0, 125.166748, 396.0 ],
					"source" : [ "obj-39", 0 ]
				}

			}
, 			{
				"patchline" : 				{
					"destination" : [ "obj-39", 0 ],
					"disabled" : 0,
					"hidden" : 0,
					"source" : [ "obj-4", 0 ]
				}

			}
, 			{
				"patchline" : 				{
					"destination" : [ "obj-34", 0 ],
					"disabled" : 0,
					"hidden" : 0,
					"source" : [ "obj-43", 0 ]
				}

			}
, 			{
				"patchline" : 				{
					"destination" : [ "obj-12", 0 ],
					"disabled" : 0,
					"hidden" : 0,
					"source" : [ "obj-5", 0 ]
				}

			}
, 			{
				"patchline" : 				{
					"destination" : [ "obj-2", 0 ],
					"disabled" : 0,
					"hidden" : 0,
					"source" : [ "obj-56", 0 ]
				}

			}
, 			{
				"patchline" : 				{
					"destination" : [ "obj-56", 0 ],
					"disabled" : 0,
					"hidden" : 0,
					"source" : [ "obj-60", 0 ]
				}

			}
, 			{
				"patchline" : 				{
					"destination" : [ "obj-2", 7 ],
					"disabled" : 0,
					"hidden" : 0,
					"source" : [ "obj-61", 0 ]
				}

			}
, 			{
				"patchline" : 				{
					"destination" : [ "obj-2", 6 ],
					"disabled" : 0,
					"hidden" : 0,
					"source" : [ "obj-62", 0 ]
				}

			}
, 			{
				"patchline" : 				{
					"destination" : [ "obj-1", 0 ],
					"disabled" : 0,
					"hidden" : 0,
					"source" : [ "obj-63", 0 ]
				}

			}
, 			{
				"patchline" : 				{
					"destination" : [ "obj-20", 0 ],
					"disabled" : 0,
					"hidden" : 0,
					"midpoints" : [ 864.166687, 432.0, 839.0, 432.0, 839.0, 495.0, 864.166687, 495.0 ],
					"source" : [ "obj-63", 0 ]
				}

			}
, 			{
				"patchline" : 				{
					"destination" : [ "obj-28", 0 ],
					"disabled" : 0,
					"hidden" : 0,
					"source" : [ "obj-67", 0 ]
				}

			}
, 			{
				"patchline" : 				{
					"destination" : [ "obj-69", 0 ],
					"disabled" : 0,
					"hidden" : 0,
					"source" : [ "obj-67", 1 ]
				}

			}
, 			{
				"patchline" : 				{
					"destination" : [ "obj-2", 0 ],
					"disabled" : 0,
					"hidden" : 0,
					"midpoints" : [ 1378.5, 327.5, 864.166687, 327.5 ],
					"source" : [ "obj-69", 0 ]
				}

			}
, 			{
				"patchline" : 				{
					"destination" : [ "obj-29", 0 ],
					"disabled" : 0,
					"hidden" : 0,
					"source" : [ "obj-72", 0 ]
				}

			}
, 			{
				"patchline" : 				{
					"destination" : [ "obj-42", 0 ],
					"disabled" : 0,
					"hidden" : 0,
					"source" : [ "obj-73", 0 ]
				}

			}
, 			{
				"patchline" : 				{
					"destination" : [ "obj-20", 0 ],
					"disabled" : 0,
					"hidden" : 0,
					"source" : [ "obj-76", 0 ]
				}

			}
 ],
		"parameters" : 		{
			"obj-76::obj-6" : [ "live.numbox[4]", "live.numbox[4]", 0 ],
			"obj-76::obj-9" : [ "live.menu", "live.menu", 0 ],
			"obj-76::obj-19" : [ "live.numbox", "live.numbox", 0 ],
			"obj-76::obj-17" : [ "live.numbox[5]", "live.numbox", 0 ],
			"obj-76::obj-7" : [ "live.numbox[2]", "live.numbox", 0 ]
		}
,
		"dependency_cache" : [ 			{
				"name" : "j.octavebandwidth2q.maxpat",
				"bootpath" : "~/Documents/Max 7/Packages/Jamoma/patchers/components/audio/octavebandwidth2q",
				"patcherrelativepath" : "../../../../Max 7/Packages/Jamoma/patchers/components/audio/octavebandwidth2q",
				"type" : "JSON",
				"implicit" : 1
			}
, 			{
				"name" : "j.q2octavebandwidth.maxpat",
				"bootpath" : "~/Documents/Max 7/Packages/Jamoma/patchers/components/audio/q2octavebandwith",
				"patcherrelativepath" : "../../../../Max 7/Packages/Jamoma/patchers/components/audio/q2octavebandwith",
				"type" : "JSON",
				"implicit" : 1
			}
, 			{
				"name" : "RDPJamomaLogo2.png",
				"bootpath" : "~/Documents/Github_Development_Library/rdpozo_Modules/_Dependencies",
				"patcherrelativepath" : "../../_Dependencies",
				"type" : "PNG ",
				"implicit" : 1
			}
, 			{
				"name" : "j.ui.mxo",
				"type" : "iLaX"
			}
, 			{
				"name" : "j.remote_array.mxo",
				"type" : "iLaX"
			}
, 			{
				"name" : "j.receive.mxo",
				"type" : "iLaX"
			}
, 			{
				"name" : "j.view.mxo",
				"type" : "iLaX"
			}
, 			{
				"name" : "j.remote.mxo",
				"type" : "iLaX"
			}
, 			{
				"name" : "j.receive~.mxo",
				"type" : "iLaX"
			}
, 			{
				"name" : "j.send.mxo",
				"type" : "iLaX"
			}
 ],
		"embedsnapshot" : 0,
		"styles" : [ 			{
				"name" : "AudioStatus_Menu",
				"default" : 				{
					"bgfillcolor" : 					{
						"type" : "color",
						"color" : [ 0.294118, 0.313726, 0.337255, 1 ],
						"color1" : [ 0.454902, 0.462745, 0.482353, 0.0 ],
						"color2" : [ 0.290196, 0.309804, 0.301961, 1.0 ],
						"angle" : 270.0,
						"proportion" : 0.39,
						"autogradient" : 0
					}

				}
,
				"parentstyle" : "",
				"multi" : 0
			}
, 			{
				"name" : "rdp-jamoma-style",
				"default" : 				{
					"bgcolor" : [ 1.0, 0.827451, 0.345098, 0.0 ],
					"fontface" : [ 0 ],
					"accentcolor" : [ 0.290196, 0.309804, 0.301961, 1.0 ],
					"selectioncolor" : [ 0.849573, 1.0, 0.926902, 1.0 ],
					"textcolor_inverse" : [ 0.290196, 0.309804, 0.301961, 1.0 ]
				}
,
				"parentstyle" : "",
				"multi" : 0
			}
 ]
	}

}
